<svg width="360" height="1200" viewBox="0 0 360 1200" fill="none" xmlns="http://www.w3.org/2000/svg">
<g clip-path="url(#clip0)">
<rect y="100" width="100" height="360" transform="rotate(-90 0 100)" fill="#FDD835"/>
<rect x="-6.10352e-05" y="200" width="100" height="360" transform="rotate(-90 -6.10352e-05 200)" fill="#FBC02D"/>
<rect x="-6.10352e-05" y="300" width="100" height="360" transform="rotate(-90 -6.10352e-05 300)" fill="#E53935"/>
<rect x="-6.10352e-05" y="400" width="100" height="360" transform="rotate(-90 -6.10352e-05 400)" fill="#D32F2F"/>
<rect x="-6.10352e-05" y="500" width="100" height="360" transform="rotate(-90 -6.10352e-05 500)" fill="#00B0FF"/>
<rect x="-3.05176e-05" y="600" width="100" height="360" transform="rotate(-90 -3.05176e-05 600)" fill="#0091EA"/>
<rect x="-3.05176e-05" y="700" width="100" height="360" transform="rotate(-90 -3.05176e-05 700)" fill="#00E676"/>
<rect x="-3.05176e-05" y="800" width="100" height="360" transform="rotate(-90 -3.05176e-05 800)" fill="#00C853"/>
<rect x="-3.05176e-05" y="900" width="100" height="360" transform="rotate(-90 -3.05176e-05 900)" fill="black" fill-opacity="0.42"/>
<rect x="-3.05176e-05" y="1000" width="100" height="360" transform="rotate(-90 -3.05176e-05 1000)" fill="#FAFAFA"/>
<rect x="-3.05176e-05" y="1100" width="100" height="360" transform="rotate(-90 -3.05176e-05 1100)" fill="#121212"/>
<rect x="-3.05176e-05" y="1200" width="100" height="360" transform="rotate(-90 -3.05176e-05 1200)" fill="#FDFBF9"/>
<path d="M107.759 945.093C109.054 945.093 110.226 945.39 111.275 945.985C112.325 946.562 113.147 947.384 113.742 948.452C114.337 949.519 114.634 950.734 114.634 952.099C114.634 953.463 114.337 954.679 113.742 955.746C113.147 956.813 112.325 957.644 111.275 958.239C110.226 958.834 109.054 959.131 107.759 959.131C106.605 959.131 105.564 958.886 104.637 958.396C103.727 957.907 102.992 957.198 102.432 956.271V959H100.648V939.53H102.511V947.822C103.088 946.93 103.823 946.256 104.715 945.801C105.625 945.329 106.64 945.093 107.759 945.093ZM107.628 957.478C108.59 957.478 109.465 957.259 110.252 956.822C111.039 956.367 111.651 955.729 112.089 954.907C112.544 954.084 112.771 953.148 112.771 952.099C112.771 951.049 112.544 950.113 112.089 949.291C111.651 948.469 111.039 947.839 110.252 947.402C109.465 946.947 108.59 946.72 107.628 946.72C106.648 946.72 105.765 946.947 104.978 947.402C104.208 947.839 103.596 948.469 103.141 949.291C102.704 950.113 102.485 951.049 102.485 952.099C102.485 953.148 102.704 954.084 103.141 954.907C103.596 955.729 104.208 956.367 104.978 956.822C105.765 957.259 106.648 957.478 107.628 957.478ZM123.183 945.093C124.985 945.093 126.367 945.548 127.329 946.457C128.291 947.349 128.772 948.679 128.772 950.446V959H126.988V956.848C126.568 957.566 125.947 958.125 125.125 958.528C124.32 958.93 123.358 959.131 122.238 959.131C120.699 959.131 119.475 958.764 118.565 958.029C117.655 957.294 117.2 956.324 117.2 955.116C117.2 953.944 117.62 953 118.46 952.283C119.317 951.565 120.673 951.207 122.527 951.207H126.909V950.367C126.909 949.177 126.577 948.277 125.912 947.664C125.247 947.035 124.276 946.72 122.999 946.72C122.125 946.72 121.285 946.868 120.48 947.166C119.676 947.446 118.985 947.839 118.407 948.347L117.568 946.956C118.267 946.361 119.107 945.906 120.087 945.591C121.066 945.259 122.099 945.093 123.183 945.093ZM122.527 957.662C123.577 957.662 124.478 957.426 125.23 956.953C125.982 956.463 126.542 955.764 126.909 954.854V952.597H122.58C120.218 952.597 119.037 953.42 119.037 955.064C119.037 955.869 119.343 956.507 119.956 956.98C120.568 957.434 121.425 957.662 122.527 957.662ZM139.604 959.131C138.24 959.131 137.015 958.834 135.93 958.239C134.863 957.644 134.024 956.813 133.411 955.746C132.799 954.662 132.493 953.446 132.493 952.099C132.493 950.752 132.799 949.545 133.411 948.478C134.024 947.411 134.863 946.58 135.93 945.985C137.015 945.39 138.24 945.093 139.604 945.093C140.794 945.093 141.852 945.329 142.779 945.801C143.724 946.256 144.467 946.93 145.009 947.822L143.619 948.766C143.164 948.084 142.587 947.577 141.887 947.244C141.187 946.895 140.426 946.72 139.604 946.72C138.607 946.72 137.706 946.947 136.901 947.402C136.114 947.839 135.493 948.469 135.038 949.291C134.601 950.113 134.382 951.049 134.382 952.099C134.382 953.166 134.601 954.111 135.038 954.933C135.493 955.737 136.114 956.367 136.901 956.822C137.706 957.259 138.607 957.478 139.604 957.478C140.426 957.478 141.187 957.312 141.887 956.98C142.587 956.647 143.164 956.14 143.619 955.458L145.009 956.402C144.467 957.294 143.724 957.977 142.779 958.449C141.834 958.904 140.776 959.131 139.604 959.131ZM153.581 952.073L150.327 955.064V959H148.464V939.53H150.327V952.729L158.567 945.198H160.876L154.972 950.839L161.427 959H159.144L153.581 952.073ZM176.439 945.198V957.321C176.439 959.665 175.862 961.397 174.707 962.516C173.57 963.653 171.847 964.222 169.538 964.222C168.261 964.222 167.045 964.029 165.89 963.644C164.753 963.277 163.826 962.761 163.109 962.096L164.054 960.679C164.718 961.274 165.523 961.738 166.468 962.07C167.43 962.402 168.436 962.569 169.485 962.569C171.235 962.569 172.52 962.158 173.343 961.335C174.165 960.531 174.576 959.271 174.576 957.557V955.799C173.999 956.673 173.238 957.338 172.293 957.793C171.366 958.248 170.334 958.475 169.197 958.475C167.902 958.475 166.721 958.195 165.654 957.636C164.605 957.058 163.774 956.262 163.161 955.248C162.567 954.216 162.269 953.052 162.269 951.758C162.269 950.463 162.567 949.309 163.161 948.294C163.774 947.279 164.605 946.492 165.654 945.932C166.704 945.373 167.885 945.093 169.197 945.093C170.369 945.093 171.427 945.329 172.372 945.801C173.316 946.274 174.077 946.956 174.655 947.848V945.198H176.439ZM169.38 956.822C170.377 956.822 171.278 956.612 172.083 956.192C172.888 955.755 173.509 955.151 173.946 954.382C174.401 953.612 174.628 952.737 174.628 951.758C174.628 950.778 174.401 949.912 173.946 949.16C173.509 948.39 172.888 947.796 172.083 947.376C171.296 946.938 170.395 946.72 169.38 946.72C168.383 946.72 167.482 946.93 166.678 947.349C165.89 947.769 165.269 948.364 164.815 949.134C164.377 949.903 164.159 950.778 164.159 951.758C164.159 952.737 164.377 953.612 164.815 954.382C165.269 955.151 165.89 955.755 166.678 956.192C167.482 956.612 168.383 956.822 169.38 956.822ZM183.433 947.9C183.87 946.973 184.518 946.274 185.375 945.801C186.249 945.329 187.325 945.093 188.602 945.093V946.903L188.156 946.877C186.704 946.877 185.567 947.323 184.745 948.215C183.923 949.108 183.512 950.358 183.512 951.968V959H181.649V945.198H183.433V947.9ZM197.489 959.131C196.16 959.131 194.961 958.834 193.894 958.239C192.827 957.627 191.987 956.787 191.375 955.72C190.763 954.653 190.457 953.446 190.457 952.099C190.457 950.752 190.763 949.545 191.375 948.478C191.987 947.411 192.827 946.58 193.894 945.985C194.961 945.39 196.16 945.093 197.489 945.093C198.819 945.093 200.017 945.39 201.084 945.985C202.151 946.58 202.982 947.411 203.577 948.478C204.189 949.545 204.495 950.752 204.495 952.099C204.495 953.446 204.189 954.653 203.577 955.72C202.982 956.787 202.151 957.627 201.084 958.239C200.017 958.834 198.819 959.131 197.489 959.131ZM197.489 957.478C198.469 957.478 199.343 957.259 200.113 956.822C200.9 956.367 201.513 955.729 201.95 954.907C202.387 954.084 202.606 953.148 202.606 952.099C202.606 951.049 202.387 950.113 201.95 949.291C201.513 948.469 200.9 947.839 200.113 947.402C199.343 946.947 198.469 946.72 197.489 946.72C196.509 946.72 195.626 946.947 194.839 947.402C194.069 947.839 193.457 948.469 193.002 949.291C192.565 950.113 192.346 951.049 192.346 952.099C192.346 953.148 192.565 954.084 193.002 954.907C193.457 955.729 194.069 956.367 194.839 956.822C195.626 957.259 196.509 957.478 197.489 957.478ZM220.736 945.198V959H218.952V956.481C218.462 957.321 217.789 957.977 216.932 958.449C216.074 958.904 215.095 959.131 213.993 959.131C212.191 959.131 210.765 958.633 209.716 957.636C208.684 956.621 208.168 955.143 208.168 953.201V945.198H210.031V953.017C210.031 954.469 210.389 955.571 211.106 956.324C211.824 957.076 212.847 957.452 214.176 957.452C215.628 957.452 216.774 957.015 217.614 956.14C218.454 955.248 218.873 954.014 218.873 952.44V945.198H220.736ZM232.987 945.093C234.718 945.093 236.092 945.6 237.106 946.615C238.138 947.612 238.654 949.073 238.654 950.997V959H236.791V951.18C236.791 949.746 236.433 948.653 235.716 947.9C234.998 947.148 233.975 946.772 232.646 946.772C231.159 946.772 229.978 947.218 229.103 948.11C228.246 948.985 227.817 950.201 227.817 951.758V959H225.954V945.198H227.739V947.743C228.246 946.903 228.946 946.256 229.838 945.801C230.748 945.329 231.797 945.093 232.987 945.093ZM256.359 939.53V959H254.575V956.271C254.015 957.198 253.271 957.907 252.344 958.396C251.435 958.886 250.402 959.131 249.248 959.131C247.953 959.131 246.781 958.834 245.732 958.239C244.682 957.644 243.86 956.813 243.265 955.746C242.67 954.679 242.373 953.463 242.373 952.099C242.373 950.734 242.67 949.519 243.265 948.452C243.86 947.384 244.682 946.562 245.732 945.985C246.781 945.39 247.953 945.093 249.248 945.093C250.367 945.093 251.373 945.329 252.265 945.801C253.175 946.256 253.919 946.93 254.496 947.822V939.53H256.359ZM249.405 957.478C250.367 957.478 251.233 957.259 252.003 956.822C252.79 956.367 253.403 955.729 253.84 954.907C254.295 954.084 254.522 953.148 254.522 952.099C254.522 951.049 254.295 950.113 253.84 949.291C253.403 948.469 252.79 947.839 252.003 947.402C251.233 946.947 250.367 946.72 249.405 946.72C248.426 946.72 247.542 946.947 246.755 947.402C245.985 947.839 245.373 948.469 244.918 949.291C244.481 950.113 244.262 951.049 244.262 952.099C244.262 953.148 244.481 954.084 244.918 954.907C245.373 955.729 245.985 956.367 246.755 956.822C247.542 957.259 248.426 957.478 249.405 957.478Z" fill="#121212"/>
<path d="M125.376 1056.82C124.851 1057.29 124.09 1057.53 123.329 1057.53C121.781 1057.53 120.941 1056.64 120.941 1055.01V1046.77H125.14V1045.2H120.941V1042.18H119.078V1045.2H116.612V1046.77H119.078V1055.12C119.078 1057.66 120.521 1059.13 123.119 1059.13C124.195 1059.13 125.297 1058.82 126.032 1058.16L125.376 1056.82ZM140.981 1052.1C140.981 1047.95 138.173 1045.09 134.289 1045.09C130.406 1045.09 127.546 1048.01 127.546 1052.1C127.546 1056.19 130.485 1059.13 134.788 1059.13C136.966 1059.13 138.881 1058.34 140.115 1056.87L139.065 1055.67C138.016 1056.87 136.52 1057.48 134.841 1057.48C131.823 1057.48 129.619 1055.56 129.409 1052.68H140.954C140.954 1052.47 140.981 1052.26 140.981 1052.1ZM134.289 1046.69C136.992 1046.69 138.96 1048.58 139.196 1051.29H129.409C129.645 1048.58 131.613 1046.69 134.289 1046.69ZM155.304 1059L149.794 1051.92L154.989 1045.2H152.943L148.797 1050.6L144.651 1045.2H142.552L147.747 1051.92L142.289 1059H144.388L148.797 1053.23L153.179 1059H155.304ZM165.018 1056.82C164.493 1057.29 163.732 1057.53 162.971 1057.53C161.423 1057.53 160.583 1056.64 160.583 1055.01V1046.77H164.782V1045.2H160.583V1042.18H158.72V1045.2H156.254V1046.77H158.72V1055.12C158.72 1057.66 160.163 1059.13 162.761 1059.13C163.837 1059.13 164.939 1058.82 165.674 1058.16L165.018 1056.82ZM167.786 1052.7H174.661V1051.08H167.786V1052.7ZM189.817 1039.53V1047.82C188.662 1046.04 186.773 1045.09 184.569 1045.09C180.633 1045.09 177.694 1047.93 177.694 1052.1C177.694 1056.27 180.633 1059.13 184.569 1059.13C186.852 1059.13 188.767 1058.13 189.896 1056.27V1059H191.68V1039.53H189.817ZM184.726 1057.48C181.787 1057.48 179.583 1055.33 179.583 1052.1C179.583 1048.87 181.787 1046.72 184.726 1046.72C187.639 1046.72 189.843 1048.87 189.843 1052.1C189.843 1055.33 187.639 1057.48 184.726 1057.48ZM201.697 1045.09C199.519 1045.09 197.472 1045.78 196.081 1046.96L196.921 1048.35C198.049 1047.35 199.729 1046.72 201.513 1046.72C204.084 1046.72 205.423 1048.01 205.423 1050.37V1051.21H201.041C197.078 1051.21 195.714 1052.99 195.714 1055.12C195.714 1057.5 197.629 1059.13 200.752 1059.13C203.035 1059.13 204.662 1058.27 205.501 1056.85V1059H207.286V1050.45C207.286 1046.88 205.265 1045.09 201.697 1045.09ZM201.041 1057.66C198.836 1057.66 197.551 1056.66 197.551 1055.06C197.551 1053.65 198.417 1052.6 201.093 1052.6H205.423V1054.85C204.688 1056.66 203.14 1057.66 201.041 1057.66ZM214.13 1047.9V1045.2H212.346V1059H214.209V1051.97C214.209 1048.71 215.967 1046.88 218.853 1046.88C218.985 1046.88 219.142 1046.9 219.299 1046.9V1045.09C216.754 1045.09 214.996 1046.06 214.13 1047.9ZM233.352 1059H235.635L229.18 1050.84L235.084 1045.2H232.775L224.536 1052.73V1039.53H222.673V1059H224.536V1055.06L227.79 1052.07L233.352 1059Z" fill="#FDFBF9"/>
<path d="M128.427 1156.82C127.903 1157.29 127.142 1157.53 126.381 1157.53C124.833 1157.53 123.993 1156.64 123.993 1155.01V1146.77H128.191V1145.2H123.993V1142.18H122.13V1145.2H119.663V1146.77H122.13V1155.12C122.13 1157.66 123.573 1159.13 126.171 1159.13C127.247 1159.13 128.349 1158.82 129.083 1158.16L128.427 1156.82ZM144.032 1152.1C144.032 1147.95 141.225 1145.09 137.341 1145.09C133.458 1145.09 130.597 1148.01 130.597 1152.1C130.597 1156.19 133.536 1159.13 137.84 1159.13C140.018 1159.13 141.933 1158.34 143.166 1156.87L142.117 1155.67C141.067 1156.87 139.571 1157.48 137.892 1157.48C134.874 1157.48 132.67 1155.56 132.46 1152.68H144.006C144.006 1152.47 144.032 1152.26 144.032 1152.1ZM137.341 1146.69C140.044 1146.69 142.012 1148.58 142.248 1151.29H132.46C132.697 1148.58 134.665 1146.69 137.341 1146.69ZM158.356 1159L152.845 1151.92L158.041 1145.2H155.994L151.848 1150.6L147.702 1145.2H145.603L150.799 1151.92L145.341 1159H147.44L151.848 1153.23L156.23 1159H158.356ZM168.069 1156.82C167.545 1157.29 166.784 1157.53 166.023 1157.53C164.474 1157.53 163.635 1156.64 163.635 1155.01V1146.77H167.833V1145.2H163.635V1142.18H161.772V1145.2H159.305V1146.77H161.772V1155.12C161.772 1157.66 163.215 1159.13 165.813 1159.13C166.889 1159.13 167.991 1158.82 168.725 1158.16L168.069 1156.82ZM170.837 1152.7H177.712V1151.08H170.837V1152.7ZM181.88 1159H183.743V1139.53H181.88V1159ZM189.871 1142.18C190.659 1142.18 191.236 1141.58 191.236 1140.82C191.236 1140.11 190.632 1139.53 189.871 1139.53C189.111 1139.53 188.507 1140.13 188.507 1140.84C188.507 1141.58 189.111 1142.18 189.871 1142.18ZM188.927 1159H190.79V1145.2H188.927V1159ZM206.968 1145.2V1147.85C205.814 1146.04 203.819 1145.09 201.51 1145.09C197.574 1145.09 194.583 1147.8 194.583 1151.76C194.583 1155.72 197.574 1158.48 201.51 1158.48C203.767 1158.48 205.735 1157.56 206.89 1155.8V1157.56C206.89 1160.97 205.289 1162.57 201.799 1162.57C199.674 1162.57 197.679 1161.86 196.367 1160.68L195.423 1162.1C196.866 1163.46 199.332 1164.22 201.851 1164.22C206.417 1164.22 208.753 1162.07 208.753 1157.32V1145.2H206.968ZM201.694 1156.82C198.65 1156.82 196.472 1154.75 196.472 1151.76C196.472 1148.77 198.65 1146.72 201.694 1146.72C204.738 1146.72 206.942 1148.77 206.942 1151.76C206.942 1154.75 204.738 1156.82 201.694 1156.82ZM220.995 1145.09C218.659 1145.09 216.849 1146.01 215.825 1147.61V1139.53H213.962V1159H215.825V1151.76C215.825 1148.61 217.689 1146.77 220.654 1146.77C223.278 1146.77 224.8 1148.27 224.8 1151.18V1159H226.663V1151C226.663 1147.03 224.353 1145.09 220.995 1145.09ZM238.333 1156.82C237.808 1157.29 237.047 1157.53 236.286 1157.53C234.738 1157.53 233.898 1156.64 233.898 1155.01V1146.77H238.097V1145.2H233.898V1142.18H232.035V1145.2H229.569V1146.77H232.035V1155.12C232.035 1157.66 233.479 1159.13 236.076 1159.13C237.152 1159.13 238.254 1158.82 238.989 1158.16L238.333 1156.82Z" fill="#121212"/>
<path d="M139.586 856.822C139.061 857.294 138.3 857.531 137.539 857.531C135.991 857.531 135.152 856.638 135.152 855.012V846.772H139.35V845.198H135.152V842.18H133.289V845.198H130.822V846.772H133.289V855.116C133.289 857.662 134.732 859.131 137.33 859.131C138.405 859.131 139.507 858.816 140.242 858.16L139.586 856.822ZM155.191 852.099C155.191 847.953 152.383 845.093 148.5 845.093C144.616 845.093 141.756 848.005 141.756 852.099C141.756 856.192 144.695 859.131 148.998 859.131C151.176 859.131 153.092 858.344 154.325 856.875L153.275 855.668C152.226 856.875 150.73 857.478 149.051 857.478C146.033 857.478 143.829 855.563 143.619 852.676H155.165C155.165 852.466 155.191 852.256 155.191 852.099ZM148.5 846.693C151.203 846.693 153.171 848.583 153.407 851.285H143.619C143.855 848.583 145.823 846.693 148.5 846.693ZM160.767 847.9V845.198H158.983V859H160.846V851.968C160.846 848.714 162.604 846.877 165.491 846.877C165.622 846.877 165.779 846.903 165.937 846.903V845.093C163.391 845.093 161.633 846.064 160.767 847.9ZM176.512 856.822C175.987 857.294 175.226 857.531 174.465 857.531C172.917 857.531 172.077 856.638 172.077 855.012V846.772H176.276V845.198H172.077V842.18H170.214V845.198H167.748V846.772H170.214V855.116C170.214 857.662 171.657 859.131 174.255 859.131C175.331 859.131 176.433 858.816 177.168 858.16L176.512 856.822ZM181.504 842.18C182.291 842.18 182.868 841.577 182.868 840.816C182.868 840.107 182.265 839.53 181.504 839.53C180.743 839.53 180.139 840.133 180.139 840.842C180.139 841.577 180.743 842.18 181.504 842.18ZM180.559 859H182.422V845.198H180.559V859ZM192.434 845.093C190.256 845.093 188.21 845.775 186.819 846.956L187.659 848.347C188.787 847.349 190.466 846.72 192.251 846.72C194.822 846.72 196.16 848.005 196.16 850.367V851.207H191.778C187.816 851.207 186.452 852.991 186.452 855.116C186.452 857.504 188.367 859.131 191.49 859.131C193.773 859.131 195.399 858.265 196.239 856.848V859H198.023V850.446C198.023 846.877 196.003 845.093 192.434 845.093ZM191.778 857.662C189.574 857.662 188.288 856.665 188.288 855.064C188.288 853.647 189.154 852.597 191.831 852.597H196.16V854.854C195.426 856.665 193.878 857.662 191.778 857.662ZM204.868 847.9V845.198H203.084V859H204.947V851.968C204.947 848.714 206.705 846.877 209.591 846.877C209.722 846.877 209.88 846.903 210.037 846.903V845.093C207.492 845.093 205.734 846.064 204.868 847.9ZM223.761 845.198L218.566 856.927L213.37 845.198H211.428L217.595 858.974L216.991 860.312C216.204 862.044 215.364 862.621 214.131 862.621C213.134 862.621 212.294 862.254 211.612 861.572L210.746 862.962C211.586 863.802 212.819 864.222 214.105 864.222C216.073 864.222 217.542 863.356 218.697 860.653L225.598 845.198H223.761Z" fill="#FAFAFA"/>
<path d="M96.6678 745.198V752.44C96.6678 755.589 94.8572 757.452 91.9708 757.452C89.3468 757.452 87.8249 755.956 87.8249 753.017V745.198H85.9619V753.201C85.9619 757.163 88.271 759.131 91.7872 759.131C93.9913 759.131 95.7756 758.16 96.7465 756.481V759H98.5308V745.198H96.6678ZM110.361 756.822C109.836 757.294 109.075 757.531 108.314 757.531C106.766 757.531 105.927 756.638 105.927 755.012V746.772H110.125V745.198H105.927V742.18H104.064V745.198H101.597V746.772H104.064V755.116C104.064 757.662 105.507 759.131 108.105 759.131C109.18 759.131 110.282 758.816 111.017 758.16L110.361 756.822ZM115.353 742.18C116.141 742.18 116.718 741.577 116.718 740.816C116.718 740.107 116.114 739.53 115.353 739.53C114.592 739.53 113.989 740.133 113.989 740.842C113.989 741.577 114.592 742.18 115.353 742.18ZM114.409 759H116.272V745.198H114.409V759ZM121.456 759H123.319V739.53H121.456V759ZM132.202 759.131C135.797 759.131 137.896 757.583 137.896 755.195C137.896 749.895 128.949 752.702 128.949 748.976C128.949 747.664 130.051 746.693 132.543 746.693C133.96 746.693 135.404 747.035 136.611 747.874L137.424 746.379C136.269 745.591 134.328 745.093 132.543 745.093C129.027 745.093 127.085 746.772 127.085 749.029C127.085 754.487 136.033 751.653 136.033 755.248C136.033 756.612 134.957 757.504 132.333 757.504C130.392 757.504 128.529 756.822 127.427 755.956L126.587 757.426C127.715 758.396 129.919 759.131 132.202 759.131ZM151.908 759.131C155.503 759.131 157.602 757.583 157.602 755.195C157.602 749.895 148.654 752.702 148.654 748.976C148.654 747.664 149.756 746.693 152.249 746.693C153.666 746.693 155.109 747.035 156.316 747.874L157.13 746.379C155.975 745.591 154.033 745.093 152.249 745.093C148.733 745.093 146.791 746.772 146.791 749.029C146.791 754.487 155.739 751.653 155.739 755.248C155.739 756.612 154.663 757.504 152.039 757.504C150.097 757.504 148.234 756.822 147.132 755.956L146.293 757.426C147.421 758.396 149.625 759.131 151.908 759.131ZM171.621 745.198V752.44C171.621 755.589 169.81 757.452 166.924 757.452C164.3 757.452 162.778 755.956 162.778 753.017V745.198H160.915V753.201C160.915 757.163 163.224 759.131 166.74 759.131C168.944 759.131 170.729 758.16 171.7 756.481V759H173.484V745.198H171.621ZM184.422 759.131C186.758 759.131 188.726 758.187 189.828 756.402L188.437 755.458C187.492 756.848 186.023 757.478 184.422 757.478C181.405 757.478 179.2 755.353 179.2 752.099C179.2 748.871 181.405 746.72 184.422 746.72C186.023 746.72 187.492 747.376 188.437 748.766L189.828 747.822C188.726 746.011 186.758 745.093 184.422 745.093C180.302 745.093 177.311 747.979 177.311 752.099C177.311 756.219 180.302 759.131 184.422 759.131ZM205.301 752.099C205.301 747.953 202.493 745.093 198.61 745.093C194.726 745.093 191.866 748.005 191.866 752.099C191.866 756.192 194.805 759.131 199.108 759.131C201.286 759.131 203.202 758.344 204.435 756.875L203.385 755.668C202.336 756.875 200.84 757.478 199.161 757.478C196.143 757.478 193.939 755.563 193.729 752.676H205.275C205.275 752.466 205.301 752.256 205.301 752.099ZM198.61 746.693C201.313 746.693 203.281 748.583 203.517 751.285H193.729C193.965 748.583 195.933 746.693 198.61 746.693ZM212.793 759.131C216.388 759.131 218.487 757.583 218.487 755.195C218.487 749.895 209.539 752.702 209.539 748.976C209.539 747.664 210.641 746.693 213.134 746.693C214.551 746.693 215.994 747.035 217.201 747.874L218.015 746.379C216.86 745.591 214.918 745.093 213.134 745.093C209.618 745.093 207.676 746.772 207.676 749.029C207.676 754.487 216.624 751.653 216.624 755.248C216.624 756.612 215.548 757.504 212.924 757.504C210.982 757.504 209.119 756.822 208.017 755.956L207.178 757.426C208.306 758.396 210.51 759.131 212.793 759.131ZM225.631 759.131C229.226 759.131 231.325 757.583 231.325 755.195C231.325 749.895 222.377 752.702 222.377 748.976C222.377 747.664 223.479 746.693 225.972 746.693C227.389 746.693 228.832 747.035 230.039 747.874L230.853 746.379C229.698 745.591 227.756 745.093 225.972 745.093C222.456 745.093 220.514 746.772 220.514 749.029C220.514 754.487 229.462 751.653 229.462 755.248C229.462 756.612 228.386 757.504 225.762 757.504C223.82 757.504 221.957 756.822 220.855 755.956L220.016 757.426C221.144 758.396 223.348 759.131 225.631 759.131ZM240.411 759.131C244.452 759.131 247.417 756.192 247.417 752.099C247.417 748.005 244.452 745.093 240.411 745.093C236.37 745.093 233.379 748.005 233.379 752.099C233.379 756.192 236.37 759.131 240.411 759.131ZM240.411 757.478C237.472 757.478 235.268 755.326 235.268 752.099C235.268 748.871 237.472 746.72 240.411 746.72C243.35 746.72 245.528 748.871 245.528 752.099C245.528 755.326 243.35 757.478 240.411 757.478ZM250.453 752.702H257.328V751.076H250.453V752.702ZM262.396 757.321L268.641 751.18C271.107 748.766 271.658 747.192 271.658 745.434C271.658 742.364 269.297 740.475 265.571 740.475C262.763 740.475 260.48 741.419 259.063 743.099L260.402 744.253C261.609 742.862 263.262 742.206 265.413 742.206C268.221 742.206 269.717 743.518 269.717 745.644C269.717 746.903 269.323 748.137 267.25 750.183L259.614 757.662V759H272.498V757.321H262.396Z" fill="#FDFBF9"/>
<path d="M101.331 645.198V652.44C101.331 655.589 99.5207 657.452 96.6343 657.452C94.0103 657.452 92.4884 655.956 92.4884 653.017V645.198H90.6253V653.201C90.6253 657.163 92.9344 659.131 96.4506 659.131C98.6548 659.131 100.439 658.16 101.41 656.481V659H103.194V645.198H101.331ZM115.025 656.822C114.5 657.294 113.739 657.531 112.978 657.531C111.43 657.531 110.59 656.638 110.59 655.012V646.772H114.788V645.198H110.59V642.18H108.727V645.198H106.26V646.772H108.727V655.116C108.727 657.662 110.17 659.131 112.768 659.131C113.844 659.131 114.946 658.816 115.681 658.16L115.025 656.822ZM120.017 642.18C120.804 642.18 121.381 641.577 121.381 640.816C121.381 640.107 120.778 639.53 120.017 639.53C119.256 639.53 118.652 640.133 118.652 640.842C118.652 641.577 119.256 642.18 120.017 642.18ZM119.072 659H120.935V645.198H119.072V659ZM126.119 659H127.982V639.53H126.119V659ZM136.866 659.131C140.461 659.131 142.56 657.583 142.56 655.195C142.56 649.895 133.612 652.702 133.612 648.976C133.612 647.664 134.714 646.693 137.207 646.693C138.624 646.693 140.067 647.035 141.274 647.874L142.087 646.379C140.933 645.591 138.991 645.093 137.207 645.093C133.691 645.093 131.749 646.772 131.749 649.029C131.749 654.487 140.697 651.653 140.697 655.248C140.697 656.612 139.621 657.504 136.997 657.504C135.055 657.504 133.192 656.822 132.09 655.956L131.25 657.426C132.379 658.396 134.583 659.131 136.866 659.131ZM156.571 659.131C160.166 659.131 162.265 657.583 162.265 655.195C162.265 649.895 153.318 652.702 153.318 648.976C153.318 647.664 154.42 646.693 156.912 646.693C158.329 646.693 159.773 647.035 160.98 647.874L161.793 646.379C160.639 645.591 158.697 645.093 156.912 645.093C153.396 645.093 151.455 646.772 151.455 649.029C151.455 654.487 160.402 651.653 160.402 655.248C160.402 656.612 159.327 657.504 156.703 657.504C154.761 657.504 152.898 656.822 151.796 655.956L150.956 657.426C152.084 658.396 154.288 659.131 156.571 659.131ZM176.284 645.198V652.44C176.284 655.589 174.474 657.452 171.587 657.452C168.963 657.452 167.441 655.956 167.441 653.017V645.198H165.578V653.201C165.578 657.163 167.888 659.131 171.404 659.131C173.608 659.131 175.392 658.16 176.363 656.481V659H178.147V645.198H176.284ZM189.086 659.131C191.421 659.131 193.389 658.187 194.491 656.402L193.1 655.458C192.156 656.848 190.686 657.478 189.086 657.478C186.068 657.478 183.864 655.353 183.864 652.099C183.864 648.871 186.068 646.72 189.086 646.72C190.686 646.72 192.156 647.376 193.1 648.766L194.491 647.822C193.389 646.011 191.421 645.093 189.086 645.093C184.966 645.093 181.975 647.979 181.975 652.099C181.975 656.219 184.966 659.131 189.086 659.131ZM203.641 659.131C205.976 659.131 207.944 658.187 209.046 656.402L207.655 655.458C206.711 656.848 205.241 657.478 203.641 657.478C200.623 657.478 198.419 655.353 198.419 652.099C198.419 648.871 200.623 646.72 203.641 646.72C205.241 646.72 206.711 647.376 207.655 648.766L209.046 647.822C207.944 646.011 205.976 645.093 203.641 645.093C199.521 645.093 196.53 647.979 196.53 652.099C196.53 656.219 199.521 659.131 203.641 659.131ZM224.519 652.099C224.519 647.953 221.712 645.093 217.828 645.093C213.945 645.093 211.085 648.005 211.085 652.099C211.085 656.192 214.023 659.131 218.327 659.131C220.505 659.131 222.42 658.344 223.654 656.875L222.604 655.668C221.554 656.875 220.059 657.478 218.379 657.478C215.362 657.478 213.158 655.563 212.948 652.676H224.493C224.493 652.466 224.519 652.256 224.519 652.099ZM217.828 646.693C220.531 646.693 222.499 648.583 222.735 651.285H212.948C213.184 648.583 215.152 646.693 217.828 646.693ZM232.011 659.131C235.606 659.131 237.705 657.583 237.705 655.195C237.705 649.895 228.758 652.702 228.758 648.976C228.758 647.664 229.86 646.693 232.352 646.693C233.769 646.693 235.213 647.035 236.42 647.874L237.233 646.379C236.079 645.591 234.137 645.093 232.352 645.093C228.836 645.093 226.895 646.772 226.895 649.029C226.895 654.487 235.842 651.653 235.842 655.248C235.842 656.612 234.767 657.504 232.143 657.504C230.201 657.504 228.338 656.822 227.236 655.956L226.396 657.426C227.524 658.396 229.728 659.131 232.011 659.131ZM244.849 659.131C248.444 659.131 250.544 657.583 250.544 655.195C250.544 649.895 241.596 652.702 241.596 648.976C241.596 647.664 242.698 646.693 245.191 646.693C246.608 646.693 248.051 647.035 249.258 647.874L250.071 646.379C248.917 645.591 246.975 645.093 245.191 645.093C241.674 645.093 239.733 646.772 239.733 649.029C239.733 654.487 248.681 651.653 248.681 655.248C248.681 656.612 247.605 657.504 244.981 657.504C243.039 657.504 241.176 656.822 240.074 655.956L239.234 657.426C240.362 658.396 242.567 659.131 244.849 659.131ZM259.629 659.131C263.67 659.131 266.635 656.192 266.635 652.099C266.635 648.005 263.67 645.093 259.629 645.093C255.588 645.093 252.597 648.005 252.597 652.099C252.597 656.192 255.588 659.131 259.629 659.131ZM259.629 657.478C256.69 657.478 254.486 655.326 254.486 652.099C254.486 648.871 256.69 646.72 259.629 646.72C262.568 646.72 264.746 648.871 264.746 652.099C264.746 655.326 262.568 657.478 259.629 657.478Z" fill="#FDFBF9"/>
<path d="M123.215 545.198V552.44C123.215 555.589 121.405 557.452 118.518 557.452C115.894 557.452 114.372 555.956 114.372 553.017V545.198H112.509V553.201C112.509 557.163 114.818 559.131 118.335 559.131C120.539 559.131 122.323 558.16 123.294 556.481V559H125.078V545.198H123.215ZM136.909 556.822C136.384 557.294 135.623 557.531 134.862 557.531C133.314 557.531 132.474 556.638 132.474 555.012V546.772H136.673V545.198H132.474V542.18H130.611V545.198H128.145V546.772H130.611V555.116C130.611 557.662 132.054 559.131 134.652 559.131C135.728 559.131 136.83 558.816 137.565 558.16L136.909 556.822ZM141.901 542.18C142.688 542.18 143.265 541.577 143.265 540.816C143.265 540.107 142.662 539.53 141.901 539.53C141.14 539.53 140.536 540.133 140.536 540.842C140.536 541.577 141.14 542.18 141.901 542.18ZM140.956 559H142.819V545.198H140.956V559ZM148.003 559H149.866V539.53H148.003V559ZM158.75 559.131C162.345 559.131 164.444 557.583 164.444 555.195C164.444 549.895 155.496 552.702 155.496 548.976C155.496 547.664 156.598 546.693 159.091 546.693C160.508 546.693 161.951 547.035 163.158 547.874L163.972 546.379C162.817 545.591 160.875 545.093 159.091 545.093C155.575 545.093 153.633 546.772 153.633 549.029C153.633 554.487 162.581 551.653 162.581 555.248C162.581 556.612 161.505 557.504 158.881 557.504C156.939 557.504 155.076 556.822 153.974 555.956L153.134 557.426C154.263 558.396 156.467 559.131 158.75 559.131ZM175.7 542.18C176.487 542.18 177.065 541.577 177.065 540.816C177.065 540.107 176.461 539.53 175.7 539.53C174.939 539.53 174.336 540.133 174.336 540.842C174.336 541.577 174.939 542.18 175.7 542.18ZM174.756 559H176.619V545.198H174.756V559ZM188.835 545.093C186.447 545.093 184.584 546.064 183.587 547.743V545.198H181.802V559H183.665V551.758C183.665 548.609 185.529 546.772 188.494 546.772C191.118 546.772 192.64 548.268 192.64 551.18V559H194.503V550.997C194.503 547.035 192.193 545.093 188.835 545.093ZM204.126 540.973C204.914 540.973 205.648 541.209 206.173 541.655L206.803 540.265C206.121 539.687 205.071 539.399 204.048 539.399C201.345 539.399 199.875 541.026 199.875 543.492V545.198H197.409V546.772H199.875V559H201.738V546.772H205.937V545.198H201.686V543.571C201.686 541.865 202.526 540.973 204.126 540.973ZM213.863 559.131C217.904 559.131 220.87 556.192 220.87 552.099C220.87 548.005 217.904 545.093 213.863 545.093C209.822 545.093 206.831 548.005 206.831 552.099C206.831 556.192 209.822 559.131 213.863 559.131ZM213.863 557.478C210.925 557.478 208.72 555.326 208.72 552.099C208.72 548.871 210.925 546.72 213.863 546.72C216.802 546.72 218.98 548.871 218.98 552.099C218.98 555.326 216.802 557.478 213.863 557.478ZM223.906 552.702H230.781V551.076H223.906V552.702ZM235.848 557.321L242.093 551.18C244.56 548.766 245.111 547.192 245.111 545.434C245.111 542.364 242.749 540.475 239.023 540.475C236.216 540.475 233.933 541.419 232.516 543.099L233.854 544.253C235.061 542.862 236.714 542.206 238.866 542.206C241.674 542.206 243.169 543.518 243.169 545.644C243.169 546.903 242.776 548.137 240.703 550.183L233.067 557.662V559H245.951V557.321H235.848Z" fill="#FDFBF9"/>
<path d="M135.656 445.198V452.44C135.656 455.589 133.846 457.452 130.959 457.452C128.335 457.452 126.813 455.956 126.813 453.017V445.198H124.95V453.201C124.95 457.163 127.259 459.131 130.776 459.131C132.98 459.131 134.764 458.16 135.735 456.481V459H137.519V445.198H135.656ZM149.35 456.822C148.825 457.294 148.064 457.531 147.303 457.531C145.755 457.531 144.915 456.638 144.915 455.012V446.772H149.113V445.198H144.915V442.18H143.052V445.198H140.585V446.772H143.052V455.116C143.052 457.662 144.495 459.131 147.093 459.131C148.169 459.131 149.271 458.816 150.006 458.16L149.35 456.822ZM154.342 442.18C155.129 442.18 155.706 441.577 155.706 440.816C155.706 440.107 155.103 439.53 154.342 439.53C153.581 439.53 152.977 440.133 152.977 440.842C152.977 441.577 153.581 442.18 154.342 442.18ZM153.397 459H155.26V445.198H153.397V459ZM160.444 459H162.307V439.53H160.444V459ZM171.191 459.131C174.786 459.131 176.885 457.583 176.885 455.195C176.885 449.895 167.937 452.702 167.937 448.976C167.937 447.664 169.039 446.693 171.532 446.693C172.949 446.693 174.392 447.035 175.599 447.874L176.412 446.379C175.258 445.591 173.316 445.093 171.532 445.093C168.016 445.093 166.074 446.772 166.074 449.029C166.074 454.487 175.022 451.653 175.022 455.248C175.022 456.612 173.946 457.504 171.322 457.504C169.38 457.504 167.517 456.822 166.415 455.956L165.575 457.426C166.704 458.396 168.908 459.131 171.191 459.131ZM188.141 442.18C188.928 442.18 189.506 441.577 189.506 440.816C189.506 440.107 188.902 439.53 188.141 439.53C187.38 439.53 186.777 440.133 186.777 440.842C186.777 441.577 187.38 442.18 188.141 442.18ZM187.197 459H189.06V445.198H187.197V459ZM201.276 445.093C198.888 445.093 197.025 446.064 196.028 447.743V445.198H194.243V459H196.106V451.758C196.106 448.609 197.969 446.772 200.935 446.772C203.559 446.772 205.081 448.268 205.081 451.18V459H206.944V450.997C206.944 447.035 204.634 445.093 201.276 445.093ZM216.567 440.973C217.354 440.973 218.089 441.209 218.614 441.655L219.244 440.265C218.562 439.687 217.512 439.399 216.489 439.399C213.786 439.399 212.316 441.026 212.316 443.492V445.198H209.85V446.772H212.316V459H214.179V446.772H218.378V445.198H214.127V443.571C214.127 441.865 214.967 440.973 216.567 440.973ZM226.304 459.131C230.345 459.131 233.31 456.192 233.31 452.099C233.31 448.005 230.345 445.093 226.304 445.093C222.263 445.093 219.272 448.005 219.272 452.099C219.272 456.192 222.263 459.131 226.304 459.131ZM226.304 457.478C223.365 457.478 221.161 455.326 221.161 452.099C221.161 448.871 223.365 446.72 226.304 446.72C229.243 446.72 231.421 448.871 231.421 452.099C231.421 455.326 229.243 457.478 226.304 457.478Z" fill="#FDFBF9"/>
<path d="M121.267 345.198V352.44C121.267 355.589 119.457 357.452 116.571 357.452C113.947 357.452 112.425 355.956 112.425 353.017V345.198H110.562V353.201C110.562 357.163 112.871 359.131 116.387 359.131C118.591 359.131 120.375 358.16 121.346 356.481V359H123.131V345.198H121.267ZM134.961 356.822C134.436 357.294 133.675 357.531 132.914 357.531C131.366 357.531 130.526 356.638 130.526 355.012V346.772H134.725V345.198H130.526V342.18H128.663V345.198H126.197V346.772H128.663V355.116C128.663 357.662 130.106 359.131 132.704 359.131C133.78 359.131 134.882 358.816 135.617 358.16L134.961 356.822ZM139.953 342.18C140.74 342.18 141.318 341.577 141.318 340.816C141.318 340.107 140.714 339.53 139.953 339.53C139.192 339.53 138.589 340.133 138.589 340.842C138.589 341.577 139.192 342.18 139.953 342.18ZM139.008 359H140.871V345.198H139.008V359ZM146.055 359H147.918V339.53H146.055V359ZM156.802 359.131C160.397 359.131 162.496 357.583 162.496 355.195C162.496 349.895 153.548 352.702 153.548 348.976C153.548 347.664 154.65 346.693 157.143 346.693C158.56 346.693 160.003 347.035 161.21 347.874L162.024 346.379C160.869 345.591 158.927 345.093 157.143 345.093C153.627 345.093 151.685 346.772 151.685 349.029C151.685 354.487 160.633 351.653 160.633 355.248C160.633 356.612 159.557 357.504 156.933 357.504C154.991 357.504 153.128 356.822 152.026 355.956L151.187 357.426C152.315 358.396 154.519 359.131 156.802 359.131ZM184.852 352.099C184.852 347.953 182.044 345.093 178.161 345.093C174.277 345.093 171.417 348.005 171.417 352.099C171.417 356.192 174.356 359.131 178.659 359.131C180.837 359.131 182.753 358.344 183.986 356.875L182.936 355.668C181.887 356.875 180.391 357.478 178.712 357.478C175.694 357.478 173.49 355.563 173.28 352.676H184.826C184.826 352.466 184.852 352.256 184.852 352.099ZM178.161 346.693C180.863 346.693 182.831 348.583 183.068 351.285H173.28C173.516 348.583 175.484 346.693 178.161 346.693ZM190.428 347.9V345.198H188.644V359H190.507V351.968C190.507 348.714 192.265 346.877 195.152 346.877C195.283 346.877 195.44 346.903 195.598 346.903V345.093C193.052 345.093 191.294 346.064 190.428 347.9ZM200.755 347.9V345.198H198.971V359H200.834V351.968C200.834 348.714 202.592 346.877 205.478 346.877C205.61 346.877 205.767 346.903 205.924 346.903V345.093C203.379 345.093 201.621 346.064 200.755 347.9ZM214.811 359.131C218.852 359.131 221.817 356.192 221.817 352.099C221.817 348.005 218.852 345.093 214.811 345.093C210.77 345.093 207.779 348.005 207.779 352.099C207.779 356.192 210.77 359.131 214.811 359.131ZM214.811 357.478C211.872 357.478 209.668 355.326 209.668 352.099C209.668 348.871 211.872 346.72 214.811 346.72C217.75 346.72 219.928 348.871 219.928 352.099C219.928 355.326 217.75 357.478 214.811 357.478ZM224.854 352.702H231.729V351.076H224.854V352.702ZM236.796 357.321L243.041 351.18C245.508 348.766 246.059 347.192 246.059 345.434C246.059 342.364 243.697 340.475 239.971 340.475C237.163 340.475 234.881 341.419 233.464 343.099L234.802 344.253C236.009 342.862 237.662 342.206 239.814 342.206C242.621 342.206 244.117 343.518 244.117 345.644C244.117 346.903 243.723 348.137 241.65 350.183L234.015 357.662V359H246.898V357.321H236.796Z" fill="#FDFBF9"/>
<path d="M134.208 245.198V252.44C134.208 255.589 132.398 257.452 129.511 257.452C126.887 257.452 125.366 255.956 125.366 253.017V245.198H123.502V253.201C123.502 257.163 125.812 259.131 129.328 259.131C131.532 259.131 133.316 258.16 134.287 256.481V259H136.071V245.198H134.208ZM147.902 256.822C147.377 257.294 146.616 257.531 145.855 257.531C144.307 257.531 143.467 256.638 143.467 255.012V246.772H147.666V245.198H143.467V242.18H141.604V245.198H139.138V246.772H141.604V255.116C141.604 257.662 143.047 259.131 145.645 259.131C146.721 259.131 147.823 258.816 148.558 258.16L147.902 256.822ZM152.894 242.18C153.681 242.18 154.258 241.577 154.258 240.816C154.258 240.107 153.655 239.53 152.894 239.53C152.133 239.53 151.529 240.133 151.529 240.842C151.529 241.577 152.133 242.18 152.894 242.18ZM151.949 259H153.812V245.198H151.949V259ZM158.996 259H160.859V239.53H158.996V259ZM169.743 259.131C173.338 259.131 175.437 257.583 175.437 255.195C175.437 249.895 166.489 252.702 166.489 248.976C166.489 247.664 167.591 246.693 170.084 246.693C171.501 246.693 172.944 247.035 174.151 247.874L174.965 246.379C173.81 245.591 171.868 245.093 170.084 245.093C166.568 245.093 164.626 246.772 164.626 249.029C164.626 254.487 173.574 251.653 173.574 255.248C173.574 256.612 172.498 257.504 169.874 257.504C167.932 257.504 166.069 256.822 164.967 255.956L164.128 257.426C165.256 258.396 167.46 259.131 169.743 259.131ZM197.793 252.099C197.793 247.953 194.985 245.093 191.102 245.093C187.218 245.093 184.358 248.005 184.358 252.099C184.358 256.192 187.297 259.131 191.6 259.131C193.778 259.131 195.694 258.344 196.927 256.875L195.877 255.668C194.828 256.875 193.332 257.478 191.653 257.478C188.635 257.478 186.431 255.563 186.221 252.676H197.767C197.767 252.466 197.793 252.256 197.793 252.099ZM191.102 246.693C193.804 246.693 195.772 248.583 196.009 251.285H186.221C186.457 248.583 188.425 246.693 191.102 246.693ZM203.369 247.9V245.198H201.585V259H203.448V251.968C203.448 248.714 205.206 246.877 208.092 246.877C208.224 246.877 208.381 246.903 208.539 246.903V245.093C205.993 245.093 204.235 246.064 203.369 247.9ZM213.696 247.9V245.198H211.912V259H213.775V251.968C213.775 248.714 215.533 246.877 218.419 246.877C218.551 246.877 218.708 246.903 218.865 246.903V245.093C216.32 245.093 214.562 246.064 213.696 247.9ZM227.752 259.131C231.793 259.131 234.758 256.192 234.758 252.099C234.758 248.005 231.793 245.093 227.752 245.093C223.711 245.093 220.72 248.005 220.72 252.099C220.72 256.192 223.711 259.131 227.752 259.131ZM227.752 257.478C224.813 257.478 222.609 255.326 222.609 252.099C222.609 248.871 224.813 246.72 227.752 246.72C230.691 246.72 232.869 248.871 232.869 252.099C232.869 255.326 230.691 257.478 227.752 257.478Z" fill="#FDFBF9"/>
<path d="M111.595 145.198V152.44C111.595 155.589 109.784 157.452 106.898 157.452C104.274 157.452 102.752 155.956 102.752 153.017V145.198H100.889V153.201C100.889 157.163 103.198 159.131 106.714 159.131C108.919 159.131 110.703 158.16 111.674 156.481V159H113.458V145.198H111.595ZM125.288 156.822C124.764 157.294 124.003 157.531 123.242 157.531C121.693 157.531 120.854 156.638 120.854 155.012V146.772H125.052V145.198H120.854V142.18H118.991V145.198H116.524V146.772H118.991V155.116C118.991 157.662 120.434 159.131 123.032 159.131C124.108 159.131 125.21 158.816 125.944 158.16L125.288 156.822ZM130.281 142.18C131.068 142.18 131.645 141.577 131.645 140.816C131.645 140.107 131.041 139.53 130.281 139.53C129.52 139.53 128.916 140.133 128.916 140.842C128.916 141.577 129.52 142.18 130.281 142.18ZM129.336 159H131.199V145.198H129.336V159ZM136.383 159H138.246V139.53H136.383V159ZM147.129 159.131C150.724 159.131 152.824 157.583 152.824 155.195C152.824 149.895 143.876 152.702 143.876 148.976C143.876 147.664 144.978 146.693 147.471 146.693C148.888 146.693 150.331 147.035 151.538 147.874L152.351 146.379C151.197 145.591 149.255 145.093 147.471 145.093C143.954 145.093 142.013 146.772 142.013 149.029C142.013 154.487 150.961 151.653 150.961 155.248C150.961 156.612 149.885 157.504 147.261 157.504C145.319 157.504 143.456 156.822 142.354 155.956L141.514 157.426C142.642 158.396 144.847 159.131 147.129 159.131ZM167.963 145.093C165.785 145.093 163.739 145.775 162.348 146.956L163.188 148.347C164.316 147.349 165.995 146.72 167.78 146.72C170.351 146.72 171.689 148.005 171.689 150.367V151.207H167.307C163.345 151.207 161.981 152.991 161.981 155.116C161.981 157.504 163.896 159.131 167.019 159.131C169.302 159.131 170.929 158.265 171.768 156.848V159H173.553V150.446C173.553 146.877 171.532 145.093 167.963 145.093ZM167.307 157.662C165.103 157.662 163.817 156.665 163.817 155.064C163.817 153.647 164.683 152.597 167.36 152.597H171.689V154.854C170.955 156.665 169.407 157.662 167.307 157.662ZM178.613 159H180.476V139.53H178.613V159ZM197.704 152.099C197.704 147.953 194.896 145.093 191.013 145.093C187.129 145.093 184.269 148.005 184.269 152.099C184.269 156.192 187.208 159.131 191.511 159.131C193.689 159.131 195.605 158.344 196.838 156.875L195.788 155.668C194.739 156.875 193.243 157.478 191.564 157.478C188.546 157.478 186.342 155.563 186.132 152.676H197.678C197.678 152.466 197.704 152.256 197.704 152.099ZM191.013 146.693C193.715 146.693 195.683 148.583 195.919 151.285H186.132C186.368 148.583 188.336 146.693 191.013 146.693ZM203.28 147.9V145.198H201.496V159H203.359V151.968C203.359 148.714 205.117 146.877 208.003 146.877C208.135 146.877 208.292 146.903 208.449 146.903V145.093C205.904 145.093 204.146 146.064 203.28 147.9ZM219.025 156.822C218.5 157.294 217.739 157.531 216.978 157.531C215.43 157.531 214.59 156.638 214.59 155.012V146.772H218.788V145.198H214.59V142.18H212.727V145.198H210.26V146.772H212.727V155.116C212.727 157.662 214.17 159.131 216.768 159.131C217.844 159.131 218.946 158.816 219.681 158.16L219.025 156.822ZM227.9 145.093C225.722 145.093 223.676 145.775 222.285 146.956L223.125 148.347C224.253 147.349 225.932 146.72 227.717 146.72C230.288 146.72 231.626 148.005 231.626 150.367V151.207H227.244C223.282 151.207 221.918 152.991 221.918 155.116C221.918 157.504 223.833 159.131 226.956 159.131C229.239 159.131 230.865 158.265 231.705 156.848V159H233.489V150.446C233.489 146.877 231.469 145.093 227.9 145.093ZM227.244 157.662C225.04 157.662 223.754 156.665 223.754 155.064C223.754 153.647 224.62 152.597 227.297 152.597H231.626V154.854C230.892 156.665 229.343 157.662 227.244 157.662ZM237.526 152.702H244.401V151.076H237.526V152.702ZM249.469 157.321L255.714 151.18C258.18 148.766 258.731 147.192 258.731 145.434C258.731 142.364 256.37 140.475 252.644 140.475C249.836 140.475 247.553 141.419 246.136 143.099L247.474 144.253C248.681 142.862 250.334 142.206 252.486 142.206C255.294 142.206 256.79 143.518 256.79 145.644C256.79 146.903 256.396 148.137 254.323 150.183L246.687 157.662V159H259.571V157.321H249.469Z" fill="#FDFBF9"/>
<path d="M123.408 45.1978V52.44C123.408 55.5888 121.597 57.4518 118.711 57.4518C116.087 57.4518 114.565 55.9562 114.565 53.0173V45.1978H112.702V53.201C112.702 57.1632 115.011 59.1312 118.527 59.1312C120.731 59.1312 122.516 58.1603 123.487 56.481V59H125.271V45.1978H123.408ZM137.101 56.8221C136.576 57.2944 135.815 57.5306 135.054 57.5306C133.506 57.5306 132.667 56.6384 132.667 55.0115V46.7722H136.865V45.1978H132.667V42.1802H130.804V45.1978H128.337V46.7722H130.804V55.1165C130.804 57.6618 132.247 59.1312 134.845 59.1312C135.92 59.1312 137.022 58.8163 137.757 58.1603L137.101 56.8221ZM142.093 42.1802C142.881 42.1802 143.458 41.5766 143.458 40.8157C143.458 40.1072 142.854 39.5299 142.093 39.5299C141.332 39.5299 140.729 40.1334 140.729 40.8419C140.729 41.5766 141.332 42.1802 142.093 42.1802ZM141.149 59H143.012V45.1978H141.149V59ZM148.196 59H150.059V39.5299H148.196V59ZM158.942 59.1312C162.537 59.1312 164.636 57.583 164.636 55.1952C164.636 49.8947 155.689 52.7024 155.689 48.9763C155.689 47.6643 156.791 46.6934 159.283 46.6934C160.7 46.6934 162.144 47.0346 163.351 47.8742L164.164 46.3786C163.009 45.5914 161.068 45.0928 159.283 45.0928C155.767 45.0928 153.825 46.7722 153.825 49.0288C153.825 54.4867 162.773 51.6528 162.773 55.2477C162.773 56.6122 161.697 57.5043 159.073 57.5043C157.132 57.5043 155.269 56.8221 154.167 55.9562L153.327 57.4256C154.455 58.3965 156.659 59.1312 158.942 59.1312ZM179.776 45.0928C177.598 45.0928 175.552 45.775 174.161 46.9558L175.001 48.3466C176.129 47.3494 177.808 46.7197 179.593 46.7197C182.164 46.7197 183.502 48.0054 183.502 50.367V51.2067H179.12C175.158 51.2067 173.794 52.991 173.794 55.1165C173.794 57.5043 175.709 59.1312 178.832 59.1312C181.114 59.1312 182.741 58.2653 183.581 56.8483V59H185.365V50.4458C185.365 46.8771 183.345 45.0928 179.776 45.0928ZM179.12 57.6618C176.916 57.6618 175.63 56.6646 175.63 55.064C175.63 53.647 176.496 52.5974 179.173 52.5974H183.502V54.8541C182.768 56.6646 181.219 57.6618 179.12 57.6618ZM190.426 59H192.289V39.5299H190.426V59ZM209.517 52.0989C209.517 47.953 206.709 45.0928 202.825 45.0928C198.942 45.0928 196.082 48.0054 196.082 52.0989C196.082 56.1923 199.021 59.1312 203.324 59.1312C205.502 59.1312 207.417 58.344 208.651 56.8746L207.601 55.6675C206.551 56.8746 205.056 57.4781 203.376 57.4781C200.359 57.4781 198.155 55.5626 197.945 52.6762H209.49C209.49 52.4662 209.517 52.2563 209.517 52.0989ZM202.825 46.6934C205.528 46.6934 207.496 48.5827 207.732 51.2854H197.945C198.181 48.5827 200.149 46.6934 202.825 46.6934ZM215.093 47.9005V45.1978H213.309V59H215.172V51.9677C215.172 48.7139 216.93 46.8771 219.816 46.8771C219.947 46.8771 220.105 46.9034 220.262 46.9034V45.0928C217.717 45.0928 215.959 46.0637 215.093 47.9005ZM230.837 56.8221C230.313 57.2944 229.552 57.5306 228.791 57.5306C227.243 57.5306 226.403 56.6384 226.403 55.0115V46.7722H230.601V45.1978H226.403V42.1802H224.54V45.1978H222.073V46.7722H224.54V55.1165C224.54 57.6618 225.983 59.1312 228.581 59.1312C229.657 59.1312 230.759 58.8163 231.493 58.1603L230.837 56.8221ZM239.713 45.0928C237.535 45.0928 235.488 45.775 234.098 46.9558L234.937 48.3466C236.066 47.3494 237.745 46.7197 239.529 46.7197C242.101 46.7197 243.439 48.0054 243.439 50.367V51.2067H239.057C235.095 51.2067 233.73 52.991 233.73 55.1165C233.73 57.5043 235.646 59.1312 238.768 59.1312C241.051 59.1312 242.678 58.2653 243.518 56.8483V59H245.302V50.4458C245.302 46.8771 243.282 45.0928 239.713 45.0928ZM239.057 57.6618C236.853 57.6618 235.567 56.6646 235.567 55.064C235.567 53.647 236.433 52.5974 239.11 52.5974H243.439V54.8541C242.704 56.6646 241.156 57.6618 239.057 57.6618Z" fill="#FDFBF9"/>
</g>
<defs>
<clipPath id="clip0">
<rect width="360" height="1200" fill="white"/>
</clipPath>
</defs>
</svg>
