<svg width="360" height="1000" viewBox="0 0 360 1000" fill="none" xmlns="http://www.w3.org/2000/svg">
<g clip-path="url(#clip0)">
<rect y="100" width="100" height="360" transform="rotate(-90 0 100)" fill="#E1F0ED"/>
<rect y="200" width="100" height="360" transform="rotate(-90 0 200)" fill="#C5E6DF"/>
<rect y="300" width="100" height="360" transform="rotate(-90 0 300)" fill="#ABDBD1"/>
<rect y="400" width="100" height="360" transform="rotate(-90 0 400)" fill="#92D1C5"/>
<rect y="500" width="100" height="360" transform="rotate(-90 0 500)" fill="#3EB099"/>
<rect y="600" width="100" height="360" transform="rotate(-90 0 600)" fill="#29A58C"/>
<path d="M33.4748 530.128H18.5513V570H22.7663V557.412H33.4748C43.6137 557.412 49.7653 552.285 49.7653 543.798C49.7653 535.254 43.6137 530.128 33.4748 530.128ZM33.3609 553.709H22.7663V533.773H33.3609C41.3353 533.773 45.5503 537.419 45.5503 543.798C45.5503 550.064 41.3353 553.709 33.3609 553.709Z" fill="#FDFBF9" fill-opacity="0.6"/>
<rect y="700" width="100" height="360" transform="rotate(-90 0 700)" fill="#1C9980"/>
<rect y="800" width="100" height="360" transform="rotate(-90 0 800)" fill="#0F876E"/>
<path d="M0 900L-4.37114e-06 800L360 800L360 900L0 900Z" fill="#06755F"/>
<path d="M29.965 870.342C40.1608 870.342 44.8315 865.329 44.8315 859.462C44.8315 844.938 20.2818 851.545 20.2818 840.609C20.2818 836.621 23.5285 833.375 30.8194 833.375C34.3509 833.375 38.3381 834.457 41.7557 836.678L43.1797 833.318C39.9899 831.096 35.3192 829.786 30.8194 829.786C20.6805 829.786 16.1237 834.856 16.1237 840.723C16.1237 855.475 40.6734 848.754 40.6734 859.69C40.6734 863.62 37.4267 866.753 29.965 866.753C24.7246 866.753 19.6552 864.703 16.8072 861.912L15.1554 865.158C18.1173 868.234 23.9842 870.342 29.965 870.342Z" fill="#FDFBF9" fill-opacity="0.6"/>
<rect y="1000" width="100" height="360" transform="rotate(-90 0 1000)" fill="#006651"/>
<path d="M76.7529 945.093C74.47 945.093 72.5545 946.09 71.4261 947.927V945.198H69.6418V964.091H71.5049V956.402C72.6594 958.187 74.5487 959.131 76.7529 959.131C80.6889 959.131 83.6277 956.297 83.6277 952.099C83.6277 947.927 80.6889 945.093 76.7529 945.093ZM76.6217 957.478C73.6828 957.478 71.4786 955.326 71.4786 952.099C71.4786 948.898 73.6828 946.72 76.6217 946.72C79.5343 946.72 81.7647 948.898 81.7647 952.099C81.7647 955.326 79.5343 957.478 76.6217 957.478ZM89.2099 947.9V945.198H87.4256V959H89.2886V951.968C89.2886 948.714 91.0467 946.877 93.9331 946.877C94.0643 946.877 94.2217 946.903 94.3792 946.903V945.093C91.8339 945.093 90.0758 946.064 89.2099 947.9ZM98.6971 942.18C99.4843 942.18 100.062 941.577 100.062 940.816C100.062 940.107 99.458 939.53 98.6971 939.53C97.9361 939.53 97.3326 940.133 97.3326 940.842C97.3326 941.577 97.9361 942.18 98.6971 942.18ZM97.7524 959H99.6155V945.198H97.7524V959ZM122.013 945.093C119.52 945.093 117.552 946.221 116.555 948.005C115.715 946.064 113.931 945.093 111.648 945.093C109.339 945.093 107.555 946.064 106.584 947.717V945.198H104.799V959H106.662V951.758C106.662 948.609 108.473 946.772 111.281 946.772C113.8 946.772 115.269 948.268 115.269 951.18V959H117.132V951.758C117.132 948.609 118.916 946.772 121.75 946.772C124.243 946.772 125.713 948.268 125.713 951.18V959H127.576V950.997C127.576 947.035 125.371 945.093 122.013 945.093ZM137.456 945.093C135.278 945.093 133.232 945.775 131.841 946.956L132.681 948.347C133.809 947.349 135.488 946.72 137.273 946.72C139.844 946.72 141.182 948.005 141.182 950.367V951.207H136.8C132.838 951.207 131.474 952.991 131.474 955.116C131.474 957.504 133.389 959.131 136.512 959.131C138.794 959.131 140.421 958.265 141.261 956.848V959H143.045V950.446C143.045 946.877 141.025 945.093 137.456 945.093ZM136.8 957.662C134.596 957.662 133.31 956.665 133.31 955.064C133.31 953.647 134.176 952.597 136.853 952.597H141.182V954.854C140.448 956.665 138.899 957.662 136.8 957.662ZM149.89 947.9V945.198H148.106V959H149.969V951.968C149.969 948.714 151.727 946.877 154.613 946.877C154.744 946.877 154.902 946.903 155.059 946.903V945.093C152.514 945.093 150.756 946.064 149.89 947.9ZM168.783 945.198L163.588 956.927L158.392 945.198H156.45L162.617 958.974L162.013 960.312C161.226 962.044 160.386 962.621 159.153 962.621C158.156 962.621 157.316 962.254 156.634 961.572L155.768 962.962C156.608 963.802 157.841 964.222 159.127 964.222C161.095 964.222 162.564 963.356 163.719 960.653L170.62 945.198H168.783ZM190.843 939.53V947.822C189.689 946.037 187.8 945.093 185.595 945.093C181.659 945.093 178.72 947.927 178.72 952.099C178.72 956.271 181.659 959.131 185.595 959.131C187.878 959.131 189.794 958.134 190.922 956.271V959H192.706V939.53H190.843ZM185.753 957.478C182.814 957.478 180.61 955.326 180.61 952.099C180.61 948.871 182.814 946.72 185.753 946.72C188.665 946.72 190.87 948.871 190.87 952.099C190.87 955.326 188.665 957.478 185.753 957.478ZM202.723 945.093C200.545 945.093 198.498 945.775 197.108 946.956L197.947 948.347C199.076 947.349 200.755 946.72 202.539 946.72C205.111 946.72 206.449 948.005 206.449 950.367V951.207H202.067C198.105 951.207 196.74 952.991 196.74 955.116C196.74 957.504 198.656 959.131 201.778 959.131C204.061 959.131 205.688 958.265 206.528 956.848V959H208.312V950.446C208.312 946.877 206.292 945.093 202.723 945.093ZM202.067 957.662C199.863 957.662 198.577 956.665 198.577 955.064C198.577 953.647 199.443 952.597 202.12 952.597H206.449V954.854C205.714 956.665 204.166 957.662 202.067 957.662ZM215.157 947.9V945.198H213.372V959H215.235V951.968C215.235 948.714 216.994 946.877 219.88 946.877C220.011 946.877 220.169 946.903 220.326 946.903V945.093C217.781 945.093 216.023 946.064 215.157 947.9ZM234.379 959H236.662L230.207 950.839L236.111 945.198H233.802L225.562 952.729V939.53H223.699V959H225.562V955.064L228.816 952.073L234.379 959ZM250.939 952.099C250.939 947.953 248.131 945.093 244.248 945.093C240.364 945.093 237.504 948.005 237.504 952.099C237.504 956.192 240.443 959.131 244.746 959.131C246.924 959.131 248.84 958.344 250.073 956.875L249.024 955.668C247.974 956.875 246.478 957.478 244.799 957.478C241.781 957.478 239.577 955.563 239.367 952.676H250.913C250.913 952.466 250.939 952.256 250.939 952.099ZM244.248 946.693C246.951 946.693 248.919 948.583 249.155 951.285H239.367C239.603 948.583 241.571 946.693 244.248 946.693ZM256.516 947.9V945.198H254.731V959H256.594V951.968C256.594 948.714 258.352 946.877 261.239 946.877C261.37 946.877 261.527 946.903 261.685 946.903V945.093C259.14 945.093 257.381 946.064 256.516 947.9ZM263.958 952.702H270.833V951.076H263.958V952.702ZM289.585 952.492H285.911V948.242H284.075V952.492H276.098L285.492 940.632H283.392L273.657 952.807V954.172H284.022V959H285.911V954.172H289.585V952.492Z" fill="#FDFBF9"/>
<path d="M115.856 829.093C113.573 829.093 111.658 830.09 110.53 831.927V829.198H108.745V848.091H110.608V840.402C111.763 842.187 113.652 843.131 115.856 843.131C119.792 843.131 122.731 840.297 122.731 836.099C122.731 831.927 119.792 829.093 115.856 829.093ZM115.725 841.478C112.786 841.478 110.582 839.326 110.582 836.099C110.582 832.898 112.786 830.72 115.725 830.72C118.638 830.72 120.868 832.898 120.868 836.099C120.868 839.326 118.638 841.478 115.725 841.478ZM128.313 831.9V829.198H126.529V843H128.392V835.968C128.392 832.714 130.15 830.877 133.037 830.877C133.168 830.877 133.325 830.903 133.483 830.903V829.093C130.937 829.093 129.179 830.064 128.313 831.9ZM137.801 826.18C138.588 826.18 139.165 825.577 139.165 824.816C139.165 824.107 138.561 823.53 137.801 823.53C137.04 823.53 136.436 824.133 136.436 824.842C136.436 825.577 137.04 826.18 137.801 826.18ZM136.856 843H138.719V829.198H136.856V843ZM161.116 829.093C158.623 829.093 156.655 830.221 155.658 832.005C154.819 830.064 153.034 829.093 150.751 829.093C148.442 829.093 146.658 830.064 145.687 831.717V829.198H143.903V843H145.766V835.758C145.766 832.609 147.576 830.772 150.384 830.772C152.903 830.772 154.373 832.268 154.373 835.18V843H156.236V835.758C156.236 832.609 158.02 830.772 160.854 830.772C163.347 830.772 164.816 832.268 164.816 835.18V843H166.679V834.997C166.679 831.035 164.475 829.093 161.116 829.093ZM176.56 829.093C174.382 829.093 172.335 829.775 170.944 830.956L171.784 832.347C172.912 831.349 174.592 830.72 176.376 830.72C178.948 830.72 180.286 832.005 180.286 834.367V835.207H175.904C171.941 835.207 170.577 836.991 170.577 839.116C170.577 841.504 172.492 843.131 175.615 843.131C177.898 843.131 179.525 842.265 180.364 840.848V843H182.149V834.446C182.149 830.877 180.128 829.093 176.56 829.093ZM175.904 841.662C173.7 841.662 172.414 840.665 172.414 839.064C172.414 837.647 173.28 836.597 175.956 836.597H180.286V838.854C179.551 840.665 178.003 841.662 175.904 841.662ZM188.993 831.9V829.198H187.209V843H189.072V835.968C189.072 832.714 190.83 830.877 193.717 830.877C193.848 830.877 194.005 830.903 194.163 830.903V829.093C191.617 829.093 189.859 830.064 188.993 831.9ZM207.887 829.198L202.691 840.927L197.496 829.198H195.554L201.72 842.974L201.117 844.312C200.329 846.044 199.49 846.621 198.256 846.621C197.259 846.621 196.42 846.254 195.737 845.572L194.872 846.962C195.711 847.802 196.944 848.222 198.23 848.222C200.198 848.222 201.668 847.356 202.822 844.653L209.723 829.198H207.887ZM224.043 829.093C221.865 829.093 219.818 829.775 218.427 830.956L219.267 832.347C220.395 831.349 222.075 830.72 223.859 830.72C226.431 830.72 227.769 832.005 227.769 834.367V835.207H223.387C219.425 835.207 218.06 836.991 218.06 839.116C218.06 841.504 219.976 843.131 223.098 843.131C225.381 843.131 227.008 842.265 227.848 840.848V843H229.632V834.446C229.632 830.877 227.611 829.093 224.043 829.093ZM223.387 841.662C221.183 841.662 219.897 840.665 219.897 839.064C219.897 837.647 220.763 836.597 223.439 836.597H227.769V838.854C227.034 840.665 225.486 841.662 223.387 841.662ZM234.692 843H236.555V823.53H234.692V843ZM248.403 840.822C247.878 841.294 247.117 841.531 246.356 841.531C244.808 841.531 243.968 840.638 243.968 839.012V830.772H248.167V829.198H243.968V826.18H242.105V829.198H239.639V830.772H242.105V839.116C242.105 841.662 243.548 843.131 246.146 843.131C247.222 843.131 248.324 842.816 249.059 842.16L248.403 840.822ZM77.88 861.093C75.5972 861.093 73.6816 862.09 72.5533 863.927V861.198H70.769V880.091H72.632V872.402C73.7866 874.187 75.6759 875.131 77.88 875.131C81.8161 875.131 84.7549 872.297 84.7549 868.099C84.7549 863.927 81.8161 861.093 77.88 861.093ZM77.7488 873.478C74.81 873.478 72.6058 871.326 72.6058 868.099C72.6058 864.898 74.81 862.72 77.7488 862.72C80.6615 862.72 82.8919 864.898 82.8919 868.099C82.8919 871.326 80.6615 873.478 77.7488 873.478ZM90.3371 863.9V861.198H88.5528V875H90.4158V867.968C90.4158 864.714 92.1739 862.877 95.0603 862.877C95.1915 862.877 95.3489 862.903 95.5064 862.903V861.093C92.9611 861.093 91.203 862.064 90.3371 863.9ZM99.8243 858.18C100.611 858.18 101.189 857.577 101.189 856.816C101.189 856.107 100.585 855.53 99.8243 855.53C99.0633 855.53 98.4598 856.133 98.4598 856.842C98.4598 857.577 99.0633 858.18 99.8243 858.18ZM98.8796 875H100.743V861.198H98.8796V875ZM123.14 861.093C120.647 861.093 118.679 862.221 117.682 864.005C116.842 862.064 115.058 861.093 112.775 861.093C110.466 861.093 108.682 862.064 107.711 863.717V861.198H105.927V875H107.79V867.758C107.79 864.609 109.6 862.772 112.408 862.772C114.927 862.772 116.396 864.268 116.396 867.18V875H118.259V867.758C118.259 864.609 120.044 862.772 122.878 862.772C125.37 862.772 126.84 864.268 126.84 867.18V875H128.703V866.997C128.703 863.035 126.499 861.093 123.14 861.093ZM138.583 861.093C136.406 861.093 134.359 861.775 132.968 862.956L133.808 864.347C134.936 863.349 136.615 862.72 138.4 862.72C140.971 862.72 142.31 864.005 142.31 866.367V867.207H137.927C133.965 867.207 132.601 868.991 132.601 871.116C132.601 873.504 134.516 875.131 137.639 875.131C139.922 875.131 141.549 874.265 142.388 872.848V875H144.173V866.446C144.173 862.877 142.152 861.093 138.583 861.093ZM137.927 873.662C135.723 873.662 134.438 872.665 134.438 871.064C134.438 869.647 135.303 868.597 137.98 868.597H142.31V870.854C141.575 872.665 140.027 873.662 137.927 873.662ZM151.017 863.9V861.198H149.233V875H151.096V867.968C151.096 864.714 152.854 862.877 155.74 862.877C155.871 862.877 156.029 862.903 156.186 862.903V861.093C153.641 861.093 151.883 862.064 151.017 863.9ZM169.91 861.198L164.715 872.927L159.519 861.198H157.577L163.744 874.974L163.14 876.312C162.353 878.044 161.513 878.621 160.28 878.621C159.283 878.621 158.443 878.254 157.761 877.572L156.895 878.962C157.735 879.802 158.968 880.222 160.254 880.222C162.222 880.222 163.691 879.356 164.846 876.653L171.747 861.198H169.91ZM191.971 855.53V863.822C190.816 862.037 188.927 861.093 186.723 861.093C182.787 861.093 179.848 863.927 179.848 868.099C179.848 872.271 182.787 875.131 186.723 875.131C189.005 875.131 190.921 874.134 192.049 872.271V875H193.834V855.53H191.971ZM186.88 873.478C183.941 873.478 181.737 871.326 181.737 868.099C181.737 864.871 183.941 862.72 186.88 862.72C189.793 862.72 191.997 864.871 191.997 868.099C191.997 871.326 189.793 873.478 186.88 873.478ZM203.85 861.093C201.672 861.093 199.626 861.775 198.235 862.956L199.075 864.347C200.203 863.349 201.882 862.72 203.667 862.72C206.238 862.72 207.576 864.005 207.576 866.367V867.207H203.194C199.232 867.207 197.868 868.991 197.868 871.116C197.868 873.504 199.783 875.131 202.906 875.131C205.189 875.131 206.815 874.265 207.655 872.848V875H209.439V866.446C209.439 862.877 207.419 861.093 203.85 861.093ZM203.194 873.662C200.99 873.662 199.704 872.665 199.704 871.064C199.704 869.647 200.57 868.597 203.247 868.597H207.576V870.854C206.842 872.665 205.293 873.662 203.194 873.662ZM216.284 863.9V861.198H214.5V875H216.363V867.968C216.363 864.714 218.121 862.877 221.007 862.877C221.138 862.877 221.296 862.903 221.453 862.903V861.093C218.908 861.093 217.15 862.064 216.284 863.9ZM235.506 875H237.789L231.334 866.839L237.238 861.198H234.929L226.69 868.729V855.53H224.827V875H226.69V871.064L229.943 868.073L235.506 875ZM252.066 868.099C252.066 863.953 249.259 861.093 245.375 861.093C241.492 861.093 238.631 864.005 238.631 868.099C238.631 872.192 241.57 875.131 245.874 875.131C248.052 875.131 249.967 874.344 251.2 872.875L250.151 871.668C249.101 872.875 247.605 873.478 245.926 873.478C242.909 873.478 240.704 871.563 240.494 868.676H252.04C252.04 868.466 252.066 868.256 252.066 868.099ZM245.375 862.693C248.078 862.693 250.046 864.583 250.282 867.285H240.494C240.731 864.583 242.699 862.693 245.375 862.693ZM257.643 863.9V861.198H255.858V875H257.721V867.968C257.721 864.714 259.48 862.877 262.366 862.877C262.497 862.877 262.655 862.903 262.812 862.903V861.093C260.267 861.093 258.509 862.064 257.643 863.9ZM265.085 868.702H271.96V867.076H265.085V868.702ZM280.627 864.504L285.823 857.97V856.632H274.015V858.311H283.409L278.318 864.688V866.078H279.63C283.041 866.078 284.589 867.522 284.589 869.726C284.589 872.009 282.91 873.426 279.866 873.426C277.478 873.426 275.353 872.533 274.172 871.3L273.254 872.796C274.671 874.239 277.216 875.157 279.866 875.157C284.301 875.157 286.531 872.796 286.531 869.726C286.531 866.787 284.563 864.714 280.627 864.504Z" fill="#FDFBF9"/>
<path d="M77.7263 745.093C75.4434 745.093 73.5279 746.09 72.3996 747.927V745.198H70.6153V764.091H72.4783V756.402C73.6329 758.187 75.5221 759.131 77.7263 759.131C81.6623 759.131 84.6012 756.297 84.6012 752.099C84.6012 747.927 81.6623 745.093 77.7263 745.093ZM77.5951 757.478C74.6562 757.478 72.4521 755.326 72.4521 752.099C72.4521 748.898 74.6562 746.72 77.5951 746.72C80.5077 746.72 82.7381 748.898 82.7381 752.099C82.7381 755.326 80.5077 757.478 77.5951 757.478ZM90.1833 747.9V745.198H88.399V759H90.2621V751.968C90.2621 748.714 92.0201 746.877 94.9065 746.877C95.0377 746.877 95.1952 746.903 95.3526 746.903V745.093C92.8073 745.093 91.0493 746.064 90.1833 747.9ZM99.6705 742.18C100.458 742.18 101.035 741.577 101.035 740.816C101.035 740.107 100.431 739.53 99.6705 739.53C98.9096 739.53 98.306 740.133 98.306 740.842C98.306 741.577 98.9096 742.18 99.6705 742.18ZM98.7259 759H100.589V745.198H98.7259V759ZM122.986 745.093C120.493 745.093 118.525 746.221 117.528 748.005C116.689 746.064 114.904 745.093 112.621 745.093C110.312 745.093 108.528 746.064 107.557 747.717V745.198H105.773V759H107.636V751.758C107.636 748.609 109.446 746.772 112.254 746.772C114.773 746.772 116.243 748.268 116.243 751.18V759H118.106V751.758C118.106 748.609 119.89 746.772 122.724 746.772C125.217 746.772 126.686 748.268 126.686 751.18V759H128.549V750.997C128.549 747.035 126.345 745.093 122.986 745.093ZM138.43 745.093C136.252 745.093 134.205 745.775 132.814 746.956L133.654 748.347C134.782 747.349 136.462 746.72 138.246 746.72C140.818 746.72 142.156 748.005 142.156 750.367V751.207H137.774C133.811 751.207 132.447 752.991 132.447 755.116C132.447 757.504 134.362 759.131 137.485 759.131C139.768 759.131 141.395 758.265 142.234 756.848V759H144.019V750.446C144.019 746.877 141.998 745.093 138.43 745.093ZM137.774 757.662C135.57 757.662 134.284 756.665 134.284 755.064C134.284 753.647 135.15 752.597 137.826 752.597H142.156V754.854C141.421 756.665 139.873 757.662 137.774 757.662ZM150.863 747.9V745.198H149.079V759H150.942V751.968C150.942 748.714 152.7 746.877 155.587 746.877C155.718 746.877 155.875 746.903 156.033 746.903V745.093C153.487 745.093 151.729 746.064 150.863 747.9ZM169.757 745.198L164.561 756.927L159.366 745.198H157.424L163.59 758.974L162.987 760.312C162.199 762.044 161.36 762.621 160.126 762.621C159.129 762.621 158.29 762.254 157.607 761.572L156.742 762.962C157.581 763.802 158.814 764.222 160.1 764.222C162.068 764.222 163.538 763.356 164.692 760.653L171.593 745.198H169.757ZM191.817 739.53V747.822C190.662 746.037 188.773 745.093 186.569 745.093C182.633 745.093 179.694 747.927 179.694 752.099C179.694 756.271 182.633 759.131 186.569 759.131C188.852 759.131 190.767 758.134 191.896 756.271V759H193.68V739.53H191.817ZM186.726 757.478C183.787 757.478 181.583 755.326 181.583 752.099C181.583 748.871 183.787 746.72 186.726 746.72C189.639 746.72 191.843 748.871 191.843 752.099C191.843 755.326 189.639 757.478 186.726 757.478ZM203.697 745.093C201.519 745.093 199.472 745.775 198.081 746.956L198.921 748.347C200.049 747.349 201.729 746.72 203.513 746.72C206.084 746.72 207.423 748.005 207.423 750.367V751.207H203.041C199.078 751.207 197.714 752.991 197.714 755.116C197.714 757.504 199.629 759.131 202.752 759.131C205.035 759.131 206.662 758.265 207.501 756.848V759H209.286V750.446C209.286 746.877 207.265 745.093 203.697 745.093ZM203.041 757.662C200.836 757.662 199.551 756.665 199.551 755.064C199.551 753.647 200.417 752.597 203.093 752.597H207.423V754.854C206.688 756.665 205.14 757.662 203.041 757.662ZM216.13 747.9V745.198H214.346V759H216.209V751.968C216.209 748.714 217.967 746.877 220.853 746.877C220.985 746.877 221.142 746.903 221.299 746.903V745.093C218.754 745.093 216.996 746.064 216.13 747.9ZM235.352 759H237.635L231.18 750.839L237.084 745.198H234.775L226.536 752.729V739.53H224.673V759H226.536V755.064L229.79 752.073L235.352 759ZM251.913 752.099C251.913 747.953 249.105 745.093 245.221 745.093C241.338 745.093 238.478 748.005 238.478 752.099C238.478 756.192 241.417 759.131 245.72 759.131C247.898 759.131 249.813 758.344 251.047 756.875L249.997 755.668C248.947 756.875 247.452 757.478 245.772 757.478C242.755 757.478 240.551 755.563 240.341 752.676H251.886C251.886 752.466 251.913 752.256 251.913 752.099ZM245.221 746.693C247.924 746.693 249.892 748.583 250.128 751.285H240.341C240.577 748.583 242.545 746.693 245.221 746.693ZM257.489 747.9V745.198H255.705V759H257.568V751.968C257.568 748.714 259.326 746.877 262.212 746.877C262.343 746.877 262.501 746.903 262.658 746.903V745.093C260.113 745.093 258.355 746.064 257.489 747.9ZM264.931 752.702H271.806V751.076H264.931V752.702ZM276.874 757.321L283.119 751.18C285.585 748.766 286.136 747.192 286.136 745.434C286.136 742.364 283.775 740.475 280.049 740.475C277.241 740.475 274.958 741.419 273.541 743.099L274.879 744.253C276.086 742.862 277.739 742.206 279.891 742.206C282.699 742.206 284.195 743.518 284.195 745.644C284.195 746.903 283.801 748.137 281.728 750.183L274.092 757.662V759H286.976V757.321H276.874Z" fill="#FDFBF9"/>
<path d="M81.0066 645.093C78.7237 645.093 76.8082 646.09 75.6799 647.927V645.198H73.8956V664.091H75.7586V656.402C76.9132 658.187 78.8025 659.131 81.0066 659.131C84.9426 659.131 87.8815 656.297 87.8815 652.099C87.8815 647.927 84.9426 645.093 81.0066 645.093ZM80.8754 657.478C77.9365 657.478 75.7324 655.326 75.7324 652.099C75.7324 648.898 77.9365 646.72 80.8754 646.72C83.7881 646.72 86.0185 648.898 86.0185 652.099C86.0185 655.326 83.7881 657.478 80.8754 657.478ZM93.4636 647.9V645.198H91.6793V659H93.5424V651.968C93.5424 648.714 95.3004 646.877 98.1868 646.877C98.318 646.877 98.4755 646.903 98.6329 646.903V645.093C96.0876 645.093 94.3296 646.064 93.4636 647.9ZM102.951 642.18C103.738 642.18 104.315 641.577 104.315 640.816C104.315 640.107 103.712 639.53 102.951 639.53C102.19 639.53 101.586 640.133 101.586 640.842C101.586 641.577 102.19 642.18 102.951 642.18ZM102.006 659H103.869V645.198H102.006V659ZM126.267 645.093C123.774 645.093 121.806 646.221 120.809 648.005C119.969 646.064 118.185 645.093 115.902 645.093C113.593 645.093 111.808 646.064 110.837 647.717V645.198H109.053V659H110.916V651.758C110.916 648.609 112.727 646.772 115.534 646.772C118.053 646.772 119.523 648.268 119.523 651.18V659H121.386V651.758C121.386 648.609 123.17 646.772 126.004 646.772C128.497 646.772 129.966 648.268 129.966 651.18V659H131.829V650.997C131.829 647.035 129.625 645.093 126.267 645.093ZM141.71 645.093C139.532 645.093 137.485 645.775 136.095 646.956L136.934 648.347C138.063 647.349 139.742 646.72 141.526 646.72C144.098 646.72 145.436 648.005 145.436 650.367V651.207H141.054C137.092 651.207 135.727 652.991 135.727 655.116C135.727 657.504 137.643 659.131 140.765 659.131C143.048 659.131 144.675 658.265 145.515 656.848V659H147.299V650.446C147.299 646.877 145.279 645.093 141.71 645.093ZM141.054 657.662C138.85 657.662 137.564 656.665 137.564 655.064C137.564 653.647 138.43 652.597 141.106 652.597H145.436V654.854C144.701 656.665 143.153 657.662 141.054 657.662ZM154.144 647.9V645.198H152.359V659H154.222V651.968C154.222 648.714 155.98 646.877 158.867 646.877C158.998 646.877 159.155 646.903 159.313 646.903V645.093C156.768 645.093 155.01 646.064 154.144 647.9ZM173.037 645.198L167.841 656.927L162.646 645.198H160.704L166.87 658.974L166.267 660.312C165.48 662.044 164.64 662.621 163.407 662.621C162.41 662.621 161.57 662.254 160.888 661.572L160.022 662.962C160.861 663.802 162.095 664.222 163.381 664.222C165.349 664.222 166.818 663.356 167.973 660.653L174.874 645.198H173.037ZM195.097 639.53V647.822C193.943 646.037 192.053 645.093 189.849 645.093C185.913 645.093 182.974 647.927 182.974 652.099C182.974 656.271 185.913 659.131 189.849 659.131C192.132 659.131 194.048 658.134 195.176 656.271V659H196.96V639.53H195.097ZM190.007 657.478C187.068 657.478 184.864 655.326 184.864 652.099C184.864 648.871 187.068 646.72 190.007 646.72C192.919 646.72 195.123 648.871 195.123 652.099C195.123 655.326 192.919 657.478 190.007 657.478ZM206.977 645.093C204.799 645.093 202.752 645.775 201.361 646.956L202.201 648.347C203.329 647.349 205.009 646.72 206.793 646.72C209.365 646.72 210.703 648.005 210.703 650.367V651.207H206.321C202.359 651.207 200.994 652.991 200.994 655.116C200.994 657.504 202.91 659.131 206.032 659.131C208.315 659.131 209.942 658.265 210.782 656.848V659H212.566V650.446C212.566 646.877 210.545 645.093 206.977 645.093ZM206.321 657.662C204.117 657.662 202.831 656.665 202.831 655.064C202.831 653.647 203.697 652.597 206.373 652.597H210.703V654.854C209.968 656.665 208.42 657.662 206.321 657.662ZM219.411 647.9V645.198H217.626V659H219.489V651.968C219.489 648.714 221.247 646.877 224.134 646.877C224.265 646.877 224.422 646.903 224.58 646.903V645.093C222.035 645.093 220.276 646.064 219.411 647.9ZM238.633 659H240.916L234.461 650.839L240.365 645.198H238.055L229.816 652.729V639.53H227.953V659H229.816V655.064L233.07 652.073L238.633 659ZM255.193 652.099C255.193 647.953 252.385 645.093 248.502 645.093C244.618 645.093 241.758 648.005 241.758 652.099C241.758 656.192 244.697 659.131 249 659.131C251.178 659.131 253.094 658.344 254.327 656.875L253.277 655.668C252.228 656.875 250.732 657.478 249.053 657.478C246.035 657.478 243.831 655.563 243.621 652.676H255.167C255.167 652.466 255.193 652.256 255.193 652.099ZM248.502 646.693C251.204 646.693 253.172 648.583 253.409 651.285H243.621C243.857 648.583 245.825 646.693 248.502 646.693ZM260.769 647.9V645.198H258.985V659H260.848V651.968C260.848 648.714 262.606 646.877 265.492 646.877C265.624 646.877 265.781 646.903 265.939 646.903V645.093C263.393 645.093 261.635 646.064 260.769 647.9ZM268.212 652.702H275.086V651.076H268.212V652.702ZM276.457 640.632V642.311H280.787V659H282.676V640.632H276.457Z" fill="#FDFBF9"/>
<path d="M135.908 545.093C133.625 545.093 131.709 546.09 130.581 547.927V545.198H128.797V564.091H130.66V556.402C131.814 558.187 133.704 559.131 135.908 559.131C139.844 559.131 142.783 556.297 142.783 552.099C142.783 547.927 139.844 545.093 135.908 545.093ZM135.777 557.478C132.838 557.478 130.634 555.326 130.634 552.099C130.634 548.898 132.838 546.72 135.777 546.72C138.689 546.72 140.92 548.898 140.92 552.099C140.92 555.326 138.689 557.478 135.777 557.478ZM148.365 547.9V545.198H146.581V559H148.444V551.968C148.444 548.714 150.202 546.877 153.088 546.877C153.219 546.877 153.377 546.903 153.534 546.903V545.093C150.989 545.093 149.231 546.064 148.365 547.9ZM157.852 542.18C158.639 542.18 159.217 541.577 159.217 540.816C159.217 540.107 158.613 539.53 157.852 539.53C157.091 539.53 156.488 540.133 156.488 540.842C156.488 541.577 157.091 542.18 157.852 542.18ZM156.907 559H158.77V545.198H156.907V559ZM181.168 545.093C178.675 545.093 176.707 546.221 175.71 548.005C174.87 546.064 173.086 545.093 170.803 545.093C168.494 545.093 166.71 546.064 165.739 547.717V545.198H163.954V559H165.817V551.758C165.817 548.609 167.628 546.772 170.436 546.772C172.955 546.772 174.424 548.268 174.424 551.18V559H176.287V551.758C176.287 548.609 178.071 546.772 180.905 546.772C183.398 546.772 184.868 548.268 184.868 551.18V559H186.731V550.997C186.731 547.035 184.526 545.093 181.168 545.093ZM196.611 545.093C194.433 545.093 192.387 545.775 190.996 546.956L191.836 548.347C192.964 547.349 194.643 546.72 196.428 546.72C198.999 546.72 200.337 548.005 200.337 550.367V551.207H195.955C191.993 551.207 190.629 552.991 190.629 555.116C190.629 557.504 192.544 559.131 195.667 559.131C197.949 559.131 199.576 558.265 200.416 556.848V559H202.2V550.446C202.2 546.877 200.18 545.093 196.611 545.093ZM195.955 557.662C193.751 557.662 192.465 556.665 192.465 555.064C192.465 553.647 193.331 552.597 196.008 552.597H200.337V554.854C199.603 556.665 198.054 557.662 195.955 557.662ZM209.045 547.9V545.198H207.261V559H209.124V551.968C209.124 548.714 210.882 546.877 213.768 546.877C213.899 546.877 214.057 546.903 214.214 546.903V545.093C211.669 545.093 209.911 546.064 209.045 547.9ZM227.938 545.198L222.743 556.927L217.547 545.198H215.605L221.772 558.974L221.168 560.312C220.381 562.044 219.541 562.621 218.308 562.621C217.311 562.621 216.471 562.254 215.789 561.572L214.923 562.962C215.763 563.802 216.996 564.222 218.282 564.222C220.25 564.222 221.719 563.356 222.874 560.653L229.775 545.198H227.938Z" fill="#FDFBF9"/>
<path d="M76.1375 445.093C73.8547 445.093 71.9391 446.09 70.8108 447.927V445.198H69.0265V464.091H70.8895V456.402C72.0441 458.187 73.9334 459.131 76.1375 459.131C80.0736 459.131 83.0124 456.297 83.0124 452.099C83.0124 447.927 80.0736 445.093 76.1375 445.093ZM76.0063 457.478C73.0675 457.478 70.8633 455.326 70.8633 452.099C70.8633 448.898 73.0675 446.72 76.0063 446.72C78.919 446.72 81.1494 448.898 81.1494 452.099C81.1494 455.326 78.919 457.478 76.0063 457.478ZM88.5946 447.9V445.198H86.8103V459H88.6733V451.968C88.6733 448.714 90.4314 446.877 93.3178 446.877C93.449 446.877 93.6064 446.903 93.7639 446.903V445.093C91.2186 445.093 89.4605 446.064 88.5946 447.9ZM98.0818 442.18C98.869 442.18 99.4463 441.577 99.4463 440.816C99.4463 440.107 98.8427 439.53 98.0818 439.53C97.3208 439.53 96.7173 440.133 96.7173 440.842C96.7173 441.577 97.3208 442.18 98.0818 442.18ZM97.1371 459H99.0002V445.198H97.1371V459ZM121.397 445.093C118.905 445.093 116.937 446.221 115.94 448.005C115.1 446.064 113.316 445.093 111.033 445.093C108.724 445.093 106.939 446.064 105.968 447.717V445.198H104.184V459H106.047V451.758C106.047 448.609 107.858 446.772 110.665 446.772C113.184 446.772 114.654 448.268 114.654 451.18V459H116.517V451.758C116.517 448.609 118.301 446.772 121.135 446.772C123.628 446.772 125.097 448.268 125.097 451.18V459H126.96V450.997C126.96 447.035 124.756 445.093 121.397 445.093ZM136.841 445.093C134.663 445.093 132.616 445.775 131.226 446.956L132.065 448.347C133.194 447.349 134.873 446.72 136.657 446.72C139.229 446.72 140.567 448.005 140.567 450.367V451.207H136.185C132.223 451.207 130.858 452.991 130.858 455.116C130.858 457.504 132.774 459.131 135.896 459.131C138.179 459.131 139.806 458.265 140.646 456.848V459H142.43V450.446C142.43 446.877 140.41 445.093 136.841 445.093ZM136.185 457.662C133.981 457.662 132.695 456.665 132.695 455.064C132.695 453.647 133.561 452.597 136.237 452.597H140.567V454.854C139.832 456.665 138.284 457.662 136.185 457.662ZM149.275 447.9V445.198H147.49V459H149.353V451.968C149.353 448.714 151.111 446.877 153.998 446.877C154.129 446.877 154.286 446.903 154.444 446.903V445.093C151.899 445.093 150.141 446.064 149.275 447.9ZM168.168 445.198L162.972 456.927L157.777 445.198H155.835L162.001 458.974L161.398 460.312C160.611 462.044 159.771 462.621 158.538 462.621C157.541 462.621 156.701 462.254 156.019 461.572L155.153 462.962C155.992 463.802 157.226 464.222 158.511 464.222C160.479 464.222 161.949 463.356 163.103 460.653L170.005 445.198H168.168ZM179.496 459H181.359V439.53H179.496V459ZM187.487 442.18C188.275 442.18 188.852 441.577 188.852 440.816C188.852 440.107 188.248 439.53 187.487 439.53C186.726 439.53 186.123 440.133 186.123 440.842C186.123 441.577 186.726 442.18 187.487 442.18ZM186.543 459H188.406V445.198H186.543V459ZM204.584 445.198V447.848C203.43 446.037 201.435 445.093 199.126 445.093C195.19 445.093 192.199 447.796 192.199 451.758C192.199 455.72 195.19 458.475 199.126 458.475C201.383 458.475 203.351 457.557 204.505 455.799V457.557C204.505 460.968 202.905 462.569 199.415 462.569C197.289 462.569 195.295 461.86 193.983 460.679L193.039 462.096C194.482 463.461 196.948 464.222 199.467 464.222C204.033 464.222 206.369 462.07 206.369 457.321V445.198H204.584ZM199.31 456.822C196.266 456.822 194.088 454.749 194.088 451.758C194.088 448.766 196.266 446.72 199.31 446.72C202.354 446.72 204.558 448.766 204.558 451.758C204.558 454.749 202.354 456.822 199.31 456.822ZM218.611 445.093C216.275 445.093 214.465 446.011 213.441 447.612V439.53H211.578V459H213.441V451.758C213.441 448.609 215.304 446.772 218.27 446.772C220.894 446.772 222.416 448.268 222.416 451.18V459H224.279V450.997C224.279 447.035 221.969 445.093 218.611 445.093ZM235.949 456.822C235.424 457.294 234.663 457.531 233.902 457.531C232.354 457.531 231.514 456.638 231.514 455.012V446.772H235.713V445.198H231.514V442.18H229.651V445.198H227.185V446.772H229.651V455.116C229.651 457.662 231.095 459.131 233.692 459.131C234.768 459.131 235.87 458.816 236.605 458.16L235.949 456.822ZM251.554 452.099C251.554 447.953 248.746 445.093 244.863 445.093C240.979 445.093 238.119 448.005 238.119 452.099C238.119 456.192 241.058 459.131 245.361 459.131C247.539 459.131 249.455 458.344 250.688 456.875L249.638 455.668C248.589 456.875 247.093 457.478 245.414 457.478C242.396 457.478 240.192 455.563 239.982 452.676H251.528C251.528 452.466 251.554 452.256 251.554 452.099ZM244.863 446.693C247.565 446.693 249.533 448.583 249.769 451.285H239.982C240.218 448.583 242.186 446.693 244.863 446.693ZM262.378 445.093C259.99 445.093 258.127 446.064 257.13 447.743V445.198H255.346V459H257.209V451.758C257.209 448.609 259.072 446.772 262.037 446.772C264.661 446.772 266.183 448.268 266.183 451.18V459H268.046V450.997C268.046 447.035 265.737 445.093 262.378 445.093ZM272.081 452.702H278.956V451.076H272.081V452.702ZM280.326 440.632V442.311H284.656V459H286.545V440.632H280.326Z" fill="#FDFBF9"/>
<path d="M73.8572 345.093C75.1517 345.093 76.3238 345.39 77.3734 345.985C78.423 346.562 79.2452 347.384 79.84 348.452C80.4347 349.519 80.7321 350.734 80.7321 352.099C80.7321 353.481 80.4347 354.705 79.84 355.772C79.2452 356.84 78.423 357.671 77.3734 358.265C76.3413 358.843 75.1692 359.131 73.8572 359.131C72.7377 359.131 71.7231 358.904 70.8134 358.449C69.9212 357.977 69.1865 357.294 68.6092 356.402V364.091H66.7462V345.198H68.5305V347.927C69.0903 347.017 69.825 346.317 70.7347 345.828C71.6618 345.338 72.7027 345.093 73.8572 345.093ZM73.726 357.478C74.6882 357.478 75.5628 357.259 76.35 356.822C77.1372 356.367 77.7495 355.729 78.1868 354.907C78.6417 354.084 78.8691 353.148 78.8691 352.099C78.8691 351.049 78.6417 350.122 78.1868 349.317C77.7495 348.495 77.1372 347.857 76.35 347.402C75.5628 346.947 74.6882 346.72 73.726 346.72C72.7464 346.72 71.863 346.947 71.0758 347.402C70.3061 347.857 69.6938 348.495 69.239 349.317C68.8017 350.122 68.583 351.049 68.583 352.099C68.583 353.148 68.8017 354.084 69.239 354.907C69.6938 355.729 70.3061 356.367 71.0758 356.822C71.863 357.259 72.7464 357.478 73.726 357.478ZM86.3143 347.9C86.7516 346.973 87.3989 346.274 88.256 345.801C89.1307 345.329 90.2065 345.093 91.4835 345.093V346.903L91.0375 346.877C89.5855 346.877 88.4485 347.323 87.6263 348.215C86.8041 349.108 86.393 350.358 86.393 351.968V359H84.5299V345.198H86.3143V347.9ZM94.8568 345.198H96.7199V359H94.8568V345.198ZM95.8015 342.18C95.4166 342.18 95.093 342.049 94.8306 341.787C94.5682 341.524 94.437 341.209 94.437 340.842C94.437 340.492 94.5682 340.186 94.8306 339.924C95.093 339.661 95.4166 339.53 95.8015 339.53C96.1863 339.53 96.5099 339.661 96.7723 339.924C97.0347 340.168 97.1659 340.466 97.1659 340.816C97.1659 341.201 97.0347 341.524 96.7723 341.787C96.5099 342.049 96.1863 342.18 95.8015 342.18ZM119.117 345.093C120.849 345.093 122.205 345.591 123.184 346.588C124.181 347.586 124.68 349.055 124.68 350.997V359H122.817V351.18C122.817 349.746 122.467 348.653 121.767 347.9C121.085 347.148 120.114 346.772 118.855 346.772C117.42 346.772 116.292 347.218 115.47 348.11C114.648 348.985 114.236 350.201 114.236 351.758V359H112.373V351.18C112.373 349.746 112.024 348.653 111.324 347.9C110.642 347.148 109.662 346.772 108.385 346.772C106.968 346.772 105.84 347.218 105 348.11C104.178 348.985 103.767 350.201 103.767 351.758V359H101.904V345.198H103.688V347.717C104.178 346.877 104.86 346.23 105.735 345.775C106.609 345.32 107.615 345.093 108.752 345.093C109.907 345.093 110.904 345.338 111.744 345.828C112.601 346.317 113.239 347.043 113.659 348.005C114.167 347.096 114.892 346.387 115.837 345.88C116.799 345.355 117.893 345.093 119.117 345.093ZM134.561 345.093C136.362 345.093 137.744 345.548 138.707 346.457C139.669 347.349 140.15 348.679 140.15 350.446V359H138.365V356.848C137.946 357.566 137.325 358.125 136.502 358.528C135.698 358.93 134.736 359.131 133.616 359.131C132.077 359.131 130.852 358.764 129.942 358.029C129.033 357.294 128.578 356.324 128.578 355.116C128.578 353.944 128.998 353 129.837 352.283C130.695 351.565 132.05 351.207 133.905 351.207H138.287V350.367C138.287 349.177 137.954 348.277 137.29 347.664C136.625 347.035 135.654 346.72 134.377 346.72C133.502 346.72 132.663 346.868 131.858 347.166C131.053 347.446 130.362 347.839 129.785 348.347L128.945 346.956C129.645 346.361 130.485 345.906 131.464 345.591C132.444 345.259 133.476 345.093 134.561 345.093ZM133.905 357.662C134.954 357.662 135.855 357.426 136.607 356.953C137.36 356.463 137.919 355.764 138.287 354.854V352.597H133.957C131.595 352.597 130.415 353.42 130.415 355.064C130.415 355.869 130.721 356.507 131.333 356.98C131.945 357.434 132.803 357.662 133.905 357.662ZM146.994 347.9C147.432 346.973 148.079 346.274 148.936 345.801C149.811 345.329 150.887 345.093 152.164 345.093V346.903L151.717 346.877C150.266 346.877 149.128 347.323 148.306 348.215C147.484 349.108 147.073 350.358 147.073 351.968V359H145.21V345.198H146.994V347.9ZM167.724 345.198L160.823 360.653C160.263 361.948 159.616 362.866 158.881 363.408C158.147 363.951 157.263 364.222 156.231 364.222C155.566 364.222 154.945 364.117 154.368 363.907C153.791 363.697 153.292 363.382 152.872 362.962L153.738 361.572C154.438 362.271 155.278 362.621 156.257 362.621C156.887 362.621 157.421 362.446 157.858 362.096C158.313 361.746 158.733 361.152 159.118 360.312L159.721 358.974L153.555 345.198H155.496L160.692 356.927L165.887 345.198H167.724ZM177.216 339.53H179.079V359H177.216V339.53ZM184.262 345.198H186.125V359H184.262V345.198ZM185.207 342.18C184.822 342.18 184.499 342.049 184.236 341.787C183.974 341.524 183.843 341.209 183.843 340.842C183.843 340.492 183.974 340.186 184.236 339.924C184.499 339.661 184.822 339.53 185.207 339.53C185.592 339.53 185.916 339.661 186.178 339.924C186.44 340.168 186.572 340.466 186.572 340.816C186.572 341.201 186.44 341.524 186.178 341.787C185.916 342.049 185.592 342.18 185.207 342.18ZM204.088 345.198V357.321C204.088 359.665 203.511 361.397 202.356 362.516C201.219 363.653 199.496 364.222 197.187 364.222C195.91 364.222 194.694 364.029 193.54 363.644C192.403 363.277 191.476 362.761 190.758 362.096L191.703 360.679C192.368 361.274 193.172 361.738 194.117 362.07C195.079 362.402 196.085 362.569 197.135 362.569C198.884 362.569 200.17 362.158 200.992 361.335C201.814 360.531 202.225 359.271 202.225 357.557V355.799C201.648 356.673 200.887 357.338 199.942 357.793C199.015 358.248 197.983 358.475 196.846 358.475C195.551 358.475 194.371 358.195 193.304 357.636C192.254 357.058 191.423 356.262 190.811 355.248C190.216 354.216 189.919 353.052 189.919 351.758C189.919 350.463 190.216 349.309 190.811 348.294C191.423 347.279 192.254 346.492 193.304 345.932C194.353 345.373 195.534 345.093 196.846 345.093C198.018 345.093 199.076 345.329 200.021 345.801C200.966 346.274 201.727 346.956 202.304 347.848V345.198H204.088ZM197.03 356.822C198.027 356.822 198.928 356.612 199.732 356.192C200.537 355.755 201.158 355.151 201.595 354.382C202.05 353.612 202.278 352.737 202.278 351.758C202.278 350.778 202.05 349.912 201.595 349.16C201.158 348.39 200.537 347.796 199.732 347.376C198.945 346.938 198.044 346.72 197.03 346.72C196.033 346.72 195.132 346.93 194.327 347.349C193.54 347.769 192.919 348.364 192.464 349.134C192.027 349.903 191.808 350.778 191.808 351.758C191.808 352.737 192.027 353.612 192.464 354.382C192.919 355.151 193.54 355.755 194.327 356.192C195.132 356.612 196.033 356.822 197.03 356.822ZM216.33 345.093C218.062 345.093 219.435 345.6 220.45 346.615C221.482 347.612 221.998 349.073 221.998 350.997V359H220.135V351.18C220.135 349.746 219.777 348.653 219.059 347.9C218.342 347.148 217.319 346.772 215.989 346.772C214.502 346.772 213.322 347.218 212.447 348.11C211.59 348.985 211.161 350.201 211.161 351.758V359H209.298V339.53H211.161V347.612C211.668 346.807 212.368 346.186 213.26 345.749C214.152 345.311 215.176 345.093 216.33 345.093ZM234.325 358.16C233.975 358.475 233.537 358.72 233.013 358.895C232.505 359.052 231.972 359.131 231.412 359.131C230.118 359.131 229.12 358.781 228.421 358.082C227.721 357.382 227.371 356.393 227.371 355.116V346.772H224.905V345.198H227.371V342.18H229.234V345.198H233.433V346.772H229.234V355.012C229.234 355.834 229.435 356.463 229.838 356.901C230.257 357.321 230.852 357.531 231.622 357.531C232.007 357.531 232.374 357.469 232.724 357.347C233.091 357.224 233.406 357.049 233.669 356.822L234.325 358.16ZM249.247 352.676H237.702C237.807 354.111 238.358 355.274 239.355 356.166C240.352 357.041 241.611 357.478 243.133 357.478C243.99 357.478 244.778 357.329 245.495 357.032C246.212 356.717 246.833 356.262 247.358 355.668L248.408 356.875C247.795 357.609 247.026 358.169 246.098 358.554C245.189 358.939 244.183 359.131 243.081 359.131C241.664 359.131 240.404 358.834 239.302 358.239C238.218 357.627 237.369 356.787 236.757 355.72C236.145 354.653 235.839 353.446 235.839 352.099C235.839 350.752 236.127 349.545 236.705 348.478C237.299 347.411 238.104 346.58 239.119 345.985C240.151 345.39 241.305 345.093 242.582 345.093C243.859 345.093 245.005 345.39 246.02 345.985C247.034 346.58 247.83 347.411 248.408 348.478C248.985 349.527 249.273 350.734 249.273 352.099L249.247 352.676ZM242.582 346.693C241.253 346.693 240.133 347.122 239.224 347.979C238.331 348.819 237.824 349.921 237.702 351.285H247.489C247.367 349.921 246.851 348.819 245.941 347.979C245.049 347.122 243.929 346.693 242.582 346.693ZM260.098 345.093C261.83 345.093 263.203 345.6 264.218 346.615C265.25 347.612 265.766 349.073 265.766 350.997V359H263.903V351.18C263.903 349.746 263.544 348.653 262.827 347.9C262.11 347.148 261.086 346.772 259.757 346.772C258.27 346.772 257.089 347.218 256.214 348.11C255.357 348.985 254.929 350.201 254.929 351.758V359H253.066V345.198H254.85V347.743C255.357 346.903 256.057 346.256 256.949 345.801C257.859 345.329 258.908 345.093 260.098 345.093ZM269.8 351.076H276.675V352.702H269.8V351.076ZM291.845 357.321V359H278.961V357.662L286.597 350.183C287.559 349.239 288.206 348.425 288.539 347.743C288.889 347.043 289.064 346.344 289.064 345.644C289.064 344.559 288.687 343.72 287.935 343.125C287.201 342.513 286.142 342.206 284.76 342.206C282.609 342.206 280.938 342.889 279.748 344.253L278.41 343.099C279.127 342.259 280.037 341.612 281.139 341.157C282.259 340.702 283.518 340.475 284.918 340.475C286.789 340.475 288.268 340.921 289.352 341.813C290.454 342.687 291.005 343.895 291.005 345.434C291.005 346.379 290.795 347.288 290.376 348.163C289.956 349.038 289.16 350.043 287.988 351.18L281.743 357.321H291.845Z" fill="#121212"/>
<path d="M74.011 245.093C75.3055 245.093 76.4775 245.39 77.5271 245.985C78.5767 246.562 79.3989 247.384 79.9937 248.452C80.5885 249.519 80.8859 250.734 80.8859 252.099C80.8859 253.481 80.5885 254.705 79.9937 255.772C79.3989 256.84 78.5767 257.671 77.5271 258.265C76.495 258.843 75.323 259.131 74.011 259.131C72.8914 259.131 71.8768 258.904 70.9671 258.449C70.075 257.977 69.3403 257.294 68.763 256.402V264.091H66.8999V245.198H68.6843V247.927C69.2441 247.017 69.9788 246.317 70.8884 245.828C71.8156 245.338 72.8564 245.093 74.011 245.093ZM73.8798 257.478C74.8419 257.478 75.7166 257.259 76.5038 256.822C77.291 256.367 77.9033 255.729 78.3406 254.907C78.7954 254.084 79.0228 253.148 79.0228 252.099C79.0228 251.049 78.7954 250.122 78.3406 249.317C77.9033 248.495 77.291 247.857 76.5038 247.402C75.7166 246.947 74.8419 246.72 73.8798 246.72C72.9002 246.72 72.0167 246.947 71.2295 247.402C70.4598 247.857 69.8476 248.495 69.3927 249.317C68.9554 250.122 68.7367 251.049 68.7367 252.099C68.7367 253.148 68.9554 254.084 69.3927 254.907C69.8476 255.729 70.4598 256.367 71.2295 256.822C72.0167 257.259 72.9002 257.478 73.8798 257.478ZM86.468 247.9C86.9053 246.973 87.5526 246.274 88.4098 245.801C89.2844 245.329 90.3603 245.093 91.6373 245.093V246.903L91.1912 246.877C89.7393 246.877 88.6022 247.323 87.78 248.215C86.9578 249.108 86.5467 250.358 86.5467 251.968V259H84.6837V245.198H86.468V247.9ZM95.0106 245.198H96.8736V259H95.0106V245.198ZM95.9552 242.18C95.5704 242.18 95.2467 242.049 94.9843 241.787C94.7219 241.524 94.5907 241.209 94.5907 240.842C94.5907 240.492 94.7219 240.186 94.9843 239.924C95.2467 239.661 95.5704 239.53 95.9552 239.53C96.3401 239.53 96.6637 239.661 96.9261 239.924C97.1885 240.168 97.3197 240.466 97.3197 240.816C97.3197 241.201 97.1885 241.524 96.9261 241.787C96.6637 242.049 96.3401 242.18 95.9552 242.18ZM119.271 245.093C121.003 245.093 122.358 245.591 123.338 246.588C124.335 247.586 124.834 249.055 124.834 250.997V259H122.971V251.18C122.971 249.746 122.621 248.653 121.921 247.9C121.239 247.148 120.268 246.772 119.008 246.772C117.574 246.772 116.446 247.218 115.624 248.11C114.801 248.985 114.39 250.201 114.39 251.758V259H112.527V251.18C112.527 249.746 112.177 248.653 111.478 247.9C110.795 247.148 109.816 246.772 108.539 246.772C107.122 246.772 105.993 247.218 105.154 248.11C104.332 248.985 103.92 250.201 103.92 251.758V259H102.057V245.198H103.842V247.717C104.332 246.877 105.014 246.23 105.888 245.775C106.763 245.32 107.769 245.093 108.906 245.093C110.061 245.093 111.058 245.338 111.897 245.828C112.755 246.317 113.393 247.043 113.813 248.005C114.32 247.096 115.046 246.387 115.991 245.88C116.953 245.355 118.046 245.093 119.271 245.093ZM134.714 245.093C136.516 245.093 137.898 245.548 138.86 246.457C139.822 247.349 140.303 248.679 140.303 250.446V259H138.519V256.848C138.099 257.566 137.478 258.125 136.656 258.528C135.851 258.93 134.889 259.131 133.77 259.131C132.23 259.131 131.006 258.764 130.096 258.029C129.186 257.294 128.732 256.324 128.732 255.116C128.732 253.944 129.151 253 129.991 252.283C130.848 251.565 132.204 251.207 134.058 251.207H138.44V250.367C138.44 249.177 138.108 248.277 137.443 247.664C136.779 247.035 135.808 246.72 134.531 246.72C133.656 246.72 132.816 246.868 132.012 247.166C131.207 247.446 130.516 247.839 129.939 248.347L129.099 246.956C129.799 246.361 130.638 245.906 131.618 245.591C132.598 245.259 133.63 245.093 134.714 245.093ZM134.058 257.662C135.108 257.662 136.009 257.426 136.761 256.953C137.513 256.463 138.073 255.764 138.44 254.854V252.597H134.111C131.749 252.597 130.568 253.42 130.568 255.064C130.568 255.869 130.875 256.507 131.487 256.98C132.099 257.434 132.956 257.662 134.058 257.662ZM147.148 247.9C147.585 246.973 148.233 246.274 149.09 245.801C149.964 245.329 151.04 245.093 152.317 245.093V246.903L151.871 246.877C150.419 246.877 149.282 247.323 148.46 248.215C147.638 249.108 147.227 250.358 147.227 251.968V259H145.364V245.198H147.148V247.9ZM167.878 245.198L160.977 260.653C160.417 261.948 159.77 262.866 159.035 263.408C158.3 263.951 157.417 264.222 156.385 264.222C155.72 264.222 155.099 264.117 154.522 263.907C153.945 263.697 153.446 263.382 153.026 262.962L153.892 261.572C154.592 262.271 155.432 262.621 156.411 262.621C157.041 262.621 157.574 262.446 158.012 262.096C158.467 261.746 158.886 261.152 159.271 260.312L159.875 258.974L153.708 245.198H155.65L160.846 256.927L166.041 245.198H167.878ZM177.369 239.53H179.232V259H177.369V239.53ZM184.416 245.198H186.279V259H184.416V245.198ZM185.361 242.18C184.976 242.18 184.652 242.049 184.39 241.787C184.128 241.524 183.996 241.209 183.996 240.842C183.996 240.492 184.128 240.186 184.39 239.924C184.652 239.661 184.976 239.53 185.361 239.53C185.746 239.53 186.069 239.661 186.332 239.924C186.594 240.168 186.725 240.466 186.725 240.816C186.725 241.201 186.594 241.524 186.332 241.787C186.069 242.049 185.746 242.18 185.361 242.18ZM204.242 245.198V257.321C204.242 259.665 203.665 261.397 202.51 262.516C201.373 263.653 199.65 264.222 197.341 264.222C196.064 264.222 194.848 264.029 193.693 263.644C192.556 263.277 191.629 262.761 190.912 262.096L191.857 260.679C192.521 261.274 193.326 261.738 194.271 262.07C195.233 262.402 196.239 262.569 197.288 262.569C199.038 262.569 200.323 262.158 201.146 261.335C201.968 260.531 202.379 259.271 202.379 257.557V255.799C201.802 256.673 201.041 257.338 200.096 257.793C199.169 258.248 198.137 258.475 197 258.475C195.705 258.475 194.524 258.195 193.457 257.636C192.408 257.058 191.577 256.262 190.965 255.248C190.37 254.216 190.072 253.052 190.072 251.758C190.072 250.463 190.37 249.309 190.965 248.294C191.577 247.279 192.408 246.492 193.457 245.932C194.507 245.373 195.688 245.093 197 245.093C198.172 245.093 199.23 245.329 200.175 245.801C201.119 246.274 201.88 246.956 202.458 247.848V245.198H204.242ZM197.183 256.822C198.181 256.822 199.081 256.612 199.886 256.192C200.691 255.755 201.312 255.151 201.749 254.382C202.204 253.612 202.431 252.737 202.431 251.758C202.431 250.778 202.204 249.912 201.749 249.16C201.312 248.39 200.691 247.796 199.886 247.376C199.099 246.938 198.198 246.72 197.183 246.72C196.186 246.72 195.285 246.93 194.481 247.349C193.693 247.769 193.072 248.364 192.618 249.134C192.18 249.903 191.962 250.778 191.962 251.758C191.962 252.737 192.18 253.612 192.618 254.382C193.072 255.151 193.693 255.755 194.481 256.192C195.285 256.612 196.186 256.822 197.183 256.822ZM216.484 245.093C218.216 245.093 219.589 245.6 220.604 246.615C221.636 247.612 222.152 249.073 222.152 250.997V259H220.289V251.18C220.289 249.746 219.93 248.653 219.213 247.9C218.496 247.148 217.473 246.772 216.143 246.772C214.656 246.772 213.475 247.218 212.601 248.11C211.743 248.985 211.315 250.201 211.315 251.758V259H209.452V239.53H211.315V247.612C211.822 246.807 212.522 246.186 213.414 245.749C214.306 245.311 215.33 245.093 216.484 245.093ZM234.478 258.16C234.129 258.475 233.691 258.72 233.166 258.895C232.659 259.052 232.126 259.131 231.566 259.131C230.271 259.131 229.274 258.781 228.574 258.082C227.875 257.382 227.525 256.393 227.525 255.116V246.772H225.058V245.198H227.525V242.18H229.388V245.198H233.586V246.772H229.388V255.012C229.388 255.834 229.589 256.463 229.991 256.901C230.411 257.321 231.006 257.531 231.776 257.531C232.161 257.531 232.528 257.469 232.878 257.347C233.245 257.224 233.56 257.049 233.822 256.822L234.478 258.16ZM249.401 252.676H237.855C237.96 254.111 238.511 255.274 239.509 256.166C240.506 257.041 241.765 257.478 243.287 257.478C244.144 257.478 244.931 257.329 245.649 257.032C246.366 256.717 246.987 256.262 247.512 255.668L248.561 256.875C247.949 257.609 247.179 258.169 246.252 258.554C245.343 258.939 244.337 259.131 243.235 259.131C241.818 259.131 240.558 258.834 239.456 258.239C238.371 257.627 237.523 256.787 236.911 255.72C236.298 254.653 235.992 253.446 235.992 252.099C235.992 250.752 236.281 249.545 236.858 248.478C237.453 247.411 238.258 246.58 239.272 245.985C240.304 245.39 241.459 245.093 242.736 245.093C244.013 245.093 245.159 245.39 246.173 245.985C247.188 246.58 247.984 247.411 248.561 248.478C249.139 249.527 249.427 250.734 249.427 252.099L249.401 252.676ZM242.736 246.693C241.407 246.693 240.287 247.122 239.377 247.979C238.485 248.819 237.978 249.921 237.855 251.285H247.643C247.52 249.921 247.004 248.819 246.095 247.979C245.203 247.122 244.083 246.693 242.736 246.693ZM260.252 245.093C261.983 245.093 263.357 245.6 264.371 246.615C265.403 247.612 265.919 249.073 265.919 250.997V259H264.056V251.18C264.056 249.746 263.698 248.653 262.981 247.9C262.263 247.148 261.24 246.772 259.911 246.772C258.424 246.772 257.243 247.218 256.368 248.11C255.511 248.985 255.082 250.201 255.082 251.758V259H253.219V245.198H255.004V247.743C255.511 246.903 256.211 246.256 257.103 245.801C258.013 245.329 259.062 245.093 260.252 245.093ZM269.954 251.076H276.829V252.702H269.954V251.076ZM285.496 248.504C287.42 248.609 288.881 249.134 289.878 250.078C290.893 251.006 291.4 252.221 291.4 253.726C291.4 254.775 291.147 255.711 290.639 256.533C290.132 257.338 289.38 257.977 288.383 258.449C287.385 258.921 286.17 259.157 284.735 259.157C283.406 259.157 282.146 258.948 280.957 258.528C279.785 258.09 278.84 257.513 278.123 256.796L279.041 255.3C279.653 255.93 280.467 256.446 281.481 256.848C282.496 257.233 283.581 257.426 284.735 257.426C286.24 257.426 287.403 257.102 288.225 256.455C289.047 255.79 289.458 254.88 289.458 253.726C289.458 252.589 289.047 251.697 288.225 251.049C287.403 250.402 286.161 250.078 284.499 250.078H283.187V248.688L288.278 242.311H278.884V240.632H290.692V241.97L285.496 248.504Z" fill="#121212"/>
<path d="M72.8838 145.093C74.1783 145.093 75.3504 145.39 76.4 145.985C77.4496 146.562 78.2717 147.384 78.8665 148.452C79.4613 149.519 79.7587 150.734 79.7587 152.099C79.7587 153.481 79.4613 154.705 78.8665 155.772C78.2717 156.84 77.4496 157.671 76.4 158.265C75.3678 158.843 74.1958 159.131 72.8838 159.131C71.7642 159.131 70.7496 158.904 69.84 158.449C68.9478 157.977 68.2131 157.294 67.6358 156.402V164.091H65.7728V145.198H67.5571V147.927C68.1169 147.017 68.8516 146.317 69.7612 145.828C70.6884 145.338 71.7292 145.093 72.8838 145.093ZM72.7526 157.478C73.7147 157.478 74.5894 157.259 75.3766 156.822C76.1638 156.367 76.7761 155.729 77.2134 154.907C77.6682 154.084 77.8956 153.148 77.8956 152.099C77.8956 151.049 77.6682 150.122 77.2134 149.317C76.7761 148.495 76.1638 147.857 75.3766 147.402C74.5894 146.947 73.7147 146.72 72.7526 146.72C71.773 146.72 70.8896 146.947 70.1024 147.402C69.3326 147.857 68.7204 148.495 68.2656 149.317C67.8282 150.122 67.6096 151.049 67.6096 152.099C67.6096 153.148 67.8282 154.084 68.2656 154.907C68.7204 155.729 69.3326 156.367 70.1024 156.822C70.8896 157.259 71.773 157.478 72.7526 157.478ZM85.3408 147.9C85.7782 146.973 86.4254 146.274 87.2826 145.801C88.1573 145.329 89.2331 145.093 90.5101 145.093V146.903L90.064 146.877C88.6121 146.877 87.475 147.323 86.6528 148.215C85.8306 149.108 85.4195 150.358 85.4195 151.968V159H83.5565V145.198H85.3408V147.9ZM93.8834 145.198H95.7464V159H93.8834V145.198ZM94.828 142.18C94.4432 142.18 94.1195 142.049 93.8571 141.787C93.5947 141.524 93.4635 141.209 93.4635 140.842C93.4635 140.492 93.5947 140.186 93.8571 139.924C94.1195 139.661 94.4432 139.53 94.828 139.53C95.2129 139.53 95.5365 139.661 95.7989 139.924C96.0613 140.168 96.1925 140.466 96.1925 140.816C96.1925 141.201 96.0613 141.524 95.7989 141.787C95.5365 142.049 95.2129 142.18 94.828 142.18ZM118.144 145.093C119.876 145.093 121.231 145.591 122.211 146.588C123.208 147.586 123.707 149.055 123.707 150.997V159H121.844V151.18C121.844 149.746 121.494 148.653 120.794 147.9C120.112 147.148 119.141 146.772 117.881 146.772C116.447 146.772 115.319 147.218 114.496 148.11C113.674 148.985 113.263 150.201 113.263 151.758V159H111.4V151.18C111.4 149.746 111.05 148.653 110.35 147.9C109.668 147.148 108.689 146.772 107.412 146.772C105.995 146.772 104.866 147.218 104.027 148.11C103.204 148.985 102.793 150.201 102.793 151.758V159H100.93V145.198H102.715V147.717C103.204 146.877 103.887 146.23 104.761 145.775C105.636 145.32 106.642 145.093 107.779 145.093C108.933 145.093 109.931 145.338 110.77 145.828C111.627 146.317 112.266 147.043 112.686 148.005C113.193 147.096 113.919 146.387 114.864 145.88C115.826 145.355 116.919 145.093 118.144 145.093ZM133.587 145.093C135.389 145.093 136.771 145.548 137.733 146.457C138.695 147.349 139.176 148.679 139.176 150.446V159H137.392V156.848C136.972 157.566 136.351 158.125 135.529 158.528C134.724 158.93 133.762 159.131 132.643 159.131C131.103 159.131 129.879 158.764 128.969 158.029C128.059 157.294 127.604 156.324 127.604 155.116C127.604 153.944 128.024 153 128.864 152.283C129.721 151.565 131.077 151.207 132.931 151.207H137.313V150.367C137.313 149.177 136.981 148.277 136.316 147.664C135.651 147.035 134.681 146.72 133.403 146.72C132.529 146.72 131.689 146.868 130.884 147.166C130.08 147.446 129.389 147.839 128.811 148.347L127.972 146.956C128.672 146.361 129.511 145.906 130.491 145.591C131.47 145.259 132.503 145.093 133.587 145.093ZM132.931 157.662C133.981 157.662 134.882 157.426 135.634 156.953C136.386 156.463 136.946 155.764 137.313 154.854V152.597H132.984C130.622 152.597 129.441 153.42 129.441 155.064C129.441 155.869 129.747 156.507 130.36 156.98C130.972 157.434 131.829 157.662 132.931 157.662ZM146.021 147.9C146.458 146.973 147.105 146.274 147.963 145.801C148.837 145.329 149.913 145.093 151.19 145.093V146.903L150.744 146.877C149.292 146.877 148.155 147.323 147.333 148.215C146.511 149.108 146.1 150.358 146.1 151.968V159H144.237V145.198H146.021V147.9ZM166.751 145.198L159.85 160.653C159.29 161.948 158.643 162.866 157.908 163.408C157.173 163.951 156.29 164.222 155.258 164.222C154.593 164.222 153.972 164.117 153.395 163.907C152.817 163.697 152.319 163.382 151.899 162.962L152.765 161.572C153.465 162.271 154.304 162.621 155.284 162.621C155.914 162.621 156.447 162.446 156.885 162.096C157.339 161.746 157.759 161.152 158.144 160.312L158.748 158.974L152.581 145.198H154.523L159.719 156.927L164.914 145.198H166.751ZM176.242 139.53H178.105V159H176.242V139.53ZM183.289 145.198H185.152V159H183.289V145.198ZM184.234 142.18C183.849 142.18 183.525 142.049 183.263 141.787C183 141.524 182.869 141.209 182.869 140.842C182.869 140.492 183 140.186 183.263 139.924C183.525 139.661 183.849 139.53 184.234 139.53C184.618 139.53 184.942 139.661 185.205 139.924C185.467 140.168 185.598 140.466 185.598 140.816C185.598 141.201 185.467 141.524 185.205 141.787C184.942 142.049 184.618 142.18 184.234 142.18ZM203.115 145.198V157.321C203.115 159.665 202.537 161.397 201.383 162.516C200.246 163.653 198.523 164.222 196.214 164.222C194.937 164.222 193.721 164.029 192.566 163.644C191.429 163.277 190.502 162.761 189.785 162.096L190.729 160.679C191.394 161.274 192.199 161.738 193.144 162.07C194.106 162.402 195.112 162.569 196.161 162.569C197.91 162.569 199.196 162.158 200.018 161.335C200.841 160.531 201.252 159.271 201.252 157.557V155.799C200.674 156.673 199.913 157.338 198.969 157.793C198.042 158.248 197.01 158.475 195.873 158.475C194.578 158.475 193.397 158.195 192.33 157.636C191.281 157.058 190.45 156.262 189.837 155.248C189.243 154.216 188.945 153.052 188.945 151.758C188.945 150.463 189.243 149.309 189.837 148.294C190.45 147.279 191.281 146.492 192.33 145.932C193.38 145.373 194.561 145.093 195.873 145.093C197.045 145.093 198.103 145.329 199.048 145.801C199.992 146.274 200.753 146.956 201.33 147.848V145.198H203.115ZM196.056 156.822C197.053 156.822 197.954 156.612 198.759 156.192C199.564 155.755 200.185 155.151 200.622 154.382C201.077 153.612 201.304 152.737 201.304 151.758C201.304 150.778 201.077 149.912 200.622 149.16C200.185 148.39 199.564 147.796 198.759 147.376C197.972 146.938 197.071 146.72 196.056 146.72C195.059 146.72 194.158 146.93 193.353 147.349C192.566 147.769 191.945 148.364 191.49 149.134C191.053 149.903 190.834 150.778 190.834 151.758C190.834 152.737 191.053 153.612 191.49 154.382C191.945 155.151 192.566 155.755 193.353 156.192C194.158 156.612 195.059 156.822 196.056 156.822ZM215.357 145.093C217.089 145.093 218.462 145.6 219.477 146.615C220.509 147.612 221.025 149.073 221.025 150.997V159H219.162V151.18C219.162 149.746 218.803 148.653 218.086 147.9C217.369 147.148 216.345 146.772 215.016 146.772C213.529 146.772 212.348 147.218 211.473 148.11C210.616 148.985 210.188 150.201 210.188 151.758V159H208.325V139.53H210.188V147.612C210.695 146.807 211.395 146.186 212.287 145.749C213.179 145.311 214.202 145.093 215.357 145.093ZM233.351 158.16C233.001 158.475 232.564 158.72 232.039 158.895C231.532 159.052 230.998 159.131 230.439 159.131C229.144 159.131 228.147 158.781 227.447 158.082C226.747 157.382 226.398 156.393 226.398 155.116V146.772H223.931V145.198H226.398V142.18H228.261V145.198H232.459V146.772H228.261V155.012C228.261 155.834 228.462 156.463 228.864 156.901C229.284 157.321 229.879 157.531 230.649 157.531C231.033 157.531 231.401 157.469 231.751 157.347C232.118 157.224 232.433 157.049 232.695 156.822L233.351 158.16ZM248.274 152.676H236.728C236.833 154.111 237.384 155.274 238.381 156.166C239.378 157.041 240.638 157.478 242.16 157.478C243.017 157.478 243.804 157.329 244.521 157.032C245.239 156.717 245.86 156.262 246.385 155.668L247.434 156.875C246.822 157.609 246.052 158.169 245.125 158.554C244.215 158.939 243.209 159.131 242.107 159.131C240.69 159.131 239.431 158.834 238.329 158.239C237.244 157.627 236.396 156.787 235.784 155.72C235.171 154.653 234.865 153.446 234.865 152.099C234.865 150.752 235.154 149.545 235.731 148.478C236.326 147.411 237.131 146.58 238.145 145.985C239.177 145.39 240.332 145.093 241.609 145.093C242.886 145.093 244.032 145.39 245.046 145.985C246.061 146.58 246.857 147.411 247.434 148.478C248.011 149.527 248.3 150.734 248.3 152.099L248.274 152.676ZM241.609 146.693C240.279 146.693 239.16 147.122 238.25 147.979C237.358 148.819 236.851 149.921 236.728 151.285H246.516C246.393 149.921 245.877 148.819 244.968 147.979C244.075 147.122 242.956 146.693 241.609 146.693ZM259.124 145.093C260.856 145.093 262.23 145.6 263.244 146.615C264.276 147.612 264.792 149.073 264.792 150.997V159H262.929V151.18C262.929 149.746 262.571 148.653 261.853 147.9C261.136 147.148 260.113 146.772 258.783 146.772C257.296 146.772 256.116 147.218 255.241 148.11C254.384 148.985 253.955 150.201 253.955 151.758V159H252.092V145.198H253.876V147.743C254.384 146.903 255.084 146.256 255.976 145.801C256.885 145.329 257.935 145.093 259.124 145.093ZM268.827 151.076H275.702V152.702H268.827V151.076ZM294.454 154.172H290.781V159H288.891V154.172H278.526V152.807L288.262 140.632H290.361L280.967 152.492H288.944V148.242H290.781V152.492H294.454V154.172Z" fill="#121212"/>
<path d="M74.7291 45.0928C76.0236 45.0928 77.1957 45.3902 78.2453 45.985C79.2949 46.5622 80.1171 47.3844 80.7118 48.4515C81.3066 49.5186 81.604 50.7344 81.604 52.0989C81.604 53.4809 81.3066 54.7054 80.7118 55.7725C80.1171 56.8396 79.2949 57.6705 78.2453 58.2653C77.2132 58.8426 76.0411 59.1312 74.7291 59.1312C73.6095 59.1312 72.5949 58.9038 71.6853 58.449C70.7931 57.9766 70.0584 57.2944 69.4811 56.4022V64.0906H67.6181V45.1978H69.4024V47.9267C69.9622 47.0171 70.6969 46.3173 71.6065 45.8275C72.5337 45.3377 73.5745 45.0928 74.7291 45.0928ZM74.5979 57.4781C75.56 57.4781 76.4347 57.2594 77.2219 56.8221C78.0091 56.3673 78.6214 55.7287 79.0587 54.9066C79.5135 54.0844 79.741 53.1485 79.741 52.0989C79.741 51.0493 79.5135 50.1221 79.0587 49.3174C78.6214 48.4953 78.0091 47.8567 77.2219 47.4019C76.4347 46.9471 75.56 46.7197 74.5979 46.7197C73.6183 46.7197 72.7349 46.9471 71.9477 47.4019C71.178 47.8567 70.5657 48.4953 70.1109 49.3174C69.6735 50.1221 69.4549 51.0493 69.4549 52.0989C69.4549 53.1485 69.6735 54.0844 70.1109 54.9066C70.5657 55.7287 71.178 56.3673 71.9477 56.8221C72.7349 57.2594 73.6183 57.4781 74.5979 57.4781ZM87.1861 47.9005C87.6235 46.9733 88.2707 46.2736 89.1279 45.8013C90.0026 45.329 91.0784 45.0928 92.3554 45.0928V46.9034L91.9093 46.8771C90.4574 46.8771 89.3203 47.3232 88.4981 48.2154C87.676 49.1075 87.2649 50.3583 87.2649 51.9677V59H85.4018V45.1978H87.1861V47.9005ZM95.7287 45.1978H97.5917V59H95.7287V45.1978ZM96.6733 42.1802C96.2885 42.1802 95.9649 42.049 95.7025 41.7866C95.4401 41.5242 95.3089 41.2093 95.3089 40.8419C95.3089 40.4921 95.4401 40.1859 95.7025 39.9235C95.9649 39.6611 96.2885 39.5299 96.6733 39.5299C97.0582 39.5299 97.3818 39.6611 97.6442 39.9235C97.9066 40.1684 98.0378 40.4658 98.0378 40.8157C98.0378 41.2005 97.9066 41.5242 97.6442 41.7866C97.3818 42.049 97.0582 42.1802 96.6733 42.1802ZM119.989 45.0928C121.721 45.0928 123.077 45.5914 124.056 46.5885C125.053 47.5856 125.552 49.055 125.552 50.9968V59H123.689V51.1805C123.689 49.746 123.339 48.6527 122.639 47.9005C121.957 47.1483 120.986 46.7722 119.727 46.7722C118.292 46.7722 117.164 47.2182 116.342 48.1104C115.519 48.9851 115.108 50.2009 115.108 51.7578V59H113.245V51.1805C113.245 49.746 112.895 48.6527 112.196 47.9005C111.513 47.1483 110.534 46.7722 109.257 46.7722C107.84 46.7722 106.712 47.2182 105.872 48.1104C105.05 48.9851 104.639 50.2009 104.639 51.7578V59H102.776V45.1978H104.56V47.7168C105.05 46.8771 105.732 46.2299 106.607 45.775C107.481 45.3202 108.487 45.0928 109.624 45.0928C110.779 45.0928 111.776 45.3377 112.616 45.8275C113.473 46.3173 114.111 47.0433 114.531 48.0054C115.038 47.0958 115.764 46.3873 116.709 45.88C117.671 45.3552 118.764 45.0928 119.989 45.0928ZM135.432 45.0928C137.234 45.0928 138.616 45.5476 139.578 46.4573C140.541 47.3494 141.022 48.6789 141.022 50.4458V59H139.237V56.8483C138.817 57.5655 138.196 58.1253 137.374 58.5277C136.57 58.93 135.607 59.1312 134.488 59.1312C132.948 59.1312 131.724 58.7638 130.814 58.0291C129.905 57.2944 129.45 56.3235 129.45 55.1165C129.45 53.9444 129.87 52.9998 130.709 52.2826C131.566 51.5653 132.922 51.2067 134.776 51.2067H139.159V50.367C139.159 49.1775 138.826 48.2766 138.161 47.6643C137.497 47.0346 136.526 46.7197 135.249 46.7197C134.374 46.7197 133.534 46.8684 132.73 47.1658C131.925 47.4457 131.234 47.8393 130.657 48.3466L129.817 46.9558C130.517 46.3611 131.357 45.9062 132.336 45.5914C133.316 45.259 134.348 45.0928 135.432 45.0928ZM134.776 57.6618C135.826 57.6618 136.727 57.4256 137.479 56.9533C138.231 56.4635 138.791 55.7637 139.159 54.8541V52.5974H134.829C132.467 52.5974 131.287 53.4196 131.287 55.064C131.287 55.8687 131.593 56.5072 132.205 56.9795C132.817 57.4343 133.674 57.6618 134.776 57.6618ZM147.866 47.9005C148.303 46.9733 148.951 46.2736 149.808 45.8013C150.683 45.329 151.758 45.0928 153.035 45.0928V46.9034L152.589 46.8771C151.137 46.8771 150 47.3232 149.178 48.2154C148.356 49.1075 147.945 50.3583 147.945 51.9677V59H146.082V45.1978H147.866V47.9005ZM168.596 45.1978L161.695 60.6531C161.135 61.9476 160.488 62.866 159.753 63.4083C159.019 63.9506 158.135 64.2218 157.103 64.2218C156.438 64.2218 155.817 64.1168 155.24 63.9069C154.663 63.697 154.164 63.3821 153.744 62.9622L154.61 61.5715C155.31 62.2713 156.15 62.6211 157.129 62.6211C157.759 62.6211 158.293 62.4462 158.73 62.0963C159.185 61.7465 159.605 61.1517 159.989 60.312L160.593 58.9738L154.427 45.1978H156.368L161.564 56.927L166.759 45.1978H168.596ZM178.087 39.5299H179.95V59H178.087V39.5299ZM185.134 45.1978H186.997V59H185.134V45.1978ZM186.079 42.1802C185.694 42.1802 185.37 42.049 185.108 41.7866C184.846 41.5242 184.714 41.2093 184.714 40.8419C184.714 40.4921 184.846 40.1859 185.108 39.9235C185.37 39.6611 185.694 39.5299 186.079 39.5299C186.464 39.5299 186.787 39.6611 187.05 39.9235C187.312 40.1684 187.443 40.4658 187.443 40.8157C187.443 41.2005 187.312 41.5242 187.05 41.7866C186.787 42.049 186.464 42.1802 186.079 42.1802ZM204.96 45.1978V57.3206C204.96 59.6647 204.383 61.3966 203.228 62.5162C202.091 63.6532 200.368 64.2218 198.059 64.2218C196.782 64.2218 195.566 64.0293 194.412 63.6445C193.275 63.2771 192.347 62.7611 191.63 62.0963L192.575 60.6794C193.24 61.2741 194.044 61.7377 194.989 62.0701C195.951 62.4025 196.957 62.5686 198.006 62.5686C199.756 62.5686 201.042 62.1575 201.864 61.3354C202.686 60.5307 203.097 59.2711 203.097 57.5568V55.7987C202.52 56.6734 201.759 57.3381 200.814 57.793C199.887 58.2478 198.855 58.4752 197.718 58.4752C196.423 58.4752 195.243 58.1953 194.175 57.6355C193.126 57.0582 192.295 56.2623 191.683 55.2477C191.088 54.2156 190.79 53.0523 190.79 51.7578C190.79 50.4633 191.088 49.3087 191.683 48.2941C192.295 47.2795 193.126 46.4923 194.175 45.9325C195.225 45.3727 196.406 45.0928 197.718 45.0928C198.89 45.0928 199.948 45.329 200.893 45.8013C201.838 46.2736 202.598 46.9558 203.176 47.848V45.1978H204.96ZM197.902 56.8221C198.899 56.8221 199.8 56.6122 200.604 56.1923C201.409 55.755 202.03 55.1515 202.467 54.3818C202.922 53.6121 203.15 52.7374 203.15 51.7578C203.15 50.7781 202.922 49.9122 202.467 49.16C202.03 48.3903 201.409 47.7955 200.604 47.3757C199.817 46.9383 198.916 46.7197 197.902 46.7197C196.904 46.7197 196.003 46.9296 195.199 47.3494C194.412 47.7693 193.791 48.3641 193.336 49.1338C192.898 49.9035 192.68 50.7781 192.68 51.7578C192.68 52.7374 192.898 53.6121 193.336 54.3818C193.791 55.1515 194.412 55.755 195.199 56.1923C196.003 56.6122 196.904 56.8221 197.902 56.8221ZM217.202 45.0928C218.934 45.0928 220.307 45.6001 221.322 46.6147C222.354 47.6118 222.87 49.0725 222.87 50.9968V59H221.007V51.1805C221.007 49.746 220.648 48.6527 219.931 47.9005C219.214 47.1483 218.191 46.7722 216.861 46.7722C215.374 46.7722 214.193 47.2182 213.319 48.1104C212.462 48.9851 212.033 50.2009 212.033 51.7578V59H210.17V39.5299H212.033V47.6118C212.54 46.8071 213.24 46.1861 214.132 45.7488C215.024 45.3115 216.048 45.0928 217.202 45.0928ZM235.197 58.1603C234.847 58.4752 234.409 58.7201 233.885 58.895C233.377 59.0525 232.844 59.1312 232.284 59.1312C230.989 59.1312 229.992 58.7813 229.293 58.0816C228.593 57.3819 228.243 56.3935 228.243 55.1165V46.7722H225.776V45.1978H228.243V42.1802H230.106V45.1978H234.304V46.7722H230.106V55.0115C230.106 55.8337 230.307 56.4635 230.71 56.9008C231.129 57.3206 231.724 57.5306 232.494 57.5306C232.879 57.5306 233.246 57.4693 233.596 57.3469C233.963 57.2244 234.278 57.0495 234.541 56.8221L235.197 58.1603ZM250.119 52.6762H238.574C238.678 54.1106 239.23 55.2739 240.227 56.1661C241.224 57.0407 242.483 57.4781 244.005 57.4781C244.862 57.4781 245.65 57.3294 246.367 57.032C247.084 56.7171 247.705 56.2623 248.23 55.6675L249.279 56.8746C248.667 57.6093 247.897 58.1691 246.97 58.5539C246.061 58.9388 245.055 59.1312 243.953 59.1312C242.536 59.1312 241.276 58.8338 240.174 58.239C239.09 57.6268 238.241 56.7871 237.629 55.72C237.017 54.6529 236.71 53.4459 236.71 52.0989C236.71 50.7519 236.999 49.5449 237.576 48.4778C238.171 47.4107 238.976 46.5797 239.99 45.985C241.023 45.3902 242.177 45.0928 243.454 45.0928C244.731 45.0928 245.877 45.3902 246.892 45.985C247.906 46.5797 248.702 47.4107 249.279 48.4778C249.857 49.5274 250.145 50.7344 250.145 52.0989L250.119 52.6762ZM243.454 46.6934C242.125 46.6934 241.005 47.122 240.095 47.9792C239.203 48.8189 238.696 49.921 238.574 51.2854H248.361C248.239 49.921 247.723 48.8189 246.813 47.9792C245.921 47.122 244.801 46.6934 243.454 46.6934ZM260.97 45.0928C262.702 45.0928 264.075 45.6001 265.089 46.6147C266.122 47.6118 266.638 49.0725 266.638 50.9968V59H264.775V51.1805C264.775 49.746 264.416 48.6527 263.699 47.9005C262.982 47.1483 261.958 46.7722 260.629 46.7722C259.142 46.7722 257.961 47.2182 257.086 48.1104C256.229 48.9851 255.8 50.2009 255.8 51.7578V59H253.937V45.1978H255.722V47.743C256.229 46.9034 256.929 46.2561 257.821 45.8013C258.731 45.329 259.78 45.0928 260.97 45.0928ZM270.672 51.0755H277.547V52.7024H270.672V51.0755ZM285.31 48.1629C287.969 48.1629 289.902 48.6439 291.109 49.6061C292.333 50.5507 292.946 51.8802 292.946 53.5946C292.946 54.6617 292.692 55.615 292.185 56.4547C291.695 57.2944 290.951 57.9591 289.954 58.449C288.957 58.9213 287.733 59.1574 286.281 59.1574C284.969 59.1574 283.718 58.9475 282.528 58.5277C281.356 58.0903 280.412 57.5131 279.694 56.7958L280.613 55.3002C281.225 55.9299 282.03 56.446 283.027 56.8483C284.024 57.2332 285.1 57.4256 286.254 57.4256C287.776 57.4256 288.948 57.0845 289.771 56.4022C290.61 55.72 291.03 54.8103 291.03 53.6733C291.03 52.4138 290.558 51.4604 289.613 50.8131C288.686 50.1659 287.112 49.8422 284.89 49.8422H280.98L281.925 40.632H291.975V42.3114H283.578L282.948 48.1629H285.31Z" fill="#121212"/>
</g>
<defs>
<clipPath id="clip0">
<rect width="360" height="1000" fill="white"/>
</clipPath>
</defs>
</svg>
