<svg width="360" height="1000" viewBox="0 0 360 1000" fill="none" xmlns="http://www.w3.org/2000/svg">
<g clip-path="url(#clip0)">
<rect x="0.000244141" y="100" width="100" height="360" transform="rotate(-90 0.000244141 100)" fill="#E1E4F0"/>
<rect x="0.000244141" y="200" width="100" height="360" transform="rotate(-90 0.000244141 200)" fill="#C5CCE6"/>
<rect x="0.000244141" y="300" width="100" height="360" transform="rotate(-90 0.000244141 300)" fill="#ABB6DB"/>
<rect x="0.000244141" y="400" width="100" height="360" transform="rotate(-90 0.000244141 400)" fill="#92A0D1"/>
<rect x="0.000244141" y="500" width="100" height="360" transform="rotate(-90 0.000244141 500)" fill="#3E56B0"/>
<rect x="0.000244141" y="600" width="100" height="360" transform="rotate(-90 0.000244141 600)" fill="#2C46A5"/>
<path d="M34.4748 532.128H19.5513V572H23.7663V559.412H34.4748C44.6137 559.412 50.7653 554.285 50.7653 545.798C50.7653 537.254 44.6137 532.128 34.4748 532.128ZM34.3609 555.709H23.7663V535.773H34.3609C42.3353 535.773 46.5503 539.419 46.5503 545.798C46.5503 552.064 42.3353 555.709 34.3609 555.709Z" fill="#FDFBF9" fill-opacity="0.6"/>
<rect y="700" width="100" height="360" transform="rotate(-90 0 700)" fill="#1C3799"/>
<rect x="0.000305176" y="800" width="100" height="360" transform="rotate(-90 0.000305176 800)" fill="#0F2987"/>
<path d="M30.9648 770.342C41.1607 770.342 45.8314 765.329 45.8314 759.462C45.8314 744.938 21.2816 751.545 21.2816 740.609C21.2816 736.621 24.5284 733.375 31.8192 733.375C35.3508 733.375 39.338 734.457 42.7556 736.678L44.1796 733.318C40.9898 731.096 36.3191 729.786 31.8192 729.786C21.6804 729.786 17.1236 734.856 17.1236 740.723C17.1236 755.475 41.6733 748.754 41.6733 759.69C41.6733 763.62 38.4266 766.753 30.9648 766.753C25.7245 766.753 20.6551 764.703 17.8071 761.912L16.1552 765.158C19.1172 768.234 24.984 770.342 30.9648 770.342Z" fill="#FDFBF9" fill-opacity="0.6"/>
<rect x="0.000244141" y="900" width="100" height="360" transform="rotate(-90 0.000244141 900)" fill="#061E75"/>
<rect x="0.997498" y="1000" width="100" height="360" transform="rotate(-90 0.997498 1000)" fill="#001666"/>
<path d="M56.6979 959.131C60.2928 959.131 62.392 957.583 62.392 955.195C62.392 949.895 53.4442 952.702 53.4442 948.976C53.4442 947.664 54.5462 946.693 57.039 946.693C58.456 946.693 59.8992 947.035 61.1062 947.874L61.9197 946.379C60.7651 945.591 58.8234 945.093 57.039 945.093C53.5229 945.093 51.5811 946.772 51.5811 949.029C51.5811 954.487 60.529 951.653 60.529 955.248C60.529 956.612 59.4531 957.504 56.8291 957.504C54.8874 957.504 53.0243 956.822 51.9222 955.956L51.0826 957.426C52.2109 958.396 54.415 959.131 56.6979 959.131ZM77.8804 952.099C77.8804 947.953 75.0727 945.093 71.1892 945.093C67.3056 945.093 64.4455 948.005 64.4455 952.099C64.4455 956.192 67.3844 959.131 71.6877 959.131C73.8656 959.131 75.7812 958.344 77.0144 956.875L75.9648 955.668C74.9152 956.875 73.4196 957.478 71.7402 957.478C68.7226 957.478 66.5184 955.563 66.3085 952.676H77.8541C77.8541 952.466 77.8804 952.256 77.8804 952.099ZM71.1892 946.693C73.8919 946.693 75.8599 948.583 76.096 951.285H66.3085C66.5447 948.583 68.5127 946.693 71.1892 946.693ZM87.3928 959.131C89.7281 959.131 91.6961 958.187 92.7982 956.402L91.4075 955.458C90.4629 956.848 88.9934 957.478 87.3928 957.478C84.3752 957.478 82.171 955.353 82.171 952.099C82.171 948.871 84.3752 946.72 87.3928 946.72C88.9934 946.72 90.4629 947.376 91.4075 948.766L92.7982 947.822C91.6961 946.011 89.7281 945.093 87.3928 945.093C83.2731 945.093 80.2817 947.979 80.2817 952.099C80.2817 956.219 83.2731 959.131 87.3928 959.131ZM101.869 959.131C105.91 959.131 108.875 956.192 108.875 952.099C108.875 948.005 105.91 945.093 101.869 945.093C97.8281 945.093 94.8367 948.005 94.8367 952.099C94.8367 956.192 97.8281 959.131 101.869 959.131ZM101.869 957.478C98.9302 957.478 96.726 955.326 96.726 952.099C96.726 948.871 98.9302 946.72 101.869 946.72C104.808 946.72 106.986 948.871 106.986 952.099C106.986 955.326 104.808 957.478 101.869 957.478ZM119.711 945.093C117.323 945.093 115.46 946.064 114.463 947.743V945.198H112.679V959H114.542V951.758C114.542 948.609 116.405 946.772 119.37 946.772C121.994 946.772 123.516 948.268 123.516 951.18V959H125.379V950.997C125.379 947.035 123.07 945.093 119.711 945.093ZM141.22 939.53V947.822C140.066 946.037 138.176 945.093 135.972 945.093C132.036 945.093 129.097 947.927 129.097 952.099C129.097 956.271 132.036 959.131 135.972 959.131C138.255 959.131 140.171 958.134 141.299 956.271V959H143.083V939.53H141.22ZM136.13 957.478C133.191 957.478 130.987 955.326 130.987 952.099C130.987 948.871 133.191 946.72 136.13 946.72C139.042 946.72 141.246 948.871 141.246 952.099C141.246 955.326 139.042 957.478 136.13 957.478ZM153.1 945.093C150.922 945.093 148.875 945.775 147.485 946.956L148.324 948.347C149.453 947.349 151.132 946.72 152.916 946.72C155.488 946.72 156.826 948.005 156.826 950.367V951.207H152.444C148.482 951.207 147.117 952.991 147.117 955.116C147.117 957.504 149.033 959.131 152.155 959.131C154.438 959.131 156.065 958.265 156.905 956.848V959H158.689V950.446C158.689 946.877 156.669 945.093 153.1 945.093ZM152.444 957.662C150.24 957.662 148.954 956.665 148.954 955.064C148.954 953.647 149.82 952.597 152.496 952.597H156.826V954.854C156.091 956.665 154.543 957.662 152.444 957.662ZM165.534 947.9V945.198H163.749V959H165.612V951.968C165.612 948.714 167.37 946.877 170.257 946.877C170.388 946.877 170.545 946.903 170.703 946.903V945.093C168.158 945.093 166.4 946.064 165.534 947.9ZM184.427 945.198L179.231 956.927L174.036 945.198H172.094L178.26 958.974L177.657 960.312C176.87 962.044 176.03 962.621 174.797 962.621C173.8 962.621 172.96 962.254 172.278 961.572L171.412 962.962C172.251 963.802 173.485 964.222 174.771 964.222C176.739 964.222 178.208 963.356 179.363 960.653L186.264 945.198H184.427ZM206.487 939.53V947.822C205.333 946.037 203.443 945.093 201.239 945.093C197.303 945.093 194.364 947.927 194.364 952.099C194.364 956.271 197.303 959.131 201.239 959.131C203.522 959.131 205.438 958.134 206.566 956.271V959H208.35V939.53H206.487ZM201.397 957.478C198.458 957.478 196.254 955.326 196.254 952.099C196.254 948.871 198.458 946.72 201.397 946.72C204.309 946.72 206.513 948.871 206.513 952.099C206.513 955.326 204.309 957.478 201.397 957.478ZM218.367 945.093C216.189 945.093 214.142 945.775 212.752 946.956L213.591 948.347C214.72 947.349 216.399 946.72 218.183 946.72C220.755 946.72 222.093 948.005 222.093 950.367V951.207H217.711C213.749 951.207 212.384 952.991 212.384 955.116C212.384 957.504 214.3 959.131 217.422 959.131C219.705 959.131 221.332 958.265 222.172 956.848V959H223.956V950.446C223.956 946.877 221.936 945.093 218.367 945.093ZM217.711 957.662C215.507 957.662 214.221 956.665 214.221 955.064C214.221 953.647 215.087 952.597 217.763 952.597H222.093V954.854C221.358 956.665 219.81 957.662 217.711 957.662ZM230.801 947.9V945.198H229.016V959H230.879V951.968C230.879 948.714 232.637 946.877 235.524 946.877C235.655 946.877 235.812 946.903 235.97 946.903V945.093C233.425 945.093 231.666 946.064 230.801 947.9ZM250.023 959H252.306L245.851 950.839L251.755 945.198H249.445L241.206 952.729V939.53H239.343V959H241.206V955.064L244.46 952.073L250.023 959ZM266.583 952.099C266.583 947.953 263.775 945.093 259.892 945.093C256.008 945.093 253.148 948.005 253.148 952.099C253.148 956.192 256.087 959.131 260.39 959.131C262.568 959.131 264.484 958.344 265.717 956.875L264.667 955.668C263.618 956.875 262.122 957.478 260.443 957.478C257.425 957.478 255.221 955.563 255.011 952.676H266.557C266.557 952.466 266.583 952.256 266.583 952.099ZM259.892 946.693C262.594 946.693 264.562 948.583 264.799 951.285H255.011C255.247 948.583 257.215 946.693 259.892 946.693ZM272.159 947.9V945.198H270.375V959H272.238V951.968C272.238 948.714 273.996 946.877 276.882 946.877C277.014 946.877 277.171 946.903 277.329 946.903V945.093C274.783 945.093 273.025 946.064 272.159 947.9ZM279.602 952.702H286.476V951.076H279.602V952.702ZM305.229 952.492H301.555V948.242H299.718V952.492H291.741L301.135 940.632H299.036L289.301 952.807V954.172H299.666V959H301.555V954.172H305.229V952.492Z" fill="#FDFBF9"/>
<path d="M58.3251 859.131C61.92 859.131 64.0192 857.583 64.0192 855.195C64.0192 849.895 55.0713 852.702 55.0713 848.976C55.0713 847.664 56.1734 846.693 58.6662 846.693C60.0832 846.693 61.5264 847.035 62.7334 847.874L63.5469 846.379C62.3923 845.591 60.4505 845.093 58.6662 845.093C55.1501 845.093 53.2083 846.772 53.2083 849.029C53.2083 854.487 62.1561 851.653 62.1561 855.248C62.1561 856.612 61.0803 857.504 58.4563 857.504C56.5145 857.504 54.6515 856.822 53.5494 855.956L52.7097 857.426C53.8381 858.396 56.0422 859.131 58.3251 859.131ZM79.5075 852.099C79.5075 847.953 76.6999 845.093 72.8163 845.093C68.9328 845.093 66.0727 848.005 66.0727 852.099C66.0727 856.192 69.0115 859.131 73.3149 859.131C75.4928 859.131 77.4083 858.344 78.6416 856.875L77.592 855.668C76.5424 856.875 75.0467 857.478 73.3674 857.478C70.3498 857.478 68.1456 855.563 67.9357 852.676H79.4813C79.4813 852.466 79.5075 852.256 79.5075 852.099ZM72.8163 846.693C75.5191 846.693 77.4871 848.583 77.7232 851.285H67.9357C68.1719 848.583 70.1399 846.693 72.8163 846.693ZM89.02 859.131C91.3553 859.131 93.3233 858.187 94.4254 856.402L93.0347 855.458C92.09 856.848 90.6206 857.478 89.02 857.478C86.0024 857.478 83.7982 855.353 83.7982 852.099C83.7982 848.871 86.0024 846.72 89.02 846.72C90.6206 846.72 92.09 847.376 93.0347 848.766L94.4254 847.822C93.3233 846.011 91.3553 845.093 89.02 845.093C84.9003 845.093 81.9089 847.979 81.9089 852.099C81.9089 856.219 84.9003 859.131 89.02 859.131ZM103.496 859.131C107.537 859.131 110.502 856.192 110.502 852.099C110.502 848.005 107.537 845.093 103.496 845.093C99.4553 845.093 96.4639 848.005 96.4639 852.099C96.4639 856.192 99.4553 859.131 103.496 859.131ZM103.496 857.478C100.557 857.478 98.3532 855.326 98.3532 852.099C98.3532 848.871 100.557 846.72 103.496 846.72C106.435 846.72 108.613 848.871 108.613 852.099C108.613 855.326 106.435 857.478 103.496 857.478ZM121.338 845.093C118.95 845.093 117.087 846.064 116.09 847.743V845.198H114.306V859H116.169V851.758C116.169 848.609 118.032 846.772 120.997 846.772C123.621 846.772 125.143 848.268 125.143 851.18V859H127.006V850.997C127.006 847.035 124.697 845.093 121.338 845.093ZM142.847 839.53V847.822C141.693 846.037 139.804 845.093 137.599 845.093C133.663 845.093 130.725 847.927 130.725 852.099C130.725 856.271 133.663 859.131 137.599 859.131C139.882 859.131 141.798 858.134 142.926 856.271V859H144.71V839.53H142.847ZM137.757 857.478C134.818 857.478 132.614 855.326 132.614 852.099C132.614 848.871 134.818 846.72 137.757 846.72C140.67 846.72 142.874 848.871 142.874 852.099C142.874 855.326 140.67 857.478 137.757 857.478ZM154.727 845.093C152.549 845.093 150.503 845.775 149.112 846.956L149.951 848.347C151.08 847.349 152.759 846.72 154.543 846.72C157.115 846.72 158.453 848.005 158.453 850.367V851.207H154.071C150.109 851.207 148.744 852.991 148.744 855.116C148.744 857.504 150.66 859.131 153.783 859.131C156.065 859.131 157.692 858.265 158.532 856.848V859H160.316V850.446C160.316 846.877 158.296 845.093 154.727 845.093ZM154.071 857.662C151.867 857.662 150.581 856.665 150.581 855.064C150.581 853.647 151.447 852.597 154.124 852.597H158.453V854.854C157.719 856.665 156.17 857.662 154.071 857.662ZM167.161 847.9V845.198H165.377V859H167.24V851.968C167.24 848.714 168.998 846.877 171.884 846.877C172.015 846.877 172.173 846.903 172.33 846.903V845.093C169.785 845.093 168.027 846.064 167.161 847.9ZM186.054 845.198L180.859 856.927L175.663 845.198H173.721L179.888 858.974L179.284 860.312C178.497 862.044 177.657 862.621 176.424 862.621C175.427 862.621 174.587 862.254 173.905 861.572L173.039 862.962C173.879 863.802 175.112 864.222 176.398 864.222C178.366 864.222 179.835 863.356 180.99 860.653L187.891 845.198H186.054ZM208.114 839.53V847.822C206.96 846.037 205.07 845.093 202.866 845.093C198.93 845.093 195.991 847.927 195.991 852.099C195.991 856.271 198.93 859.131 202.866 859.131C205.149 859.131 207.065 858.134 208.193 856.271V859H209.977V839.53H208.114ZM203.024 857.478C200.085 857.478 197.881 855.326 197.881 852.099C197.881 848.871 200.085 846.72 203.024 846.72C205.936 846.72 208.141 848.871 208.141 852.099C208.141 855.326 205.936 857.478 203.024 857.478ZM219.994 845.093C217.816 845.093 215.769 845.775 214.379 846.956L215.218 848.347C216.347 847.349 218.026 846.72 219.81 846.72C222.382 846.72 223.72 848.005 223.72 850.367V851.207H219.338C215.376 851.207 214.011 852.991 214.011 855.116C214.011 857.504 215.927 859.131 219.049 859.131C221.332 859.131 222.959 858.265 223.799 856.848V859H225.583V850.446C225.583 846.877 223.563 845.093 219.994 845.093ZM219.338 857.662C217.134 857.662 215.848 856.665 215.848 855.064C215.848 853.647 216.714 852.597 219.391 852.597H223.72V854.854C222.985 856.665 221.437 857.662 219.338 857.662ZM232.428 847.9V845.198H230.643V859H232.506V851.968C232.506 848.714 234.265 846.877 237.151 846.877C237.282 846.877 237.44 846.903 237.597 846.903V845.093C235.052 845.093 233.294 846.064 232.428 847.9ZM251.65 859H253.933L247.478 850.839L253.382 845.198H251.073L242.833 852.729V839.53H240.97V859H242.833V855.064L246.087 852.073L251.65 859ZM268.21 852.099C268.21 847.953 265.402 845.093 261.519 845.093C257.635 845.093 254.775 848.005 254.775 852.099C254.775 856.192 257.714 859.131 262.017 859.131C264.195 859.131 266.111 858.344 267.344 856.875L266.295 855.668C265.245 856.875 263.749 857.478 262.07 857.478C259.052 857.478 256.848 855.563 256.638 852.676H268.184C268.184 852.466 268.21 852.256 268.21 852.099ZM261.519 846.693C264.222 846.693 266.19 848.583 266.426 851.285H256.638C256.874 848.583 258.842 846.693 261.519 846.693ZM273.786 847.9V845.198H272.002V859H273.865V851.968C273.865 848.714 275.623 846.877 278.51 846.877C278.641 846.877 278.798 846.903 278.956 846.903V845.093C276.41 845.093 274.652 846.064 273.786 847.9ZM281.229 852.702H288.104V851.076H281.229V852.702ZM296.771 848.504L301.966 841.97V840.632H290.158V842.311H299.552L294.462 848.688V850.078H295.774C299.185 850.078 300.733 851.522 300.733 853.726C300.733 856.009 299.054 857.426 296.01 857.426C293.622 857.426 291.497 856.533 290.316 855.3L289.397 856.796C290.814 858.239 293.36 859.157 296.01 859.157C300.444 859.157 302.675 856.796 302.675 853.726C302.675 850.787 300.707 848.714 296.771 848.504Z" fill="#FDFBF9"/>
<path d="M96.8013 743.131C100.396 743.131 102.495 741.583 102.495 739.195C102.495 733.895 93.5476 736.702 93.5476 732.976C93.5476 731.664 94.6497 730.693 97.1425 730.693C98.5594 730.693 100.003 731.035 101.21 731.874L102.023 730.379C100.869 729.591 98.9268 729.093 97.1425 729.093C93.6263 729.093 91.6845 730.772 91.6845 733.029C91.6845 738.487 100.632 735.653 100.632 739.248C100.632 740.612 99.5565 741.504 96.9325 741.504C94.9908 741.504 93.1277 740.822 92.0257 739.956L91.186 741.426C92.3143 742.396 94.5185 743.131 96.8013 743.131ZM117.984 736.099C117.984 731.953 115.176 729.093 111.293 729.093C107.409 729.093 104.549 732.005 104.549 736.099C104.549 740.192 107.488 743.131 111.791 743.131C113.969 743.131 115.885 742.344 117.118 740.875L116.068 739.668C115.019 740.875 113.523 741.478 111.844 741.478C108.826 741.478 106.622 739.563 106.412 736.676H117.958C117.958 736.466 117.984 736.256 117.984 736.099ZM111.293 730.693C113.995 730.693 115.963 732.583 116.199 735.285H106.412C106.648 732.583 108.616 730.693 111.293 730.693ZM127.496 743.131C129.832 743.131 131.8 742.187 132.902 740.402L131.511 739.458C130.566 740.848 129.097 741.478 127.496 741.478C124.479 741.478 122.274 739.353 122.274 736.099C122.274 732.871 124.479 730.72 127.496 730.72C129.097 730.72 130.566 731.376 131.511 732.766L132.902 731.822C131.8 730.011 129.832 729.093 127.496 729.093C123.377 729.093 120.385 731.979 120.385 736.099C120.385 740.219 123.377 743.131 127.496 743.131ZM141.972 743.131C146.013 743.131 148.979 740.192 148.979 736.099C148.979 732.005 146.013 729.093 141.972 729.093C137.932 729.093 134.94 732.005 134.94 736.099C134.94 740.192 137.932 743.131 141.972 743.131ZM141.972 741.478C139.034 741.478 136.829 739.326 136.829 736.099C136.829 732.871 139.034 730.72 141.972 730.72C144.911 730.72 147.089 732.871 147.089 736.099C147.089 739.326 144.911 741.478 141.972 741.478ZM159.814 729.093C157.427 729.093 155.564 730.064 154.566 731.743V729.198H152.782V743H154.645V735.758C154.645 732.609 156.508 730.772 159.473 730.772C162.097 730.772 163.619 732.268 163.619 735.18V743H165.482V734.997C165.482 731.035 163.173 729.093 159.814 729.093ZM181.324 723.53V731.822C180.169 730.037 178.28 729.093 176.076 729.093C172.14 729.093 169.201 731.927 169.201 736.099C169.201 740.271 172.14 743.131 176.076 743.131C178.359 743.131 180.274 742.134 181.402 740.271V743H183.187V723.53H181.324ZM176.233 741.478C173.294 741.478 171.09 739.326 171.09 736.099C171.09 732.871 173.294 730.72 176.233 730.72C179.146 730.72 181.35 732.871 181.35 736.099C181.35 739.326 179.146 741.478 176.233 741.478ZM193.203 729.093C191.025 729.093 188.979 729.775 187.588 730.956L188.428 732.347C189.556 731.349 191.235 730.72 193.02 730.72C195.591 730.72 196.929 732.005 196.929 734.367V735.207H192.547C188.585 735.207 187.221 736.991 187.221 739.116C187.221 741.504 189.136 743.131 192.259 743.131C194.542 743.131 196.169 742.265 197.008 740.848V743H198.793V734.446C198.793 730.877 196.772 729.093 193.203 729.093ZM192.547 741.662C190.343 741.662 189.057 740.665 189.057 739.064C189.057 737.647 189.923 736.597 192.6 736.597H196.929V738.854C196.195 740.665 194.647 741.662 192.547 741.662ZM205.637 731.9V729.198H203.853V743H205.716V735.968C205.716 732.714 207.474 730.877 210.36 730.877C210.491 730.877 210.649 730.903 210.806 730.903V729.093C208.261 729.093 206.503 730.064 205.637 731.9ZM224.53 729.198L219.335 740.927L214.139 729.198H212.197L218.364 742.974L217.76 744.312C216.973 746.044 216.133 746.621 214.9 746.621C213.903 746.621 213.063 746.254 212.381 745.572L211.515 746.962C212.355 747.802 213.588 748.222 214.874 748.222C216.842 748.222 218.311 747.356 219.466 744.653L226.367 729.198H224.53ZM240.687 729.093C238.509 729.093 236.462 729.775 235.071 730.956L235.911 732.347C237.039 731.349 238.719 730.72 240.503 730.72C243.074 730.72 244.413 732.005 244.413 734.367V735.207H240.031C236.068 735.207 234.704 736.991 234.704 739.116C234.704 741.504 236.619 743.131 239.742 743.131C242.025 743.131 243.652 742.265 244.491 740.848V743H246.276V734.446C246.276 730.877 244.255 729.093 240.687 729.093ZM240.031 741.662C237.826 741.662 236.541 740.665 236.541 739.064C236.541 737.647 237.407 736.597 240.083 736.597H244.413V738.854C243.678 740.665 242.13 741.662 240.031 741.662ZM251.336 743H253.199V723.53H251.336V743ZM265.046 740.822C264.522 741.294 263.761 741.531 263 741.531C261.452 741.531 260.612 740.638 260.612 739.012V730.772H264.81V729.198H260.612V726.18H258.749V729.198H256.282V730.772H258.749V739.116C258.749 741.662 260.192 743.131 262.79 743.131C263.866 743.131 264.968 742.816 265.702 742.16L265.046 740.822ZM58.6713 775.131C62.2662 775.131 64.3654 773.583 64.3654 771.195C64.3654 765.895 55.4176 768.702 55.4176 764.976C55.4176 763.664 56.5197 762.693 59.0125 762.693C60.4294 762.693 61.8726 763.035 63.0797 763.874L63.8931 762.379C62.7385 761.591 60.7968 761.093 59.0125 761.093C55.4963 761.093 53.5545 762.772 53.5545 765.029C53.5545 770.487 62.5024 767.653 62.5024 771.248C62.5024 772.612 61.4265 773.504 58.8025 773.504C56.8608 773.504 54.9977 772.822 53.8957 771.956L53.056 773.426C54.1843 774.396 56.3885 775.131 58.6713 775.131ZM79.8538 768.099C79.8538 763.953 77.0461 761.093 73.1626 761.093C69.2791 761.093 66.4189 764.005 66.4189 768.099C66.4189 772.192 69.3578 775.131 73.6612 775.131C75.8391 775.131 77.7546 774.344 78.9879 772.875L77.9383 771.668C76.8887 772.875 75.393 773.478 73.7136 773.478C70.696 773.478 68.4919 771.563 68.282 768.676H79.8276C79.8276 768.466 79.8538 768.256 79.8538 768.099ZM73.1626 762.693C75.8653 762.693 77.8333 764.583 78.0695 767.285H68.282C68.5181 764.583 70.4861 762.693 73.1626 762.693ZM89.3662 775.131C91.7016 775.131 93.6696 774.187 94.7716 772.402L93.3809 771.458C92.4363 772.848 90.9668 773.478 89.3662 773.478C86.3486 773.478 84.1444 771.353 84.1444 768.099C84.1444 764.871 86.3486 762.72 89.3662 762.72C90.9668 762.72 92.4363 763.376 93.3809 764.766L94.7716 763.822C93.6696 762.011 91.7016 761.093 89.3662 761.093C85.2465 761.093 82.2552 763.979 82.2552 768.099C82.2552 772.219 85.2465 775.131 89.3662 775.131ZM103.842 775.131C107.883 775.131 110.849 772.192 110.849 768.099C110.849 764.005 107.883 761.093 103.842 761.093C99.8015 761.093 96.8102 764.005 96.8102 768.099C96.8102 772.192 99.8015 775.131 103.842 775.131ZM103.842 773.478C100.904 773.478 98.6994 771.326 98.6994 768.099C98.6994 764.871 100.904 762.72 103.842 762.72C106.781 762.72 108.959 764.871 108.959 768.099C108.959 771.326 106.781 773.478 103.842 773.478ZM121.684 761.093C119.297 761.093 117.434 762.064 116.436 763.743V761.198H114.652V775H116.515V767.758C116.515 764.609 118.378 762.772 121.343 762.772C123.967 762.772 125.489 764.268 125.489 767.18V775H127.352V766.997C127.352 763.035 125.043 761.093 121.684 761.093ZM143.194 755.53V763.822C142.039 762.037 140.15 761.093 137.946 761.093C134.01 761.093 131.071 763.927 131.071 768.099C131.071 772.271 134.01 775.131 137.946 775.131C140.229 775.131 142.144 774.134 143.272 772.271V775H145.057V755.53H143.194ZM138.103 773.478C135.164 773.478 132.96 771.326 132.96 768.099C132.96 764.871 135.164 762.72 138.103 762.72C141.016 762.72 143.22 764.871 143.22 768.099C143.22 771.326 141.016 773.478 138.103 773.478ZM155.073 761.093C152.895 761.093 150.849 761.775 149.458 762.956L150.298 764.347C151.426 763.349 153.105 762.72 154.89 762.72C157.461 762.72 158.799 764.005 158.799 766.367V767.207H154.417C150.455 767.207 149.091 768.991 149.091 771.116C149.091 773.504 151.006 775.131 154.129 775.131C156.412 775.131 158.039 774.265 158.878 772.848V775H160.663V766.446C160.663 762.877 158.642 761.093 155.073 761.093ZM154.417 773.662C152.213 773.662 150.927 772.665 150.927 771.064C150.927 769.647 151.793 768.597 154.47 768.597H158.799V770.854C158.065 772.665 156.517 773.662 154.417 773.662ZM167.507 763.9V761.198H165.723V775H167.586V767.968C167.586 764.714 169.344 762.877 172.23 762.877C172.361 762.877 172.519 762.903 172.676 762.903V761.093C170.131 761.093 168.373 762.064 167.507 763.9ZM186.4 761.198L181.205 772.927L176.009 761.198H174.067L180.234 774.974L179.63 776.312C178.843 778.044 178.003 778.621 176.77 778.621C175.773 778.621 174.933 778.254 174.251 777.572L173.385 778.962C174.225 779.802 175.458 780.222 176.744 780.222C178.712 780.222 180.181 779.356 181.336 776.653L188.237 761.198H186.4ZM208.461 755.53V763.822C207.306 762.037 205.417 761.093 203.213 761.093C199.277 761.093 196.338 763.927 196.338 768.099C196.338 772.271 199.277 775.131 203.213 775.131C205.495 775.131 207.411 774.134 208.539 772.271V775H210.324V755.53H208.461ZM203.37 773.478C200.431 773.478 198.227 771.326 198.227 768.099C198.227 764.871 200.431 762.72 203.37 762.72C206.283 762.72 208.487 764.871 208.487 768.099C208.487 771.326 206.283 773.478 203.37 773.478ZM220.34 761.093C218.162 761.093 216.116 761.775 214.725 762.956L215.565 764.347C216.693 763.349 218.372 762.72 220.157 762.72C222.728 762.72 224.066 764.005 224.066 766.367V767.207H219.684C215.722 767.207 214.358 768.991 214.358 771.116C214.358 773.504 216.273 775.131 219.396 775.131C221.679 775.131 223.305 774.265 224.145 772.848V775H225.929V766.446C225.929 762.877 223.909 761.093 220.34 761.093ZM219.684 773.662C217.48 773.662 216.194 772.665 216.194 771.064C216.194 769.647 217.06 768.597 219.737 768.597H224.066V770.854C223.332 772.665 221.784 773.662 219.684 773.662ZM232.774 763.9V761.198H230.99V775H232.853V767.968C232.853 764.714 234.611 762.877 237.497 762.877C237.628 762.877 237.786 762.903 237.943 762.903V761.093C235.398 761.093 233.64 762.064 232.774 763.9ZM251.996 775H254.279L247.824 766.839L253.728 761.198H251.419L243.18 768.729V755.53H241.317V775H243.18V771.064L246.433 768.073L251.996 775ZM268.556 768.099C268.556 763.953 265.749 761.093 261.865 761.093C257.982 761.093 255.121 764.005 255.121 768.099C255.121 772.192 258.06 775.131 262.364 775.131C264.542 775.131 266.457 774.344 267.69 772.875L266.641 771.668C265.591 772.875 264.096 773.478 262.416 773.478C259.399 773.478 257.194 771.563 256.984 768.676H268.53C268.53 768.466 268.556 768.256 268.556 768.099ZM261.865 762.693C264.568 762.693 266.536 764.583 266.772 767.285H256.984C257.221 764.583 259.189 762.693 261.865 762.693ZM274.133 763.9V761.198H272.348V775H274.211V767.968C274.211 764.714 275.97 762.877 278.856 762.877C278.987 762.877 279.145 762.903 279.302 762.903V761.093C276.757 761.093 274.999 762.064 274.133 763.9ZM281.575 768.702H288.45V767.076H281.575V768.702ZM293.517 773.321L299.762 767.18C302.229 764.766 302.78 763.192 302.78 761.434C302.78 758.364 300.418 756.475 296.692 756.475C293.885 756.475 291.602 757.419 290.185 759.099L291.523 760.253C292.73 758.862 294.383 758.206 296.535 758.206C299.343 758.206 300.838 759.518 300.838 761.644C300.838 762.903 300.445 764.137 298.372 766.183L290.736 773.662V775H303.62V773.321H293.517Z" fill="#FDFBF9"/>
<path d="M61.4517 659.131C65.0465 659.131 67.1457 657.583 67.1457 655.195C67.1457 649.895 58.1979 652.702 58.1979 648.976C58.1979 647.664 59.3 646.693 61.7928 646.693C63.2097 646.693 64.6529 647.035 65.86 647.874L66.6734 646.379C65.5189 645.591 63.5771 645.093 61.7928 645.093C58.2766 645.093 56.3349 646.772 56.3349 649.029C56.3349 654.487 65.2827 651.653 65.2827 655.248C65.2827 656.612 64.2069 657.504 61.5829 657.504C59.6411 657.504 57.7781 656.822 56.676 655.956L55.8363 657.426C56.9646 658.396 59.1688 659.131 61.4517 659.131ZM82.6341 652.099C82.6341 647.953 79.8264 645.093 75.9429 645.093C72.0594 645.093 69.1992 648.005 69.1992 652.099C69.1992 656.192 72.1381 659.131 76.4415 659.131C78.6194 659.131 80.5349 658.344 81.7682 656.875L80.7186 655.668C79.669 656.875 78.1733 657.478 76.4939 657.478C73.4763 657.478 71.2722 655.563 71.0623 652.676H82.6079C82.6079 652.466 82.6341 652.256 82.6341 652.099ZM75.9429 646.693C78.6456 646.693 80.6136 648.583 80.8498 651.285H71.0623C71.2984 648.583 73.2664 646.693 75.9429 646.693ZM92.1465 659.131C94.4819 659.131 96.4499 658.187 97.552 656.402L96.1612 655.458C95.2166 656.848 93.7472 657.478 92.1465 657.478C89.1289 657.478 86.9248 655.353 86.9248 652.099C86.9248 648.871 89.1289 646.72 92.1465 646.72C93.7472 646.72 95.2166 647.376 96.1612 648.766L97.552 647.822C96.4499 646.011 94.4819 645.093 92.1465 645.093C88.0268 645.093 85.0355 647.979 85.0355 652.099C85.0355 656.219 88.0268 659.131 92.1465 659.131ZM106.623 659.131C110.664 659.131 113.629 656.192 113.629 652.099C113.629 648.005 110.664 645.093 106.623 645.093C102.582 645.093 99.5905 648.005 99.5905 652.099C99.5905 656.192 102.582 659.131 106.623 659.131ZM106.623 657.478C103.684 657.478 101.48 655.326 101.48 652.099C101.48 648.871 103.684 646.72 106.623 646.72C109.562 646.72 111.74 648.871 111.74 652.099C111.74 655.326 109.562 657.478 106.623 657.478ZM124.465 645.093C122.077 645.093 120.214 646.064 119.217 647.743V645.198H117.432V659H119.295V651.758C119.295 648.609 121.159 646.772 124.124 646.772C126.748 646.772 128.27 648.268 128.27 651.18V659H130.133V650.997C130.133 647.035 127.823 645.093 124.465 645.093ZM145.974 639.53V647.822C144.819 646.037 142.93 645.093 140.726 645.093C136.79 645.093 133.851 647.927 133.851 652.099C133.851 656.271 136.79 659.131 140.726 659.131C143.009 659.131 144.924 658.134 146.053 656.271V659H147.837V639.53H145.974ZM140.883 657.478C137.945 657.478 135.74 655.326 135.74 652.099C135.74 648.871 137.945 646.72 140.883 646.72C143.796 646.72 146 648.871 146 652.099C146 655.326 143.796 657.478 140.883 657.478ZM157.854 645.093C155.676 645.093 153.629 645.775 152.238 646.956L153.078 648.347C154.206 647.349 155.886 646.72 157.67 646.72C160.242 646.72 161.58 648.005 161.58 650.367V651.207H157.198C153.235 651.207 151.871 652.991 151.871 655.116C151.871 657.504 153.787 659.131 156.909 659.131C159.192 659.131 160.819 658.265 161.659 656.848V659H163.443V650.446C163.443 646.877 161.422 645.093 157.854 645.093ZM157.198 657.662C154.994 657.662 153.708 656.665 153.708 655.064C153.708 653.647 154.574 652.597 157.25 652.597H161.58V654.854C160.845 656.665 159.297 657.662 157.198 657.662ZM170.287 647.9V645.198H168.503V659H170.366V651.968C170.366 648.714 172.124 646.877 175.011 646.877C175.142 646.877 175.299 646.903 175.457 646.903V645.093C172.911 645.093 171.153 646.064 170.287 647.9ZM189.181 645.198L183.985 656.927L178.79 645.198H176.848L183.014 658.974L182.411 660.312C181.623 662.044 180.784 662.621 179.551 662.621C178.553 662.621 177.714 662.254 177.031 661.572L176.166 662.962C177.005 663.802 178.239 664.222 179.524 664.222C181.492 664.222 182.962 663.356 184.116 660.653L191.017 645.198H189.181ZM211.241 639.53V647.822C210.086 646.037 208.197 645.093 205.993 645.093C202.057 645.093 199.118 647.927 199.118 652.099C199.118 656.271 202.057 659.131 205.993 659.131C208.276 659.131 210.191 658.134 211.32 656.271V659H213.104V639.53H211.241ZM206.15 657.478C203.211 657.478 201.007 655.326 201.007 652.099C201.007 648.871 203.211 646.72 206.15 646.72C209.063 646.72 211.267 648.871 211.267 652.099C211.267 655.326 209.063 657.478 206.15 657.478ZM223.121 645.093C220.943 645.093 218.896 645.775 217.505 646.956L218.345 648.347C219.473 647.349 221.153 646.72 222.937 646.72C225.508 646.72 226.847 648.005 226.847 650.367V651.207H222.465C218.502 651.207 217.138 652.991 217.138 655.116C217.138 657.504 219.053 659.131 222.176 659.131C224.459 659.131 226.086 658.265 226.925 656.848V659H228.71V650.446C228.71 646.877 226.689 645.093 223.121 645.093ZM222.465 657.662C220.26 657.662 218.975 656.665 218.975 655.064C218.975 653.647 219.841 652.597 222.517 652.597H226.847V654.854C226.112 656.665 224.564 657.662 222.465 657.662ZM235.554 647.9V645.198H233.77V659H235.633V651.968C235.633 648.714 237.391 646.877 240.277 646.877C240.409 646.877 240.566 646.903 240.724 646.903V645.093C238.178 645.093 236.42 646.064 235.554 647.9ZM254.776 659H257.059L250.604 650.839L256.508 645.198H254.199L245.96 652.729V639.53H244.097V659H245.96V655.064L249.214 652.073L254.776 659ZM271.337 652.099C271.337 647.953 268.529 645.093 264.645 645.093C260.762 645.093 257.902 648.005 257.902 652.099C257.902 656.192 260.841 659.131 265.144 659.131C267.322 659.131 269.237 658.344 270.471 656.875L269.421 655.668C268.372 656.875 266.876 657.478 265.196 657.478C262.179 657.478 259.975 655.563 259.765 652.676H271.31C271.31 652.466 271.337 652.256 271.337 652.099ZM264.645 646.693C267.348 646.693 269.316 648.583 269.552 651.285H259.765C260.001 648.583 261.969 646.693 264.645 646.693ZM276.913 647.9V645.198H275.129V659H276.992V651.968C276.992 648.714 278.75 646.877 281.636 646.877C281.767 646.877 281.925 646.903 282.082 646.903V645.093C279.537 645.093 277.779 646.064 276.913 647.9ZM284.355 652.702H291.23V651.076H284.355V652.702ZM292.601 640.632V642.311H296.93V659H298.82V640.632H292.601Z" fill="#FDFBF9"/>
<path d="M116.353 559.131C119.948 559.131 122.047 557.583 122.047 555.195C122.047 549.895 113.099 552.702 113.099 548.976C113.099 547.664 114.201 546.693 116.694 546.693C118.111 546.693 119.554 547.035 120.761 547.874L121.575 546.379C120.42 545.591 118.478 545.093 116.694 545.093C113.178 545.093 111.236 546.772 111.236 549.029C111.236 554.487 120.184 551.653 120.184 555.248C120.184 556.612 119.108 557.504 116.484 557.504C114.542 557.504 112.679 556.822 111.577 555.956L110.738 557.426C111.866 558.396 114.07 559.131 116.353 559.131ZM137.535 552.099C137.535 547.953 134.728 545.093 130.844 545.093C126.961 545.093 124.1 548.005 124.1 552.099C124.1 556.192 127.039 559.131 131.343 559.131C133.521 559.131 135.436 558.344 136.669 556.875L135.62 555.668C134.57 556.875 133.075 557.478 131.395 557.478C128.378 557.478 126.173 555.563 125.964 552.676H137.509C137.509 552.466 137.535 552.256 137.535 552.099ZM130.844 546.693C133.547 546.693 135.515 548.583 135.751 551.285H125.964C126.2 548.583 128.168 546.693 130.844 546.693ZM147.048 559.131C149.383 559.131 151.351 558.187 152.453 556.402L151.062 555.458C150.118 556.848 148.648 557.478 147.048 557.478C144.03 557.478 141.826 555.353 141.826 552.099C141.826 548.871 144.03 546.72 147.048 546.72C148.648 546.72 150.118 547.376 151.062 548.766L152.453 547.822C151.351 546.011 149.383 545.093 147.048 545.093C142.928 545.093 139.937 547.979 139.937 552.099C139.937 556.219 142.928 559.131 147.048 559.131ZM161.524 559.131C165.565 559.131 168.53 556.192 168.53 552.099C168.53 548.005 165.565 545.093 161.524 545.093C157.483 545.093 154.492 548.005 154.492 552.099C154.492 556.192 157.483 559.131 161.524 559.131ZM161.524 557.478C158.585 557.478 156.381 555.326 156.381 552.099C156.381 548.871 158.585 546.72 161.524 546.72C164.463 546.72 166.641 548.871 166.641 552.099C166.641 555.326 164.463 557.478 161.524 557.478ZM179.366 545.093C176.978 545.093 175.115 546.064 174.118 547.743V545.198H172.334V559H174.197V551.758C174.197 548.609 176.06 546.772 179.025 546.772C181.649 546.772 183.171 548.268 183.171 551.18V559H185.034V550.997C185.034 547.035 182.725 545.093 179.366 545.093ZM200.875 539.53V547.822C199.721 546.037 197.831 545.093 195.627 545.093C191.691 545.093 188.752 547.927 188.752 552.099C188.752 556.271 191.691 559.131 195.627 559.131C197.91 559.131 199.826 558.134 200.954 556.271V559H202.738V539.53H200.875ZM195.785 557.478C192.846 557.478 190.642 555.326 190.642 552.099C190.642 548.871 192.846 546.72 195.785 546.72C198.697 546.72 200.901 548.871 200.901 552.099C200.901 555.326 198.697 557.478 195.785 557.478ZM212.755 545.093C210.577 545.093 208.53 545.775 207.14 546.956L207.979 548.347C209.108 547.349 210.787 546.72 212.571 546.72C215.143 546.72 216.481 548.005 216.481 550.367V551.207H212.099C208.137 551.207 206.772 552.991 206.772 555.116C206.772 557.504 208.688 559.131 211.81 559.131C214.093 559.131 215.72 558.265 216.56 556.848V559H218.344V550.446C218.344 546.877 216.324 545.093 212.755 545.093ZM212.099 557.662C209.895 557.662 208.609 556.665 208.609 555.064C208.609 553.647 209.475 552.597 212.151 552.597H216.481V554.854C215.746 556.665 214.198 557.662 212.099 557.662ZM225.189 547.9V545.198H223.404V559H225.267V551.968C225.267 548.714 227.025 546.877 229.912 546.877C230.043 546.877 230.2 546.903 230.358 546.903V545.093C227.813 545.093 226.055 546.064 225.189 547.9ZM244.082 545.198L238.886 556.927L233.691 545.198H231.749L237.915 558.974L237.312 560.312C236.525 562.044 235.685 562.621 234.452 562.621C233.455 562.621 232.615 562.254 231.933 561.572L231.067 562.962C231.906 563.802 233.14 564.222 234.426 564.222C236.394 564.222 237.863 563.356 239.018 560.653L245.919 545.198H244.082Z" fill="#FDFBF9"/>
<path d="M56.5826 459.131C60.1775 459.131 62.2767 457.583 62.2767 455.195C62.2767 449.895 53.3288 452.702 53.3288 448.976C53.3288 447.664 54.4309 446.693 56.9237 446.693C58.3407 446.693 59.7839 447.035 60.9909 447.874L61.8044 446.379C60.6498 445.591 58.708 445.093 56.9237 445.093C53.4076 445.093 51.4658 446.772 51.4658 449.029C51.4658 454.487 60.4136 451.653 60.4136 455.248C60.4136 456.612 59.3378 457.504 56.7138 457.504C54.772 457.504 52.909 456.822 51.8069 455.956L50.9672 457.426C52.0956 458.396 54.2997 459.131 56.5826 459.131ZM77.765 452.099C77.765 447.953 74.9574 445.093 71.0738 445.093C67.1903 445.093 64.3302 448.005 64.3302 452.099C64.3302 456.192 67.269 459.131 71.5724 459.131C73.7503 459.131 75.6658 458.344 76.8991 456.875L75.8495 455.668C74.7999 456.875 73.3042 457.478 71.6249 457.478C68.6073 457.478 66.4031 455.563 66.1932 452.676H77.7388C77.7388 452.466 77.765 452.256 77.765 452.099ZM71.0738 446.693C73.7766 446.693 75.7446 448.583 75.9807 451.285H66.1932C66.4294 448.583 68.3974 446.693 71.0738 446.693ZM87.2775 459.131C89.6128 459.131 91.5808 458.187 92.6829 456.402L91.2922 455.458C90.3475 456.848 88.8781 457.478 87.2775 457.478C84.2599 457.478 82.0557 455.353 82.0557 452.099C82.0557 448.871 84.2599 446.72 87.2775 446.72C88.8781 446.72 90.3475 447.376 91.2922 448.766L92.6829 447.822C91.5808 446.011 89.6128 445.093 87.2775 445.093C83.1578 445.093 80.1664 447.979 80.1664 452.099C80.1664 456.219 83.1578 459.131 87.2775 459.131ZM101.754 459.131C105.795 459.131 108.76 456.192 108.76 452.099C108.76 448.005 105.795 445.093 101.754 445.093C97.7128 445.093 94.7214 448.005 94.7214 452.099C94.7214 456.192 97.7128 459.131 101.754 459.131ZM101.754 457.478C98.8149 457.478 96.6107 455.326 96.6107 452.099C96.6107 448.871 98.8149 446.72 101.754 446.72C104.693 446.72 106.871 448.871 106.871 452.099C106.871 455.326 104.693 457.478 101.754 457.478ZM119.596 445.093C117.208 445.093 115.345 446.064 114.348 447.743V445.198H112.563V459H114.426V451.758C114.426 448.609 116.289 446.772 119.255 446.772C121.879 446.772 123.401 448.268 123.401 451.18V459H125.264V450.997C125.264 447.035 122.954 445.093 119.596 445.093ZM141.105 439.53V447.822C139.95 446.037 138.061 445.093 135.857 445.093C131.921 445.093 128.982 447.927 128.982 452.099C128.982 456.271 131.921 459.131 135.857 459.131C138.14 459.131 140.055 458.134 141.184 456.271V459H142.968V439.53H141.105ZM136.014 457.478C133.075 457.478 130.871 455.326 130.871 452.099C130.871 448.871 133.075 446.72 136.014 446.72C138.927 446.72 141.131 448.871 141.131 452.099C141.131 455.326 138.927 457.478 136.014 457.478ZM152.985 445.093C150.807 445.093 148.76 445.775 147.369 446.956L148.209 448.347C149.337 447.349 151.017 446.72 152.801 446.72C155.373 446.72 156.711 448.005 156.711 450.367V451.207H152.329C148.366 451.207 147.002 452.991 147.002 455.116C147.002 457.504 148.917 459.131 152.04 459.131C154.323 459.131 155.95 458.265 156.789 456.848V459H158.574V450.446C158.574 446.877 156.553 445.093 152.985 445.093ZM152.329 457.662C150.125 457.662 148.839 456.665 148.839 455.064C148.839 453.647 149.705 452.597 152.381 452.597H156.711V454.854C155.976 456.665 154.428 457.662 152.329 457.662ZM165.418 447.9V445.198H163.634V459H165.497V451.968C165.497 448.714 167.255 446.877 170.142 446.877C170.273 446.877 170.43 446.903 170.588 446.903V445.093C168.042 445.093 166.284 446.064 165.418 447.9ZM184.312 445.198L179.116 456.927L173.92 445.198H171.979L178.145 458.974L177.542 460.312C176.754 462.044 175.915 462.621 174.681 462.621C173.684 462.621 172.845 462.254 172.162 461.572L171.296 462.962C172.136 463.802 173.369 464.222 174.655 464.222C176.623 464.222 178.093 463.356 179.247 460.653L186.148 445.198H184.312ZM195.64 459H197.503V439.53H195.64V459ZM203.631 442.18C204.418 442.18 204.996 441.577 204.996 440.816C204.996 440.107 204.392 439.53 203.631 439.53C202.87 439.53 202.267 440.133 202.267 440.842C202.267 441.577 202.87 442.18 203.631 442.18ZM202.687 459H204.55V445.198H202.687V459ZM220.728 445.198V447.848C219.573 446.037 217.579 445.093 215.27 445.093C211.334 445.093 208.343 447.796 208.343 451.758C208.343 455.72 211.334 458.475 215.27 458.475C217.527 458.475 219.495 457.557 220.649 455.799V457.557C220.649 460.968 219.049 462.569 215.559 462.569C213.433 462.569 211.439 461.86 210.127 460.679L209.182 462.096C210.626 463.461 213.092 464.222 215.611 464.222C220.177 464.222 222.512 462.07 222.512 457.321V445.198H220.728ZM215.454 456.822C212.41 456.822 210.232 454.749 210.232 451.758C210.232 448.766 212.41 446.72 215.454 446.72C218.498 446.72 220.702 448.766 220.702 451.758C220.702 454.749 218.498 456.822 215.454 456.822ZM234.754 445.093C232.419 445.093 230.609 446.011 229.585 447.612V439.53H227.722V459H229.585V451.758C229.585 448.609 231.448 446.772 234.413 446.772C237.037 446.772 238.559 448.268 238.559 451.18V459H240.422V450.997C240.422 447.035 238.113 445.093 234.754 445.093ZM252.093 456.822C251.568 457.294 250.807 457.531 250.046 457.531C248.498 457.531 247.658 456.638 247.658 455.012V446.772H251.857V445.198H247.658V442.18H245.795V445.198H243.329V446.772H245.795V455.116C245.795 457.662 247.238 459.131 249.836 459.131C250.912 459.131 252.014 458.816 252.749 458.16L252.093 456.822ZM267.698 452.099C267.698 447.953 264.89 445.093 261.006 445.093C257.123 445.093 254.263 448.005 254.263 452.099C254.263 456.192 257.202 459.131 261.505 459.131C263.683 459.131 265.598 458.344 266.832 456.875L265.782 455.668C264.732 456.875 263.237 457.478 261.557 457.478C258.54 457.478 256.336 455.563 256.126 452.676H267.671C267.671 452.466 267.698 452.256 267.698 452.099ZM261.006 446.693C263.709 446.693 265.677 448.583 265.913 451.285H256.126C256.362 448.583 258.33 446.693 261.006 446.693ZM278.522 445.093C276.134 445.093 274.271 446.064 273.274 447.743V445.198H271.49V459H273.353V451.758C273.353 448.609 275.216 446.772 278.181 446.772C280.805 446.772 282.327 448.268 282.327 451.18V459H284.19V450.997C284.19 447.035 281.881 445.093 278.522 445.093ZM288.224 452.702H295.099V451.076H288.224V452.702ZM296.47 440.632V442.311H300.8V459H302.689V440.632H296.47Z" fill="#FDFBF9"/>
<path d="M54.3023 359.131C57.8972 359.131 59.9964 357.583 59.9964 355.195C59.9964 349.895 51.0485 352.702 51.0485 348.976C51.0485 347.664 52.1506 346.693 54.6434 346.693C56.0604 346.693 57.5036 347.035 58.7106 347.874L59.524 346.379C58.3695 345.591 56.4277 345.093 54.6434 345.093C51.1272 345.093 49.1855 346.772 49.1855 349.029C49.1855 354.487 58.1333 351.653 58.1333 355.248C58.1333 356.612 57.0575 357.504 54.4335 357.504C52.4917 357.504 50.6287 356.822 49.5266 355.956L48.6869 357.426C49.8152 358.396 52.0194 359.131 54.3023 359.131ZM75.4847 352.099C75.4847 347.953 72.6771 345.093 68.7935 345.093C64.91 345.093 62.0498 348.005 62.0498 352.099C62.0498 356.192 64.9887 359.131 69.2921 359.131C71.47 359.131 73.3855 358.344 74.6188 356.875L73.5692 355.668C72.5196 356.875 71.0239 357.478 69.3446 357.478C66.327 357.478 64.1228 355.563 63.9129 352.676H75.4585C75.4585 352.466 75.4847 352.256 75.4847 352.099ZM68.7935 346.693C71.4963 346.693 73.4643 348.583 73.7004 351.285H63.9129C64.149 348.583 66.117 346.693 68.7935 346.693ZM84.9971 359.131C87.3325 359.131 89.3005 358.187 90.4026 356.402L89.0119 355.458C88.0672 356.848 86.5978 357.478 84.9971 357.478C81.9795 357.478 79.7754 355.353 79.7754 352.099C79.7754 348.871 81.9795 346.72 84.9971 346.72C86.5978 346.72 88.0672 347.376 89.0119 348.766L90.4026 347.822C89.3005 346.011 87.3325 345.093 84.9971 345.093C80.8775 345.093 77.8861 347.979 77.8861 352.099C77.8861 356.219 80.8775 359.131 84.9971 359.131ZM99.4734 359.131C103.514 359.131 106.48 356.192 106.48 352.099C106.48 348.005 103.514 345.093 99.4734 345.093C95.4325 345.093 92.4411 348.005 92.4411 352.099C92.4411 356.192 95.4325 359.131 99.4734 359.131ZM99.4734 357.478C96.5345 357.478 94.3304 355.326 94.3304 352.099C94.3304 348.871 96.5345 346.72 99.4734 346.72C102.412 346.72 104.59 348.871 104.59 352.099C104.59 355.326 102.412 357.478 99.4734 357.478ZM117.315 345.093C114.928 345.093 113.065 346.064 112.067 347.743V345.198H110.283V359H112.146V351.758C112.146 348.609 114.009 346.772 116.974 346.772C119.598 346.772 121.12 348.268 121.12 351.18V359H122.983V350.997C122.983 347.035 120.674 345.093 117.315 345.093ZM138.825 339.53V347.822C137.67 346.037 135.781 345.093 133.577 345.093C129.641 345.093 126.702 347.927 126.702 352.099C126.702 356.271 129.641 359.131 133.577 359.131C135.859 359.131 137.775 358.134 138.903 356.271V359H140.688V339.53H138.825ZM133.734 357.478C130.795 357.478 128.591 355.326 128.591 352.099C128.591 348.871 130.795 346.72 133.734 346.72C136.647 346.72 138.851 348.871 138.851 352.099C138.851 355.326 136.647 357.478 133.734 357.478ZM150.704 345.093C148.526 345.093 146.48 345.775 145.089 346.956L145.929 348.347C147.057 347.349 148.736 346.72 150.521 346.72C153.092 346.72 154.43 348.005 154.43 350.367V351.207H150.048C146.086 351.207 144.722 352.991 144.722 355.116C144.722 357.504 146.637 359.131 149.76 359.131C152.043 359.131 153.669 358.265 154.509 356.848V359H156.293V350.446C156.293 346.877 154.273 345.093 150.704 345.093ZM150.048 357.662C147.844 357.662 146.558 356.665 146.558 355.064C146.558 353.647 147.424 352.597 150.101 352.597H154.43V354.854C153.696 356.665 152.148 357.662 150.048 357.662ZM163.138 347.9V345.198H161.354V359H163.217V351.968C163.217 348.714 164.975 346.877 167.861 346.877C167.992 346.877 168.15 346.903 168.307 346.903V345.093C165.762 345.093 164.004 346.064 163.138 347.9ZM182.031 345.198L176.836 356.927L171.64 345.198H169.698L175.865 358.974L175.261 360.312C174.474 362.044 173.634 362.621 172.401 362.621C171.404 362.621 170.564 362.254 169.882 361.572L169.016 362.962C169.856 363.802 171.089 364.222 172.375 364.222C174.343 364.222 175.812 363.356 176.967 360.653L183.868 345.198H182.031ZM193.359 359H195.222V339.53H193.359V359ZM201.351 342.18C202.138 342.18 202.715 341.577 202.715 340.816C202.715 340.107 202.112 339.53 201.351 339.53C200.59 339.53 199.986 340.133 199.986 340.842C199.986 341.577 200.59 342.18 201.351 342.18ZM200.406 359H202.269V345.198H200.406V359ZM218.448 345.198V347.848C217.293 346.037 215.299 345.093 212.99 345.093C209.054 345.093 206.062 347.796 206.062 351.758C206.062 355.72 209.054 358.475 212.99 358.475C215.246 358.475 217.214 357.557 218.369 355.799V357.557C218.369 360.968 216.768 362.569 213.278 362.569C211.153 362.569 209.159 361.86 207.847 360.679L206.902 362.096C208.345 363.461 210.812 364.222 213.331 364.222C217.897 364.222 220.232 362.07 220.232 357.321V345.198H218.448ZM213.173 356.822C210.13 356.822 207.952 354.749 207.952 351.758C207.952 348.766 210.13 346.72 213.173 346.72C216.217 346.72 218.421 348.766 218.421 351.758C218.421 354.749 216.217 356.822 213.173 356.822ZM232.474 345.093C230.139 345.093 228.328 346.011 227.305 347.612V339.53H225.442V359H227.305V351.758C227.305 348.609 229.168 346.772 232.133 346.772C234.757 346.772 236.279 348.268 236.279 351.18V359H238.142V350.997C238.142 347.035 235.833 345.093 232.474 345.093ZM249.812 356.822C249.288 357.294 248.527 357.531 247.766 357.531C246.218 357.531 245.378 356.638 245.378 355.012V346.772H249.576V345.198H245.378V342.18H243.515V345.198H241.048V346.772H243.515V355.116C243.515 357.662 244.958 359.131 247.556 359.131C248.632 359.131 249.734 358.816 250.468 358.16L249.812 356.822ZM265.417 352.099C265.417 347.953 262.61 345.093 258.726 345.093C254.843 345.093 251.982 348.005 251.982 352.099C251.982 356.192 254.921 359.131 259.225 359.131C261.403 359.131 263.318 358.344 264.551 356.875L263.502 355.668C262.452 356.875 260.956 357.478 259.277 357.478C256.259 357.478 254.055 355.563 253.845 352.676H265.391C265.391 352.466 265.417 352.256 265.417 352.099ZM258.726 346.693C261.429 346.693 263.397 348.583 263.633 351.285H253.845C254.082 348.583 256.05 346.693 258.726 346.693ZM276.242 345.093C273.854 345.093 271.991 346.064 270.994 347.743V345.198H269.209V359H271.072V351.758C271.072 348.609 272.935 346.772 275.901 346.772C278.525 346.772 280.046 348.268 280.046 351.18V359H281.909V350.997C281.909 347.035 279.6 345.093 276.242 345.093ZM285.944 352.702H292.819V351.076H285.944V352.702ZM297.886 357.321L304.131 351.18C306.598 348.766 307.149 347.192 307.149 345.434C307.149 342.364 304.787 340.475 301.061 340.475C298.254 340.475 295.971 341.419 294.554 343.099L295.892 344.253C297.099 342.862 298.752 342.206 300.904 342.206C303.712 342.206 305.207 343.518 305.207 345.644C305.207 346.903 304.814 348.137 302.741 350.183L295.105 357.662V359H307.989V357.321H297.886Z" fill="#121212"/>
<path d="M54.456 259.131C58.0509 259.131 60.1501 257.583 60.1501 255.195C60.1501 249.895 51.2023 252.702 51.2023 248.976C51.2023 247.664 52.3044 246.693 54.7972 246.693C56.2141 246.693 57.6573 247.035 58.8644 247.874L59.6778 246.379C58.5232 245.591 56.5815 245.093 54.7972 245.093C51.281 245.093 49.3392 246.772 49.3392 249.029C49.3392 254.487 58.2871 251.653 58.2871 255.248C58.2871 256.612 57.2112 257.504 54.5872 257.504C52.6455 257.504 50.7824 256.822 49.6804 255.956L48.8407 257.426C49.969 258.396 52.1732 259.131 54.456 259.131ZM75.6385 252.099C75.6385 247.953 72.8308 245.093 68.9473 245.093C65.0638 245.093 62.2036 248.005 62.2036 252.099C62.2036 256.192 65.1425 259.131 69.4458 259.131C71.6238 259.131 73.5393 258.344 74.7726 256.875L73.723 255.668C72.6734 256.875 71.1777 257.478 69.4983 257.478C66.4807 257.478 64.2766 255.563 64.0666 252.676H75.6122C75.6122 252.466 75.6385 252.256 75.6385 252.099ZM68.9473 246.693C71.65 246.693 73.618 248.583 73.8542 251.285H64.0666C64.3028 248.583 66.2708 246.693 68.9473 246.693ZM85.1509 259.131C87.4862 259.131 89.4542 258.187 90.5563 256.402L89.1656 255.458C88.221 256.848 86.7515 257.478 85.1509 257.478C82.1333 257.478 79.9291 255.353 79.9291 252.099C79.9291 248.871 82.1333 246.72 85.1509 246.72C86.7515 246.72 88.221 247.376 89.1656 248.766L90.5563 247.822C89.4542 246.011 87.4862 245.093 85.1509 245.093C81.0312 245.093 78.0398 247.979 78.0398 252.099C78.0398 256.219 81.0312 259.131 85.1509 259.131ZM99.6272 259.131C103.668 259.131 106.633 256.192 106.633 252.099C106.633 248.005 103.668 245.093 99.6272 245.093C95.5862 245.093 92.5948 248.005 92.5948 252.099C92.5948 256.192 95.5862 259.131 99.6272 259.131ZM99.6272 257.478C96.6883 257.478 94.4841 255.326 94.4841 252.099C94.4841 248.871 96.6883 246.72 99.6272 246.72C102.566 246.72 104.744 248.871 104.744 252.099C104.744 255.326 102.566 257.478 99.6272 257.478ZM117.469 245.093C115.081 245.093 113.218 246.064 112.221 247.743V245.198H110.437V259H112.3V251.758C112.3 248.609 114.163 246.772 117.128 246.772C119.752 246.772 121.274 248.268 121.274 251.18V259H123.137V250.997C123.137 247.035 120.828 245.093 117.469 245.093ZM138.978 239.53V247.822C137.824 246.037 135.935 245.093 133.73 245.093C129.794 245.093 126.855 247.927 126.855 252.099C126.855 256.271 129.794 259.131 133.73 259.131C136.013 259.131 137.929 258.134 139.057 256.271V259H140.841V239.53H138.978ZM133.888 257.478C130.949 257.478 128.745 255.326 128.745 252.099C128.745 248.871 130.949 246.72 133.888 246.72C136.8 246.72 139.005 248.871 139.005 252.099C139.005 255.326 136.8 257.478 133.888 257.478ZM150.858 245.093C148.68 245.093 146.633 245.775 145.243 246.956L146.082 248.347C147.211 247.349 148.89 246.72 150.674 246.72C153.246 246.72 154.584 248.005 154.584 250.367V251.207H150.202C146.24 251.207 144.875 252.991 144.875 255.116C144.875 257.504 146.791 259.131 149.913 259.131C152.196 259.131 153.823 258.265 154.663 256.848V259H156.447V250.446C156.447 246.877 154.427 245.093 150.858 245.093ZM150.202 257.662C147.998 257.662 146.712 256.665 146.712 255.064C146.712 253.647 147.578 252.597 150.255 252.597H154.584V254.854C153.849 256.665 152.301 257.662 150.202 257.662ZM163.292 247.9V245.198H161.507V259H163.37V251.968C163.37 248.714 165.129 246.877 168.015 246.877C168.146 246.877 168.304 246.903 168.461 246.903V245.093C165.916 245.093 164.158 246.064 163.292 247.9ZM182.185 245.198L176.989 256.927L171.794 245.198H169.852L176.019 258.974L175.415 260.312C174.628 262.044 173.788 262.621 172.555 262.621C171.558 262.621 170.718 262.254 170.036 261.572L169.17 262.962C170.01 263.802 171.243 264.222 172.529 264.222C174.497 264.222 175.966 263.356 177.121 260.653L184.022 245.198H182.185ZM193.513 259H195.376V239.53H193.513V259ZM201.505 242.18C202.292 242.18 202.869 241.577 202.869 240.816C202.869 240.107 202.266 239.53 201.505 239.53C200.744 239.53 200.14 240.133 200.14 240.842C200.14 241.577 200.744 242.18 201.505 242.18ZM200.56 259H202.423V245.198H200.56V259ZM218.601 245.198V247.848C217.447 246.037 215.453 245.093 213.143 245.093C209.207 245.093 206.216 247.796 206.216 251.758C206.216 255.72 209.207 258.475 213.143 258.475C215.4 258.475 217.368 257.557 218.523 255.799V257.557C218.523 260.968 216.922 262.569 213.432 262.569C211.307 262.569 209.312 261.86 208 260.679L207.056 262.096C208.499 263.461 210.966 264.222 213.485 264.222C218.05 264.222 220.386 262.07 220.386 257.321V245.198H218.601ZM213.327 256.822C210.283 256.822 208.105 254.749 208.105 251.758C208.105 248.766 210.283 246.72 213.327 246.72C216.371 246.72 218.575 248.766 218.575 251.758C218.575 254.749 216.371 256.822 213.327 256.822ZM232.628 245.093C230.293 245.093 228.482 246.011 227.459 247.612V239.53H225.596V259H227.459V251.758C227.459 248.609 229.322 246.772 232.287 246.772C234.911 246.772 236.433 248.268 236.433 251.18V259H238.296V250.997C238.296 247.035 235.987 245.093 232.628 245.093ZM249.966 256.822C249.441 257.294 248.68 257.531 247.919 257.531C246.371 257.531 245.532 256.638 245.532 255.012V246.772H249.73V245.198H245.532V242.18H243.669V245.198H241.202V246.772H243.669V255.116C243.669 257.662 245.112 259.131 247.71 259.131C248.785 259.131 249.887 258.816 250.622 258.16L249.966 256.822ZM265.571 252.099C265.571 247.953 262.763 245.093 258.88 245.093C254.996 245.093 252.136 248.005 252.136 252.099C252.136 256.192 255.075 259.131 259.378 259.131C261.556 259.131 263.472 258.344 264.705 256.875L263.655 255.668C262.606 256.875 261.11 257.478 259.431 257.478C256.413 257.478 254.209 255.563 253.999 252.676H265.545C265.545 252.466 265.571 252.256 265.571 252.099ZM258.88 246.693C261.583 246.693 263.551 248.583 263.787 251.285H253.999C254.235 248.583 256.203 246.693 258.88 246.693ZM276.395 245.093C274.008 245.093 272.145 246.064 271.147 247.743V245.198H269.363V259H271.226V251.758C271.226 248.609 273.089 246.772 276.054 246.772C278.678 246.772 280.2 248.268 280.2 251.18V259H282.063V250.997C282.063 247.035 279.754 245.093 276.395 245.093ZM286.098 252.702H292.973V251.076H286.098V252.702ZM301.64 248.504L306.835 241.97V240.632H295.027V242.311H304.421L299.331 248.688V250.078H300.643C304.054 250.078 305.602 251.522 305.602 253.726C305.602 256.009 303.923 257.426 300.879 257.426C298.491 257.426 296.366 256.533 295.185 255.3L294.266 256.796C295.683 258.239 298.229 259.157 300.879 259.157C305.314 259.157 307.544 256.796 307.544 253.726C307.544 250.787 305.576 248.714 301.64 248.504Z" fill="#121212"/>
<path d="M53.3289 159.131C56.9237 159.131 59.0229 157.583 59.0229 155.195C59.0229 149.895 50.0751 152.702 50.0751 148.976C50.0751 147.664 51.1772 146.693 53.67 146.693C55.0869 146.693 56.5301 147.035 57.7372 147.874L58.5506 146.379C57.3961 145.591 55.4543 145.093 53.67 145.093C50.1538 145.093 48.2121 146.772 48.2121 149.029C48.2121 154.487 57.1599 151.653 57.1599 155.248C57.1599 156.612 56.0841 157.504 53.4601 157.504C51.5183 157.504 49.6553 156.822 48.5532 155.956L47.7135 157.426C48.8418 158.396 51.046 159.131 53.3289 159.131ZM74.5113 152.099C74.5113 147.953 71.7036 145.093 67.8201 145.093C63.9366 145.093 61.0764 148.005 61.0764 152.099C61.0764 156.192 64.0153 159.131 68.3187 159.131C70.4966 159.131 72.4121 158.344 73.6454 156.875L72.5958 155.668C71.5462 156.875 70.0505 157.478 68.3711 157.478C65.3535 157.478 63.1494 155.563 62.9395 152.676H74.4851C74.4851 152.466 74.5113 152.256 74.5113 152.099ZM67.8201 146.693C70.5228 146.693 72.4908 148.583 72.727 151.285H62.9395C63.1756 148.583 65.1436 146.693 67.8201 146.693ZM84.0237 159.131C86.3591 159.131 88.3271 158.187 89.4291 156.402L88.0384 155.458C87.0938 156.848 85.6243 157.478 84.0237 157.478C81.0061 157.478 78.8019 155.353 78.8019 152.099C78.8019 148.871 81.0061 146.72 84.0237 146.72C85.6243 146.72 87.0938 147.376 88.0384 148.766L89.4291 147.822C88.3271 146.011 86.3591 145.093 84.0237 145.093C79.904 145.093 76.9127 147.979 76.9127 152.099C76.9127 156.219 79.904 159.131 84.0237 159.131ZM98.5 159.131C102.541 159.131 105.506 156.192 105.506 152.099C105.506 148.005 102.541 145.093 98.5 145.093C94.459 145.093 91.4677 148.005 91.4677 152.099C91.4677 156.192 94.459 159.131 98.5 159.131ZM98.5 157.478C95.5611 157.478 93.3569 155.326 93.3569 152.099C93.3569 148.871 95.5611 146.72 98.5 146.72C101.439 146.72 103.617 148.871 103.617 152.099C103.617 155.326 101.439 157.478 98.5 157.478ZM116.342 145.093C113.954 145.093 112.091 146.064 111.094 147.743V145.198H109.31V159H111.173V151.758C111.173 148.609 113.036 146.772 116.001 146.772C118.625 146.772 120.147 148.268 120.147 151.18V159H122.01V150.997C122.01 147.035 119.701 145.093 116.342 145.093ZM137.851 139.53V147.822C136.697 146.037 134.807 145.093 132.603 145.093C128.667 145.093 125.728 147.927 125.728 152.099C125.728 156.271 128.667 159.131 132.603 159.131C134.886 159.131 136.802 158.134 137.93 156.271V159H139.714V139.53H137.851ZM132.761 157.478C129.822 157.478 127.618 155.326 127.618 152.099C127.618 148.871 129.822 146.72 132.761 146.72C135.673 146.72 137.877 148.871 137.877 152.099C137.877 155.326 135.673 157.478 132.761 157.478ZM149.731 145.093C147.553 145.093 145.506 145.775 144.116 146.956L144.955 148.347C146.084 147.349 147.763 146.72 149.547 146.72C152.119 146.72 153.457 148.005 153.457 150.367V151.207H149.075C145.113 151.207 143.748 152.991 143.748 155.116C143.748 157.504 145.664 159.131 148.786 159.131C151.069 159.131 152.696 158.265 153.536 156.848V159H155.32V150.446C155.32 146.877 153.3 145.093 149.731 145.093ZM149.075 157.662C146.871 157.662 145.585 156.665 145.585 155.064C145.585 153.647 146.451 152.597 149.127 152.597H153.457V154.854C152.722 156.665 151.174 157.662 149.075 157.662ZM162.165 147.9V145.198H160.38V159H162.243V151.968C162.243 148.714 164.001 146.877 166.888 146.877C167.019 146.877 167.176 146.903 167.334 146.903V145.093C164.789 145.093 163.031 146.064 162.165 147.9ZM181.058 145.198L175.862 156.927L170.667 145.198H168.725L174.891 158.974L174.288 160.312C173.501 162.044 172.661 162.621 171.428 162.621C170.431 162.621 169.591 162.254 168.909 161.572L168.043 162.962C168.882 163.802 170.116 164.222 171.401 164.222C173.369 164.222 174.839 163.356 175.993 160.653L182.895 145.198H181.058ZM192.386 159H194.249V139.53H192.386V159ZM200.377 142.18C201.165 142.18 201.742 141.577 201.742 140.816C201.742 140.107 201.138 139.53 200.377 139.53C199.616 139.53 199.013 140.133 199.013 140.842C199.013 141.577 199.616 142.18 200.377 142.18ZM199.433 159H201.296V145.198H199.433V159ZM217.474 145.198V147.848C216.32 146.037 214.325 145.093 212.016 145.093C208.08 145.093 205.089 147.796 205.089 151.758C205.089 155.72 208.08 158.475 212.016 158.475C214.273 158.475 216.241 157.557 217.395 155.799V157.557C217.395 160.968 215.795 162.569 212.305 162.569C210.179 162.569 208.185 161.86 206.873 160.679L205.929 162.096C207.372 163.461 209.838 164.222 212.357 164.222C216.923 164.222 219.259 162.07 219.259 157.321V145.198H217.474ZM212.2 156.822C209.156 156.822 206.978 154.749 206.978 151.758C206.978 148.766 209.156 146.72 212.2 146.72C215.244 146.72 217.448 148.766 217.448 151.758C217.448 154.749 215.244 156.822 212.2 156.822ZM231.501 145.093C229.165 145.093 227.355 146.011 226.331 147.612V139.53H224.468V159H226.331V151.758C226.331 148.609 228.194 146.772 231.16 146.772C233.784 146.772 235.306 148.268 235.306 151.18V159H237.169V150.997C237.169 147.035 234.859 145.093 231.501 145.093ZM248.839 156.822C248.314 157.294 247.553 157.531 246.792 157.531C245.244 157.531 244.404 156.638 244.404 155.012V146.772H248.603V145.198H244.404V142.18H242.541V145.198H240.075V146.772H242.541V155.116C242.541 157.662 243.985 159.131 246.582 159.131C247.658 159.131 248.76 158.816 249.495 158.16L248.839 156.822ZM264.444 152.099C264.444 147.953 261.636 145.093 257.753 145.093C253.869 145.093 251.009 148.005 251.009 152.099C251.009 156.192 253.948 159.131 258.251 159.131C260.429 159.131 262.345 158.344 263.578 156.875L262.528 155.668C261.479 156.875 259.983 157.478 258.304 157.478C255.286 157.478 253.082 155.563 252.872 152.676H264.418C264.418 152.466 264.444 152.256 264.444 152.099ZM257.753 146.693C260.455 146.693 262.423 148.583 262.659 151.285H252.872C253.108 148.583 255.076 146.693 257.753 146.693ZM275.268 145.093C272.88 145.093 271.017 146.064 270.02 147.743V145.198H268.236V159H270.099V151.758C270.099 148.609 271.962 146.772 274.927 146.772C277.551 146.772 279.073 148.268 279.073 151.18V159H280.936V150.997C280.936 147.035 278.627 145.093 275.268 145.093ZM284.971 152.702H291.846V151.076H284.971V152.702ZM310.598 152.492H306.924V148.242H305.088V152.492H297.111L306.504 140.632H304.405L294.67 152.807V154.172H305.035V159H306.924V154.172H310.598V152.492Z" fill="#121212"/>
<path d="M54.6742 59.1312C58.269 59.1312 60.3682 57.583 60.3682 55.1952C60.3682 49.8947 51.4204 52.7024 51.4204 48.9763C51.4204 47.6643 52.5225 46.6934 55.0153 46.6934C56.4322 46.6934 57.8754 47.0346 59.0825 47.8742L59.8959 46.3786C58.7414 45.5914 56.7996 45.0928 55.0153 45.0928C51.4991 45.0928 49.5574 46.7722 49.5574 49.0288C49.5574 54.4867 58.5052 51.6528 58.5052 55.2477C58.5052 56.6122 57.4294 57.5043 54.8054 57.5043C52.8636 57.5043 51.0006 56.8221 49.8985 55.9562L49.0588 57.4256C50.1871 58.3965 52.3913 59.1312 54.6742 59.1312ZM75.8566 52.0989C75.8566 47.953 73.0489 45.0928 69.1654 45.0928C65.2819 45.0928 62.4217 48.0054 62.4217 52.0989C62.4217 56.1923 65.3606 59.1312 69.664 59.1312C71.8419 59.1312 73.7574 58.344 74.9907 56.8746L73.9411 55.6675C72.8915 56.8746 71.3958 57.4781 69.7164 57.4781C66.6988 57.4781 64.4947 55.5626 64.2848 52.6762H75.8304C75.8304 52.4662 75.8566 52.2563 75.8566 52.0989ZM69.1654 46.6934C71.8681 46.6934 73.8361 48.5827 74.0723 51.2854H64.2848C64.5209 48.5827 66.4889 46.6934 69.1654 46.6934ZM85.369 59.1312C87.7044 59.1312 89.6724 58.1866 90.7745 56.4022L89.3837 55.4576C88.4391 56.8483 86.9697 57.4781 85.369 57.4781C82.3514 57.4781 80.1473 55.3526 80.1473 52.0989C80.1473 48.8714 82.3514 46.7197 85.369 46.7197C86.9697 46.7197 88.4391 47.3757 89.3837 48.7664L90.7745 47.8218C89.6724 46.0112 87.7044 45.0928 85.369 45.0928C81.2493 45.0928 78.258 47.9792 78.258 52.0989C78.258 56.2186 81.2493 59.1312 85.369 59.1312ZM99.8453 59.1312C103.886 59.1312 106.851 56.1923 106.851 52.0989C106.851 48.0054 103.886 45.0928 99.8453 45.0928C95.8043 45.0928 92.813 48.0054 92.813 52.0989C92.813 56.1923 95.8043 59.1312 99.8453 59.1312ZM99.8453 57.4781C96.9064 57.4781 94.7023 55.3264 94.7023 52.0989C94.7023 48.8714 96.9064 46.7197 99.8453 46.7197C102.784 46.7197 104.962 48.8714 104.962 52.0989C104.962 55.3264 102.784 57.4781 99.8453 57.4781ZM117.687 45.0928C115.299 45.0928 113.436 46.0637 112.439 47.743V45.1978H110.655V59H112.518V51.7578C112.518 48.609 114.381 46.7722 117.346 46.7722C119.97 46.7722 121.492 48.2678 121.492 51.1805V59H123.355V50.9968C123.355 47.0346 121.046 45.0928 117.687 45.0928ZM139.196 39.5299V47.8218C138.042 46.0374 136.153 45.0928 133.948 45.0928C130.012 45.0928 127.074 47.9267 127.074 52.0989C127.074 56.271 130.012 59.1312 133.948 59.1312C136.231 59.1312 138.147 58.1341 139.275 56.271V59H141.06V39.5299H139.196ZM134.106 57.4781C131.167 57.4781 128.963 55.3264 128.963 52.0989C128.963 48.8714 131.167 46.7197 134.106 46.7197C137.019 46.7197 139.223 48.8714 139.223 52.0989C139.223 55.3264 137.019 57.4781 134.106 57.4781ZM151.076 45.0928C148.898 45.0928 146.852 45.775 145.461 46.9558L146.301 48.3466C147.429 47.3494 149.108 46.7197 150.893 46.7197C153.464 46.7197 154.802 48.0054 154.802 50.367V51.2067H150.42C146.458 51.2067 145.094 52.991 145.094 55.1165C145.094 57.5043 147.009 59.1312 150.132 59.1312C152.414 59.1312 154.041 58.2653 154.881 56.8483V59H156.665V50.4458C156.665 46.8771 154.645 45.0928 151.076 45.0928ZM150.42 57.6618C148.216 57.6618 146.93 56.6646 146.93 55.064C146.93 53.647 147.796 52.5974 150.473 52.5974H154.802V54.8541C154.068 56.6646 152.519 57.6618 150.42 57.6618ZM163.51 47.9005V45.1978H161.726V59H163.589V51.9677C163.589 48.7139 165.347 46.8771 168.233 46.8771C168.364 46.8771 168.522 46.9034 168.679 46.9034V45.0928C166.134 45.0928 164.376 46.0637 163.51 47.9005ZM182.403 45.1978L177.208 56.927L172.012 45.1978H170.07L176.237 58.9738L175.633 60.312C174.846 62.0438 174.006 62.6211 172.773 62.6211C171.776 62.6211 170.936 62.2538 170.254 61.5715L169.388 62.9622C170.228 63.8019 171.461 64.2218 172.747 64.2218C174.715 64.2218 176.184 63.3558 177.339 60.6531L184.24 45.1978H182.403ZM193.731 59H195.594V39.5299H193.731V59ZM201.723 42.1802C202.51 42.1802 203.087 41.5766 203.087 40.8157C203.087 40.1072 202.484 39.5299 201.723 39.5299C200.962 39.5299 200.358 40.1334 200.358 40.8419C200.358 41.5766 200.962 42.1802 201.723 42.1802ZM200.778 59H202.641V45.1978H200.778V59ZM218.82 45.1978V47.848C217.665 46.0374 215.671 45.0928 213.362 45.0928C209.426 45.0928 206.434 47.7955 206.434 51.7578C206.434 55.72 209.426 58.4752 213.362 58.4752C215.618 58.4752 217.586 57.5568 218.741 55.7987V57.5568C218.741 60.968 217.14 62.5686 213.65 62.5686C211.525 62.5686 209.531 61.8602 208.219 60.6794L207.274 62.0963C208.717 63.4608 211.184 64.2218 213.703 64.2218C218.268 64.2218 220.604 62.0701 220.604 57.3206V45.1978H218.82ZM213.545 56.8221C210.501 56.8221 208.324 54.7491 208.324 51.7578C208.324 48.7664 210.501 46.7197 213.545 46.7197C216.589 46.7197 218.793 48.7664 218.793 51.7578C218.793 54.7491 216.589 56.8221 213.545 56.8221ZM232.846 45.0928C230.511 45.0928 228.7 46.0112 227.677 47.6118V39.5299H225.814V59H227.677V51.7578C227.677 48.609 229.54 46.7722 232.505 46.7722C235.129 46.7722 236.651 48.2678 236.651 51.1805V59H238.514V50.9968C238.514 47.0346 236.205 45.0928 232.846 45.0928ZM250.184 56.8221C249.66 57.2944 248.899 57.5306 248.138 57.5306C246.589 57.5306 245.75 56.6384 245.75 55.0115V46.7722H249.948V45.1978H245.75V42.1802H243.887V45.1978H241.42V46.7722H243.887V55.1165C243.887 57.6618 245.33 59.1312 247.928 59.1312C249.004 59.1312 250.106 58.8163 250.84 58.1603L250.184 56.8221ZM265.789 52.0989C265.789 47.953 262.981 45.0928 259.098 45.0928C255.214 45.0928 252.354 48.0054 252.354 52.0989C252.354 56.1923 255.293 59.1312 259.596 59.1312C261.774 59.1312 263.69 58.344 264.923 56.8746L263.874 55.6675C262.824 56.8746 261.328 57.4781 259.649 57.4781C256.631 57.4781 254.427 55.5626 254.217 52.6762H265.763C265.763 52.4662 265.789 52.2563 265.789 52.0989ZM259.098 46.6934C261.801 46.6934 263.769 48.5827 264.005 51.2854H254.217C254.453 48.5827 256.421 46.6934 259.098 46.6934ZM276.614 45.0928C274.226 45.0928 272.363 46.0637 271.366 47.743V45.1978H269.581V59H271.444V51.7578C271.444 48.609 273.307 46.7722 276.272 46.7722C278.896 46.7722 280.418 48.2678 280.418 51.1805V59H282.281V50.9968C282.281 47.0346 279.972 45.0928 276.614 45.0928ZM286.316 52.7024H293.191V51.0755H286.316V52.7024ZM300.954 48.1629H298.592L299.222 42.3114H307.619V40.632H297.569L296.624 49.8422H300.534C305.204 49.8422 306.674 51.3117 306.674 53.6733C306.674 55.9037 305.021 57.4256 301.898 57.4256C299.537 57.4256 297.437 56.5334 296.257 55.3002L295.338 56.7958C296.755 58.239 299.274 59.1574 301.924 59.1574C306.412 59.1574 308.589 56.7171 308.589 53.5946C308.589 50.3408 306.49 48.1629 300.954 48.1629Z" fill="#121212"/>
</g>
<defs>
<clipPath id="clip0">
<rect width="360" height="1000" fill="white"/>
</clipPath>
</defs>
</svg>
